SplineFontDB: 3.0
FontName: KhmerOS
FullName: Khmer OS
FamilyName: Khmer OS
Weight: Book
Copyright: KhmerOS - font for the Khmer language of Cambodia\nCopyright 2005 Danh Hong\nCopyright 2005 Open Forum of Cambodia\n \nThis font is free software; you can redistribute it and/or modify it under the terms of the GNU Lesser General Public License as published by the Free Software Foundation; either version 2.1 of the License, or (at your option) any later version.\n\nThis library is distributed in the hope that it will be useful, but WITHOUT ANY WARRANTY; without even the implied warranty of MERCHANTABILITY or FITNESS FOR A PARTICULAR PURPOSE.? See the GNU Lesser General Public License for more details.\n\nYou should have received a copy of the GNU Lesser General Public License along with this font; if not, write to the Free Software Foundation, Inc., 51 Franklin Street, Fifth Floor, Boston, MA 02110-1301  USA or visit http://www.gnu.org/licenses/lgpl.html
Version: 3.02 2006
ItalicAngle: 0
UnderlinePosition: -188
UnderlineWidth: 48
Ascent: 1638
Descent: 410
InvalidEm: 0
sfntRevision: 0x0003028f
LayerCount: 2
Layer: 0 1 "Back" 1
Layer: 1 1 "Fore" 0
XUID: [1021 542 582384140 933580]
StyleMap: 0x0040
FSType: 0
OS2Version: 3
OS2_WeightWidthSlopeOnly: 0
OS2_UseTypoMetrics: 0
CreationTime: 1085824229
ModificationTime: 1465870629
PfmFamily: 17
TTFWeight: 400
TTFWidth: 5
LineGap: 37
VLineGap: 0
Panose: 2 0 5 0 0 0 0 2 0 4
OS2TypoAscent: 2600
OS2TypoAOffset: 0
OS2TypoDescent: -1500
OS2TypoDOffset: 0
OS2TypoLinegap: 0
OS2WinAscent: 2600
OS2WinAOffset: 0
OS2WinDescent: 1500
OS2WinDOffset: 0
HheadAscent: 2600
HheadAOffset: 0
HheadDescent: -1500
HheadDOffset: 0
OS2SubXSize: 1434
OS2SubYSize: 1331
OS2SubXOff: 0
OS2SubYOff: 283
OS2SupXSize: 1434
OS2SupYSize: 1331
OS2SupXOff: 0
OS2SupYOff: 977
OS2StrikeYSize: 102
OS2StrikeYPos: 530
OS2CapHeight: 1300
OS2XHeight: 1000
OS2Vendor: 'HL  '
OS2CodePages: 20000111.41000000
OS2UnicodeRanges: a00000ef.5000204a.00010000.00000000

StartChar: exclam
Encoding: 33 33 2
Width: 569
GlyphClass: 2
Flags: W
LayerCount: 2
Fore
SplineSet
425 1493 m 1,0,-1
 425 801 l 1,1,-1
 380 344 l 1,2,-1
 300 344 l 1,3,-1
 255 801 l 1,4,-1
 255 1493 l 1,5,-1
 425 1493 l 1,0,-1
425 213 m 1,6,-1
 425 0 l 1,7,-1
 253 0 l 1,8,-1
 253 213 l 1,9,-1
 425 213 l 1,6,-1
EndSplineSet
EndChar

StartChar: quotedbl
Encoding: 34 34 3
Width: 727
GlyphClass: 2
Flags: W
LayerCount: 2
Fore
SplineSet
106 1452 m 1,0,-1
 296 1452 l 1,1,-1
 296 1225 l 1,2,-1
 241 950 l 1,3,-1
 161 950 l 1,4,-1
 106 1225 l 1,5,-1
 106 1452 l 1,0,-1
434 1452 m 1,6,-1
 624 1452 l 1,7,-1
 624 1225 l 1,8,-1
 569 950 l 1,9,-1
 489 950 l 1,10,-1
 434 1225 l 1,11,-1
 434 1452 l 1,6,-1
EndSplineSet
EndChar

StartChar: numbersign
Encoding: 35 35 4
Width: 1138
GlyphClass: 2
Flags: W
LayerCount: 2
Fore
SplineSet
993 1427 m 1,0,-1
 919 1026 l 1,1,-1
 1109 1026 l 1,2,-1
 1109 887 l 1,3,-1
 892 887 l 1,4,-1
 829 530 l 1,5,-1
 1044 530 l 1,6,-1
 1044 391 l 1,7,-1
 804 391 l 1,8,-1
 724 -40 l 1,9,-1
 569 -40 l 1,10,-1
 646 391 l 1,11,-1
 393 391 l 1,12,-1
 313 -40 l 1,13,-1
 157 -40 l 1,14,-1
 235 391 l 1,15,-1
 28 391 l 1,16,-1
 28 530 l 1,17,-1
 261 530 l 1,18,-1
 325 887 l 1,19,-1
 104 887 l 1,20,-1
 104 1026 l 1,21,-1
 352 1026 l 1,22,-1
 425 1427 l 1,23,-1
 581 1427 l 1,24,-1
 507 1026 l 1,25,-1
 763 1026 l 1,26,-1
 835 1427 l 1,27,-1
 993 1427 l 1,0,-1
737 887 m 1,28,-1
 483 887 l 1,29,-1
 417 530 l 1,30,-1
 673 530 l 1,31,-1
 737 887 l 1,28,-1
EndSplineSet
EndChar

StartChar: dollar
Encoding: 36 36 5
Width: 1138
GlyphClass: 2
Flags: W
LayerCount: 2
Fore
SplineSet
501 1577 m 1,0,-1
 622 1577 l 1,1,-1
 622 1466 l 1,2,3
 880 1448 880 1448 976 1257 c 0,4,5
 1015 1180 1015 1180 1019 1083 c 0,6,7
 1019 1073 1019 1073 1019 1063 c 1,8,-1
 858 1063 l 1,9,10
 856 1221 856 1221 739 1290 c 0,11,12
 698 1313 698 1313 649 1321 c 0,13,14
 636 1323 636 1323 622 1323 c 1,15,-1
 622 813 l 1,16,17
 827 750 827 750 890 715 c 0,18,19
 1064 616 1064 616 1064 399 c 0,20,21
 1064 186 1064 186 925 61 c 0,22,23
 903 41 903 41 876 25 c 0,24,25
 776 -34 776 -34 622 -47 c 1,26,-1
 622 -258 l 1,27,-1
 501 -258 l 1,28,-1
 501 -47 l 1,29,30
 186 -26 186 -26 98 213 c 0,31,32
 65 307 65 307 71 426 c 1,33,-1
 233 426 l 1,34,35
 247 274 247 274 276 225 c 0,36,37
 280 219 280 219 284 211 c 0,38,39
 356 113 356 113 501 94 c 1,40,-1
 501 651 l 1,41,42
 311 709 311 709 243 758 c 0,43,44
 98 862 98 862 98 1057 c 0,45,46
 98 1356 98 1356 384 1442 c 0,47,48
 438 1458 438 1458 501 1466 c 1,49,-1
 501 1577 l 1,0,-1
501 829 m 1,50,-1
 501 1321 l 1,51,52
 305 1294 305 1294 270 1139 c 0,53,54
 264 1110 264 1110 264 1077 c 0,55,56
 264 893 264 893 501 829 c 1,50,-1
622 633 m 1,57,-1
 622 94 l 1,58,59
 747 109 747 109 810 170 c 0,60,61
 896 252 896 252 896 375 c 0,62,63
 896 500 896 500 800 561 c 0,64,65
 741 598 741 598 622 633 c 1,57,-1
EndSplineSet
EndChar

StartChar: percent
Encoding: 37 37 6
Width: 1820
GlyphClass: 2
Flags: W
LayerCount: 2
Fore
SplineSet
407 1403 m 0,0,1
 579 1403 579 1403 684 1268 c 1,2,-1
 721 1210 l 1,3,4
 757 1135 757 1135 757 1049 c 0,5,6
 757 887 757 887 628 782 c 0,7,8
 532 702 532 702 409 702 c 0,9,10
 243 702 243 702 137 831 c 0,11,12
 59 930 59 930 59 1053 c 0,13,14
 59 1219 59 1219 188 1325 c 0,15,16
 284 1403 284 1403 407 1403 c 0,0,1
407 1260 m 0,17,18
 297 1260 297 1260 235 1165 c 1,19,-1
 211 1118 l 1,20,21
 200 1085 200 1085 200 1053 c 0,22,23
 200 944 200 944 292 881 c 0,24,25
 346 846 346 846 409 846 c 0,26,27
 520 846 520 846 581 938 c 0,28,29
 616 989 616 989 616 1051 c 0,30,31
 616 1167 616 1167 518 1229 c 0,32,33
 469 1260 469 1260 407 1260 c 0,17,18
1247 1452 m 1,34,-1
 1382 1452 l 1,35,-1
 573 -40 l 1,36,-1
 438 -40 l 1,37,-1
 1247 1452 l 1,34,-1
1409 659 m 0,38,39
 1583 659 1583 659 1687 524 c 0,40,41
 1759 430 1759 430 1759 307 c 0,42,43
 1759 145 1759 145 1630 41 c 0,44,45
 1534 -38 1534 -38 1411 -38 c 0,46,47
 1245 -38 1245 -38 1138 90 c 0,48,49
 1060 188 1060 188 1060 311 c 0,50,51
 1060 477 1060 477 1192 582 c 0,52,53
 1288 659 1288 659 1409 659 c 0,38,39
1409 516 m 0,54,55
 1298 516 1298 516 1237 424 c 0,56,57
 1202 373 1202 373 1202 311 c 0,58,59
 1202 199 1202 199 1298 137 c 0,60,61
 1349 104 1349 104 1411 104 c 0,62,63
 1521 104 1521 104 1583 197 c 0,64,65
 1618 248 1618 248 1618 307 c 0,66,67
 1618 424 1618 424 1519 485 c 1,68,-1
 1472 506 l 2,69,70
 1441 516 1441 516 1409 516 c 0,54,55
EndSplineSet
EndChar

StartChar: ampersand
Encoding: 38 38 7
Width: 1366
GlyphClass: 2
Flags: W
LayerCount: 2
Fore
SplineSet
1009 684 m 1,0,-1
 1173 684 l 1,1,2
 1173 492 1173 492 1054 309 c 1,3,-1
 1304 0 l 1,4,-1
 1081 0 l 1,5,-1
 954 160 l 1,6,7
 854 61 854 61 796 27 c 0,8,9
 681 -47 681 -47 526 -47 c 0,10,11
 288 -47 288 -47 174 121 c 0,12,13
 106 221 106 221 106 360 c 0,14,15
 106 526 106 526 212 635 c 0,16,17
 286 709 286 709 438 797 c 1,18,19
 294 977 294 977 276 1075 c 0,20,21
 272 1102 272 1102 272 1130 c 0,22,23
 272 1288 272 1288 405 1384 c 0,24,25
 499 1452 499 1452 622 1452 c 0,26,27
 806 1452 806 1452 901 1317 c 1,28,-1
 931 1260 l 2,29,30
 950 1217 950 1217 954 1167 c 0,31,32
 956 1149 956 1149 956 1130 c 0,33,34
 956 989 956 989 843 889 c 0,35,36
 784 836 784 836 673 774 c 1,37,-1
 946 440 l 1,38,39
 1011 555 1011 555 1009 684 c 1,0,-1
583 883 m 1,40,41
 749 987 749 987 780 1063 c 0,42,43
 794 1094 794 1094 794 1135 c 0,44,45
 794 1241 794 1241 702 1288 c 0,46,47
 663 1309 663 1309 616 1309 c 0,48,49
 493 1309 493 1309 452 1206 c 0,50,51
 440 1174 440 1174 440 1133 c 0,52,53
 440 1065 440 1065 491 993 c 1,54,-1
 583 883 l 1,40,41
856 281 m 1,55,-1
 528 690 l 1,56,57
 335 567 335 567 294 465 c 0,58,59
 278 424 278 424 278 375 c 0,60,61
 278 242 278 242 389 164 c 0,62,63
 460 113 460 113 546 113 c 0,64,65
 684 113 684 113 823 246 c 0,66,67
 839 262 839 262 856 281 c 1,55,-1
EndSplineSet
EndChar

StartChar: quotesingle
Encoding: 39 39 8
Width: 391
GlyphClass: 2
Flags: W
LayerCount: 2
Fore
SplineSet
98 1452 m 1,0,-1
 291 1452 l 1,1,-1
 291 1225 l 1,2,-1
 235 950 l 1,3,-1
 153 950 l 1,4,-1
 98 1225 l 1,5,-1
 98 1452 l 1,0,-1
EndSplineSet
EndChar

StartChar: parenleft
Encoding: 40 40 9
Width: 681
GlyphClass: 2
Flags: W
LayerCount: 2
Fore
SplineSet
483 1493 m 1,0,-1
 595 1493 l 1,1,2
 342 1083 342 1083 317 614 c 0,3,4
 315 571 315 571 315 530 c 0,5,6
 315 53 315 53 565 -382 c 0,7,8
 579 -409 579 -409 595 -434 c 1,9,-1
 483 -434 l 1,10,11
 251 -131 251 -131 176 262 c 0,12,13
 149 401 149 401 149 530 c 0,14,15
 149 897 149 897 339 1264 c 0,16,17
 403 1389 403 1389 483 1493 c 1,0,-1
EndSplineSet
EndChar

StartChar: parenright
Encoding: 41 41 10
Width: 681
GlyphClass: 2
Flags: W
LayerCount: 2
Fore
SplineSet
190 -434 m 1,0,-1
 77 -434 l 1,1,2
 331 -24 331 -24 356 444 c 0,3,4
 358 487 358 487 358 528 c 0,5,6
 358 1006 358 1006 108 1442 c 0,7,8
 93 1468 93 1468 77 1493 c 1,9,-1
 190 1493 l 1,10,11
 421 1190 421 1190 497 797 c 0,12,13
 523 657 523 657 523 528 c 0,14,15
 523 162 523 162 333 -204 c 0,16,17
 270 -329 270 -329 190 -434 c 1,0,-1
EndSplineSet
EndChar

StartChar: asterisk
Encoding: 42 42 11
Width: 796
GlyphClass: 2
Flags: W
LayerCount: 2
Fore
SplineSet
327 1493 m 1,0,-1
 456 1493 l 1,1,-1
 446 1264 l 1,2,-1
 663 1341 l 1,3,-1
 702 1221 l 1,4,-1
 480 1159 l 1,5,-1
 624 977 l 1,6,-1
 519 903 l 1,7,-1
 392 1094 l 1,8,-1
 263 903 l 1,9,-1
 161 977 l 1,10,-1
 302 1159 l 1,11,-1
 81 1221 l 1,12,-1
 120 1341 l 1,13,-1
 337 1264 l 1,14,-1
 327 1493 l 1,0,-1
EndSplineSet
EndChar

StartChar: plus
Encoding: 43 43 12
Width: 1196
GlyphClass: 2
Flags: W
LayerCount: 2
Fore
SplineSet
1093 547 m 1,0,-1
 1093 403 l 1,1,-1
 669 403 l 1,2,-1
 669 -20 l 1,3,-1
 526 -20 l 1,4,-1
 526 403 l 1,5,-1
 102 403 l 1,6,-1
 102 547 l 1,7,-1
 526 547 l 1,8,-1
 526 971 l 1,9,-1
 669 971 l 1,10,-1
 669 547 l 1,11,-1
 1093 547 l 1,0,-1
EndSplineSet
EndChar

StartChar: comma
Encoding: 44 44 13
Width: 569
GlyphClass: 2
Flags: W
LayerCount: 2
Fore
SplineSet
178 213 m 1,0,-1
 393 213 l 1,1,-1
 393 -32 l 2,2,3
 393 -301 393 -301 178 -301 c 1,4,-1
 178 -223 l 1,5,6
 266 -219 266 -219 287 -155 c 0,7,8
 301 -116 301 -116 301 -36 c 2,9,-1
 301 0 l 1,10,-1
 178 0 l 1,11,-1
 178 213 l 1,0,-1
EndSplineSet
EndChar

StartChar: hyphen
Encoding: 45 45 14
Width: 681
GlyphClass: 2
Flags: W
LayerCount: 2
Fore
SplineSet
581 639 m 1,0,-1
 581 492 l 1,1,-1
 94 492 l 1,2,-1
 94 639 l 1,3,-1
 581 639 l 1,0,-1
EndSplineSet
EndChar

StartChar: period
Encoding: 46 46 15
Width: 569
GlyphClass: 2
Flags: W
LayerCount: 2
Fore
SplineSet
391 213 m 1,0,-1
 391 0 l 1,1,-1
 178 0 l 1,2,-1
 178 213 l 1,3,-1
 391 213 l 1,0,-1
EndSplineSet
EndChar

StartChar: slash
Encoding: 47 47 16
Width: 569
GlyphClass: 2
Flags: W
LayerCount: 2
Fore
SplineSet
469 1493 m 1,0,-1
 582 1493 l 1,1,-1
 97 -40 l 1,2,-1
 -16 -40 l 1,3,-1
 469 1493 l 1,0,-1
EndSplineSet
EndChar

StartChar: zero
Encoding: 48 48 17
Width: 1138
GlyphClass: 2
Flags: W
LayerCount: 2
Fore
SplineSet
563 1452 m 0,0,1
 787 1452 787 1452 905 1284 c 0,2,3
 1023 1115 1023 1115 1036 778 c 0,4,5
 1038 735 1038 735 1038 690 c 0,6,7
 1038 413 1038 413 968 239 c 0,8,9
 897 65 897 65 756 -6 c 0,10,11
 670 -47 670 -47 563 -47 c 0,12,13
 383 -47 383 -47 271 64 c 0,14,15
 159 174 159 174 115 395 c 0,16,17
 88 530 88 530 88 702 c 0,18,19
 88 1102 88 1102 229 1292 c 0,20,21
 340 1438 340 1438 534 1452 c 0,22,23
 549 1452 549 1452 563 1452 c 0,0,1
563 1292 m 0,24,25
 418 1292 418 1292 345 1144 c 256,26,27
 272 996 272 996 272 700 c 0,28,29
 272 401 272 401 344 252 c 0,30,31
 416 102 416 102 559 102 c 0,32,33
 680 102 680 102 751 201 c 0,34,35
 823 299 823 299 844 496 c 0,36,37
 854 590 854 590 854 707 c 0,38,39
 854 1000 854 1000 781 1146 c 0,40,41
 709 1292 709 1292 563 1292 c 0,24,25
EndSplineSet
EndChar

StartChar: one
Encoding: 49 49 18
Width: 1138
GlyphClass: 2
Flags: W
LayerCount: 2
Fore
SplineSet
530 1034 m 1,0,-1
 208 1034 l 1,1,-1
 208 1163 l 1,2,3
 417 1190 417 1190 478 1237 c 0,4,5
 540 1282 540 1282 583 1427 c 0,6,7
 587 1440 587 1440 591 1452 c 1,8,-1
 710 1452 l 1,9,-1
 710 0 l 1,10,-1
 530 0 l 1,11,-1
 530 1034 l 1,0,-1
EndSplineSet
EndChar

StartChar: two
Encoding: 50 50 19
Width: 1138
GlyphClass: 2
Flags: W
LayerCount: 2
Fore
SplineSet
581 1452 m 0,0,1
 829 1452 829 1452 960 1288 c 1,2,-1
 999 1227 l 1,3,4
 1046 1137 1046 1137 1046 1026 c 0,5,6
 1046 756 1046 756 739 588 c 2,7,-1
 534 477 l 1,8,9
 348 369 348 369 298 268 c 0,10,11
 280 227 280 227 272 178 c 1,12,-1
 1036 178 l 1,13,-1
 1036 0 l 1,14,-1
 69 0 l 1,15,16
 83 262 83 262 186 399 c 0,17,18
 272 512 272 512 477 629 c 2,19,-1
 665 735 l 2,20,21
 862 848 862 848 862 1022 c 0,22,23
 862 1169 862 1169 739 1249 c 0,24,25
 667 1294 667 1294 575 1294 c 0,26,27
 421 1294 421 1294 339 1178 c 1,28,-1
 325 1153 l 2,29,30
 290 1087 290 1087 282 948 c 1,31,-1
 102 948 l 1,32,33
 108 1153 108 1153 180 1264 c 0,34,35
 302 1452 302 1452 581 1452 c 0,0,1
EndSplineSet
EndChar

StartChar: three
Encoding: 51 51 20
Width: 1138
GlyphClass: 2
Flags: W
LayerCount: 2
Fore
SplineSet
544 -47 m 0,0,1
 343 -47 343 -47 225 47 c 0,2,3
 108 142 108 142 75 330 c 0,4,5
 69 373 69 373 65 422 c 1,6,-1
 245 422 l 1,7,8
 254 287 254 287 312 211 c 0,9,10
 370 136 370 136 477 119 c 0,11,12
 511 113 511 113 550 113 c 0,13,14
 657 113 657 113 726 153 c 0,15,16
 796 194 796 194 829 274 c 0,17,18
 851 332 851 332 851 403 c 0,19,20
 851 536 851 536 776 602 c 256,21,22
 701 668 701 668 550 668 c 1,23,-1
 475 666 l 1,24,-1
 452 666 l 1,25,-1
 452 819 l 1,26,27
 683 823 683 823 753 887 c 0,28,29
 808 938 808 938 808 1047 c 0,30,31
 808 1221 808 1221 665 1276 c 0,32,33
 616 1294 616 1294 552 1294 c 0,34,35
 393 1294 393 1294 321 1186 c 1,36,-1
 309 1165 l 2,37,38
 278 1106 278 1106 276 983 c 1,39,-1
 96 983 l 1,40,41
 100 1198 100 1198 197 1315 c 0,42,43
 295 1432 295 1432 485 1450 c 0,44,45
 516 1452 516 1452 550 1452 c 0,46,47
 694 1452 694 1452 792 1404 c 0,48,49
 891 1356 891 1356 944 1260 c 0,50,51
 993 1171 993 1171 993 1053 c 0,52,53
 993 831 993 831 790 752 c 1,54,55
 980 686 980 686 1021 530 c 0,56,57
 1036 477 1036 477 1036 406 c 0,58,59
 1036 154 1036 154 843 31 c 0,60,61
 720 -47 720 -47 544 -47 c 0,0,1
EndSplineSet
EndChar

StartChar: four
Encoding: 52 52 21
Width: 1138
GlyphClass: 2
Flags: W
LayerCount: 2
Fore
SplineSet
669 348 m 1,0,-1
 57 348 l 1,1,-1
 57 539 l 1,2,-1
 716 1452 l 1,3,-1
 850 1452 l 1,4,-1
 850 510 l 1,5,-1
 1065 510 l 1,6,-1
 1065 348 l 1,7,-1
 850 348 l 1,8,-1
 850 0 l 1,9,-1
 669 0 l 1,10,-1
 669 348 l 1,0,-1
669 510 m 1,11,-1
 669 1145 l 1,12,-1
 215 510 l 1,13,-1
 669 510 l 1,11,-1
EndSplineSet
EndChar

StartChar: five
Encoding: 53 53 22
Width: 1138
GlyphClass: 2
Flags: W
LayerCount: 2
Fore
SplineSet
974 1452 m 1,0,-1
 974 1274 l 1,1,-1
 370 1274 l 1,2,-1
 313 868 l 1,3,4
 433 956 433 956 581 956 c 0,5,6
 827 956 827 956 958 778 c 0,7,8
 1050 653 1050 653 1050 473 c 0,9,10
 1050 209 1050 209 872 61 c 0,11,12
 741 -47 741 -47 552 -47 c 0,13,14
 323 -47 323 -47 190 90 c 0,15,16
 173 109 173 109 159 127 c 0,17,18
 104 195 104 195 71 356 c 1,19,-1
 251 356 l 1,20,21
 283 235 283 235 357 174 c 0,22,23
 432 113 432 113 548 113 c 0,24,25
 755 113 755 113 833 279 c 0,26,27
 866 352 866 352 866 449 c 0,28,29
 866 672 866 672 710 758 c 0,30,31
 640 797 640 797 548 797 c 0,32,33
 417 797 417 797 325 709 c 0,34,35
 304 688 304 688 282 662 c 1,36,-1
 116 662 l 1,37,-1
 225 1452 l 1,38,-1
 974 1452 l 1,0,-1
EndSplineSet
EndChar

StartChar: six
Encoding: 54 54 23
Width: 1138
GlyphClass: 2
Flags: W
LayerCount: 2
Fore
SplineSet
575 -47 m 0,0,1
 332 -47 332 -47 210 130 c 0,2,3
 88 308 88 308 88 662 c 0,4,5
 88 1040 88 1040 219 1245 c 1,6,7
 334 1417 334 1417 539 1448 c 0,8,9
 573 1452 573 1452 608 1452 c 0,10,11
 844 1452 844 1452 956 1262 c 0,12,13
 1003 1180 1003 1180 1020 1073 c 1,14,-1
 840 1073 l 1,15,16
 803 1253 803 1253 653 1286 c 0,17,18
 627 1292 627 1292 596 1292 c 0,19,20
 483 1292 483 1292 408 1218 c 0,21,22
 334 1145 334 1145 299 997 c 0,23,24
 272 887 272 887 272 741 c 1,25,26
 391 903 391 903 606 903 c 0,27,28
 833 903 833 903 960 733 c 0,29,30
 1051 612 1051 612 1051 442 c 0,31,32
 1051 199 1051 199 883 59 c 0,33,34
 756 -47 756 -47 575 -47 c 0,0,1
584 743 m 0,35,36
 410 743 410 743 328 608 c 0,37,38
 283 535 283 535 283 438 c 0,39,40
 283 262 283 262 407 168 c 0,41,42
 481 113 481 113 577 113 c 0,43,44
 733 113 733 113 815 242 c 0,45,46
 866 324 866 324 866 428 c 0,47,48
 866 637 866 637 721 713 c 0,49,50
 661 743 661 743 584 743 c 0,35,36
EndSplineSet
EndChar

StartChar: seven
Encoding: 55 55 24
Width: 1138
GlyphClass: 2
Flags: W
LayerCount: 2
Fore
SplineSet
1065 1452 m 1,0,-1
 1065 1300 l 1,1,2
 858 1026 858 1026 721 750 c 0,3,4
 584 475 584 475 516 197 c 0,5,6
 491 100 491 100 475 0 c 1,7,-1
 282 0 l 1,8,9
 385 446 385 446 575 797 c 0,10,11
 688 1004 688 1004 878 1274 c 1,12,-1
 94 1274 l 1,13,-1
 94 1452 l 1,14,-1
 1065 1452 l 1,0,-1
EndSplineSet
EndChar

StartChar: eight
Encoding: 56 56 25
Width: 1138
GlyphClass: 2
Flags: W
LayerCount: 2
Fore
SplineSet
800 764 m 1,0,1
 1050 645 1050 645 1050 401 c 0,2,3
 1050 172 1050 172 874 47 c 0,4,5
 745 -47 745 -47 562 -47 c 0,6,7
 308 -47 308 -47 171 121 c 0,8,9
 75 240 75 240 75 403 c 0,10,11
 75 645 75 645 323 764 c 1,12,13
 175 856 175 856 143 954 c 0,14,15
 126 1001 126 1001 126 1065 c 0,16,17
 126 1268 126 1268 292 1376 c 0,18,19
 405 1452 405 1452 562 1452 c 0,20,21
 800 1452 800 1452 921 1296 c 0,22,23
 999 1198 999 1198 999 1065 c 0,24,25
 999 926 999 926 906 842 c 1,26,-1
 841 788 l 2,27,28
 823 776 823 776 800 764 c 1,0,1
562 1292 m 0,29,30
 399 1292 399 1292 337 1174 c 1,31,-1
 317 1120 l 1,32,-1
 311 1063 l 1,33,34
 311 920 311 920 435 862 c 0,35,36
 491 836 491 836 562 836 c 0,37,38
 726 836 726 836 788 952 c 0,39,40
 814 1001 814 1001 814 1061 c 0,41,42
 814 1214 814 1214 681 1270 c 0,43,44
 630 1292 630 1292 562 1292 c 0,29,30
562 684 m 0,45,46
 380 684 380 684 300 553 c 0,47,48
 259 485 259 485 259 399 c 0,49,50
 259 231 259 231 394 154 c 0,51,52
 464 113 464 113 558 113 c 0,53,54
 745 113 745 113 825 246 c 0,55,56
 866 313 866 313 866 399 c 0,57,58
 866 567 866 567 728 645 c 0,59,60
 657 684 657 684 562 684 c 0,45,46
EndSplineSet
EndChar

StartChar: nine
Encoding: 57 57 26
Width: 1138
GlyphClass: 2
Flags: W
LayerCount: 2
Fore
SplineSet
552 1452 m 0,0,1
 796 1452 796 1452 919 1275 c 0,2,3
 1041 1098 1041 1098 1042 743 c 0,4,5
 1042 365 1042 365 908 160 c 0,6,7
 800 -6 800 -6 601 -40 c 0,8,9
 560 -47 560 -47 519 -47 c 0,10,11
 284 -47 284 -47 171 143 c 0,12,13
 124 225 124 225 108 332 c 1,14,-1
 288 332 l 1,15,16
 307 242 307 242 353 189 c 0,17,18
 400 136 400 136 474 119 c 0,19,20
 501 113 501 113 532 113 c 0,21,22
 646 113 646 113 720 187 c 256,23,24
 794 261 794 261 829 408 c 0,25,26
 855 518 855 518 855 664 c 1,27,28
 712 506 712 506 523 502 c 1,29,30
 294 502 294 502 167 672 c 0,31,32
 77 793 77 793 77 963 c 0,33,34
 77 1206 77 1206 245 1346 c 0,35,36
 372 1452 372 1452 552 1452 c 0,0,1
550 1294 m 0,37,38
 394 1294 394 1294 313 1163 c 1,39,-1
 282 1102 l 1,40,-1
 265 1030 l 2,41,42
 261 1004 261 1004 261 977 c 0,43,44
 261 873 261 873 298 801 c 0,45,46
 334 730 334 730 407 692 c 0,47,48
 466 662 466 662 544 662 c 0,49,50
 714 662 714 662 798 795 c 0,51,52
 845 868 845 868 845 967 c 0,53,54
 845 1145 845 1145 720 1239 c 0,55,56
 644 1294 644 1294 550 1294 c 0,37,38
EndSplineSet
EndChar

StartChar: colon
Encoding: 58 58 27
Width: 569
GlyphClass: 2
Flags: W
LayerCount: 2
Fore
SplineSet
438 213 m 1,0,-1
 438 0 l 1,1,-1
 225 0 l 1,2,-1
 225 213 l 1,3,-1
 438 213 l 1,0,-1
438 1073 m 1,4,-1
 438 860 l 1,5,-1
 225 860 l 1,6,-1
 225 1073 l 1,7,-1
 438 1073 l 1,4,-1
EndSplineSet
EndChar

StartChar: semicolon
Encoding: 59 59 28
Width: 569
GlyphClass: 2
Flags: W
LayerCount: 2
Fore
SplineSet
440 1073 m 1,0,-1
 440 860 l 1,1,-1
 227 860 l 1,2,-1
 227 1073 l 1,3,-1
 440 1073 l 1,0,-1
225 213 m 1,4,-1
 440 213 l 1,5,-1
 440 -32 l 2,6,7
 440 -301 440 -301 225 -301 c 1,8,-1
 225 -223 l 1,9,10
 313 -219 313 -219 334 -155 c 0,11,12
 348 -116 348 -116 348 -36 c 2,13,-1
 348 0 l 1,14,-1
 225 0 l 1,15,-1
 225 213 l 1,4,-1
EndSplineSet
EndChar

StartChar: less
Encoding: 60 60 29
Width: 1196
GlyphClass: 2
Flags: W
LayerCount: 2
Fore
SplineSet
92 406 m 1,0,-1
 92 547 l 1,1,-1
 1093 971 l 1,2,-1
 1093 809 l 1,3,-1
 287 479 l 1,4,-1
 1093 143 l 1,5,-1
 1093 -18 l 1,6,-1
 92 406 l 1,0,-1
EndSplineSet
EndChar

StartChar: equal
Encoding: 61 61 30
Width: 1196
GlyphClass: 2
Flags: W
LayerCount: 2
Fore
SplineSet
1093 723 m 1,0,-1
 1093 580 l 1,1,-1
 102 580 l 1,2,-1
 102 723 l 1,3,-1
 1093 723 l 1,0,-1
1093 371 m 1,4,-1
 1093 227 l 1,5,-1
 102 227 l 1,6,-1
 102 371 l 1,7,-1
 1093 371 l 1,4,-1
EndSplineSet
EndChar

StartChar: greater
Encoding: 62 62 31
Width: 1196
GlyphClass: 2
Flags: W
LayerCount: 2
Fore
SplineSet
1103 547 m 1,0,-1
 1103 406 l 1,1,-1
 102 -18 l 1,2,-1
 102 143 l 1,3,-1
 909 473 l 1,4,-1
 102 809 l 1,5,-1
 102 971 l 1,6,-1
 1103 547 l 1,0,-1
EndSplineSet
EndChar

StartChar: question
Encoding: 63 63 32
Width: 1138
GlyphClass: 2
Flags: W
LayerCount: 2
Fore
SplineSet
675 408 m 1,0,-1
 491 408 l 1,1,-1
 491 520 l 2,2,3
 491 623 491 623 548 698 c 0,4,5
 583 743 583 743 655 811 c 0,6,7
 669 823 669 823 704 854 c 0,8,9
 855 989 855 989 857 1124 c 0,10,11
 857 1268 857 1268 732 1329 c 1,12,-1
 669 1350 l 2,13,14
 634 1358 634 1358 595 1358 c 0,15,16
 427 1358 427 1358 366 1239 c 0,17,18
 331 1169 331 1169 331 1038 c 1,19,-1
 157 1038 l 1,20,21
 157 1254 157 1254 249 1373 c 0,22,23
 342 1492 342 1492 526 1513 c 0,24,25
 565 1518 565 1518 606 1518 c 0,26,27
 864 1518 864 1518 978 1348 c 1,28,-1
 1011 1286 l 1,29,30
 1042 1212 1042 1212 1042 1124 c 0,31,32
 1042 981 1042 981 937 860 c 0,33,34
 898 813 898 813 837 758 c 0,35,36
 708 639 708 639 687 584 c 0,37,38
 675 553 675 553 675 504 c 2,39,-1
 675 408 l 1,0,-1
675 213 m 1,40,-1
 675 0 l 1,41,-1
 491 0 l 1,42,-1
 491 213 l 1,43,-1
 675 213 l 1,40,-1
EndSplineSet
EndChar

StartChar: at
Encoding: 64 64 33
Width: 2078
GlyphClass: 2
Flags: W
LayerCount: 2
Fore
SplineSet
1361 1026 m 1,0,-1
 1531 1026 l 1,1,-1
 1347 453 l 2,2,3
 1322 381 1322 381 1322 350 c 0,4,5
 1322 295 1322 295 1382 268 c 0,6,7
 1402 260 1402 260 1425 260 c 0,8,9
 1556 260 1556 260 1664 408 c 0,10,11
 1769 553 1769 553 1769 731 c 0,12,13
 1769 977 1769 977 1570 1159 c 0,14,15
 1367 1348 1367 1348 1079 1360 c 0,16,17
 1064 1360 1064 1360 1048 1360 c 0,18,19
 747 1360 747 1360 515 1151 c 1,20,-1
 446 1081 l 1,21,22
 243 850 243 850 243 559 c 0,23,24
 243 270 243 270 458 72 c 0,25,26
 679 -133 679 -133 1011 -133 c 0,27,28
 1173 -133 1173 -133 1406 -67 c 1,29,-1
 1464 -204 l 1,30,31
 1234 -290 1234 -290 1001 -290 c 0,32,33
 632 -290 632 -290 364 -71 c 0,34,35
 114 133 114 133 75 434 c 0,36,37
 69 481 69 481 69 528 c 0,38,39
 69 844 69 844 264 1110 c 0,40,41
 321 1190 321 1190 393 1253 c 0,42,43
 614 1454 614 1454 923 1505 c 0,44,45
 999 1518 999 1518 1075 1518 c 0,46,47
 1415 1518 1415 1518 1666 1311 c 0,48,49
 1904 1118 1904 1118 1941 842 c 0,50,51
 1947 799 1947 799 1947 756 c 0,52,53
 1947 508 1947 508 1771 299 c 0,54,55
 1615 117 1615 117 1390 117 c 0,56,57
 1193 117 1193 117 1165 274 c 1,58,59
 1030 127 1030 127 874 127 c 0,60,61
 706 127 706 127 610 268 c 0,62,63
 540 369 540 369 540 502 c 0,64,65
 540 725 540 725 702 897 c 0,66,67
 860 1067 860 1067 1066 1069 c 0,68,69
 1238 1069 1238 1069 1316 891 c 1,70,-1
 1361 1026 l 1,0,-1
1054 938 m 0,71,72
 919 938 919 938 817 793 c 0,73,74
 724 664 724 664 724 500 c 0,75,76
 724 362 724 362 821 293 c 0,77,78
 870 258 870 258 927 258 c 0,79,80
 1046 258 1046 258 1136 391 c 0,81,82
 1204 489 1204 489 1236 662 c 0,83,84
 1245 707 1245 707 1247 741 c 0,85,86
 1253 852 1253 852 1163 909 c 0,87,88
 1113 938 1113 938 1054 938 c 0,71,72
EndSplineSet
EndChar

StartChar: A
Encoding: 65 65 34
Width: 1366
GlyphClass: 2
Flags: W
LayerCount: 2
Fore
SplineSet
970 449 m 1,0,-1
 394 449 l 1,1,-1
 237 0 l 1,2,-1
 34 0 l 1,3,-1
 566 1493 l 1,4,-1
 812 1493 l 1,5,-1
 1337 0 l 1,6,-1
 1124 0 l 1,7,-1
 970 449 l 1,0,-1
917 608 m 1,8,-1
 687 1288 l 1,9,-1
 442 608 l 1,10,-1
 917 608 l 1,8,-1
EndSplineSet
EndChar

StartChar: B
Encoding: 66 66 35
Width: 1138
GlyphClass: 2
Flags: W
LayerCount: 2
Fore
SplineSet
110 1493 m 1,0,-1
 280 1493 l 1,1,-1
 280 928 l 1,2,3
 397 1104 397 1104 612 1104 c 0,4,5
 874 1104 874 1104 995 883 c 0,6,7
 1071 743 1071 743 1071 541 c 0,8,9
 1071 211 1071 211 884 53 c 0,10,11
 767 -47 767 -47 604 -47 c 0,12,13
 384 -47 384 -47 264 137 c 1,14,-1
 264 0 l 1,15,-1
 110 0 l 1,16,-1
 110 1493 l 1,0,-1
579 944 m 0,17,18
 409 944 409 944 329 772 c 0,19,20
 280 670 280 670 280 528 c 0,21,22
 280 272 280 272 421 166 c 0,23,24
 489 113 489 113 579 113 c 0,25,26
 751 113 751 113 837 274 c 0,27,28
 892 379 892 379 892 522 c 0,29,30
 892 782 892 782 745 891 c 1,31,32
 669 942 669 942 579 944 c 0,17,18
EndSplineSet
EndChar

StartChar: C
Encoding: 67 67 36
Width: 1024
GlyphClass: 2
Flags: W
LayerCount: 2
Fore
SplineSet
964 713 m 1,0,-1
 792 713 l 1,1,2
 765 911 765 911 593 942 c 1,3,-1
 538 946 l 1,4,5
 346 946 346 946 274 741 c 0,6,7
 241 647 241 647 241 518 c 0,8,9
 241 238 241 238 403 145 c 0,10,11
 462 111 462 111 542 111 c 0,12,13
 761 111 761 111 804 369 c 1,14,-1
 976 369 l 1,15,16
 954 88 954 88 741 -6 c 0,17,18
 653 -47 653 -47 538 -47 c 0,19,20
 274 -47 274 -47 147 168 c 0,21,22
 63 311 63 311 63 518 c 0,23,24
 63 846 63 846 251 1004 c 0,25,26
 372 1104 372 1104 540 1104 c 0,27,28
 757 1104 757 1104 876 965 c 0,29,30
 884 954 884 954 892 944 c 0,31,32
 952 856 952 856 964 713 c 1,0,-1
EndSplineSet
EndChar

StartChar: D
Encoding: 68 68 37
Width: 1138
GlyphClass: 2
Flags: W
LayerCount: 2
Fore
SplineSet
1014 1493 m 1,0,-1
 1014 0 l 1,1,-1
 862 0 l 1,2,-1
 862 141 l 1,3,4
 743 -28 743 -28 567 -45 c 0,5,6
 545 -47 545 -47 520 -47 c 0,7,8
 254 -47 254 -47 131 182 c 0,9,10
 53 328 53 328 53 539 c 0,11,12
 53 854 53 854 235 1008 c 0,13,14
 352 1104 352 1104 514 1104 c 0,15,16
 735 1104 735 1104 844 938 c 1,17,-1
 844 1493 l 1,18,-1
 1014 1493 l 1,0,-1
542 944 m 0,19,20
 368 944 368 944 284 776 c 0,21,22
 243 698 243 698 233 594 c 0,23,24
 231 561 231 561 231 528 c 0,25,26
 231 279 231 279 375 168 c 0,27,28
 448 113 448 113 545 113 c 0,29,30
 715 113 715 113 794 281 c 0,31,32
 844 383 844 383 844 524 c 0,33,34
 844 793 844 793 696 897 c 0,35,36
 628 944 628 944 542 944 c 0,19,20
EndSplineSet
EndChar

StartChar: E
Encoding: 69 69 38
Width: 1366
GlyphClass: 2
Flags: W
LayerCount: 2
Fore
SplineSet
374 680 m 1,0,-1
 374 168 l 1,1,-1
 1255 168 l 1,2,-1
 1255 0 l 1,3,-1
 184 0 l 1,4,-1
 184 1493 l 1,5,-1
 1218 1493 l 1,6,-1
 1218 1325 l 1,7,-1
 374 1325 l 1,8,-1
 374 848 l 1,9,-1
 1188 848 l 1,10,-1
 1188 680 l 1,11,-1
 374 680 l 1,0,-1
EndSplineSet
EndChar

StartChar: F
Encoding: 70 70 39
Width: 1251
GlyphClass: 2
Flags: W
LayerCount: 2
Fore
SplineSet
374 680 m 1,0,-1
 374 0 l 1,1,-1
 184 0 l 1,2,-1
 184 1493 l 1,3,-1
 1185 1493 l 1,4,-1
 1185 1325 l 1,5,-1
 374 1325 l 1,6,-1
 374 848 l 1,7,-1
 1087 848 l 1,8,-1
 1087 680 l 1,9,-1
 374 680 l 1,0,-1
EndSplineSet
EndChar

StartChar: G
Encoding: 71 71 40
Width: 1138
GlyphClass: 2
Flags: W
LayerCount: 2
Fore
SplineSet
843 1073 m 1,0,-1
 1001 1073 l 1,1,-1
 1001 176 l 2,2,3
 1001 -139 1001 -139 917 -270 c 0,4,5
 903 -290 903 -290 888 -309 c 0,6,7
 790 -432 790 -432 567 -444 c 0,8,9
 544 -446 544 -446 522 -446 c 0,10,11
 239 -446 239 -446 137 -266 c 0,12,13
 102 -202 102 -202 94 -122 c 1,14,-1
 268 -122 l 1,15,16
 280 -202 280 -202 333 -245 c 0,17,18
 407 -303 407 -303 528 -303 c 0,19,20
 694 -303 694 -303 766 -202 c 0,21,22
 827 -118 827 -118 827 90 c 2,23,-1
 827 145 l 1,24,25
 706 -22 706 -22 557 -43 c 1,26,-1
 501 -47 l 1,27,28
 331 -47 331 -47 206 84 c 0,29,30
 200 90 200 90 194 96 c 0,31,32
 59 254 59 254 59 518 c 0,33,34
 59 831 59 831 233 993 c 0,35,36
 350 1104 350 1104 516 1104 c 0,37,38
 716 1104 716 1104 843 918 c 1,39,-1
 843 1073 l 1,0,-1
534 946 m 0,40,41
 354 946 354 946 278 762 c 0,42,43
 237 664 237 664 237 528 c 0,44,45
 237 244 237 244 397 147 c 0,46,47
 456 111 456 111 536 111 c 0,48,49
 718 111 718 111 790 299 c 0,50,51
 827 393 827 393 827 522 c 0,52,53
 827 829 827 829 659 918 c 0,54,55
 604 946 604 946 534 946 c 0,40,41
EndSplineSet
EndChar

StartChar: H
Encoding: 72 72 41
Width: 1150
GlyphClass: 2
Flags: W
LayerCount: 2
Fore
SplineSet
1000 450 m 1,0,-1
 150 450 l 1,1,-1
 150 600 l 1,2,-1
 1000 600 l 1,3,-1
 1000 450 l 1,0,-1
650 225 m 256,4,5
 650 194 650 194 628 172 c 128,-1,6
 606 150 606 150 575 150 c 256,7,8
 544 150 544 150 522 172 c 128,-1,9
 500 194 500 194 500 225 c 256,10,11
 500 256 500 256 522 278 c 128,-1,12
 544 300 544 300 575 300 c 256,13,14
 606 300 606 300 628 278 c 128,-1,15
 650 256 650 256 650 225 c 256,4,5
650 825 m 256,16,17
 650 794 650 794 628 772 c 128,-1,18
 606 750 606 750 575 750 c 256,19,20
 544 750 544 750 522 772 c 128,-1,21
 500 794 500 794 500 825 c 256,22,23
 500 856 500 856 522 878 c 128,-1,24
 544 900 544 900 575 900 c 256,25,26
 606 900 606 900 628 878 c 128,-1,27
 650 856 650 856 650 825 c 256,16,17
EndSplineSet
EndChar

StartChar: I
Encoding: 73 73 42
Width: 569
GlyphClass: 2
Flags: W
LayerCount: 2
Fore
SplineSet
397 1493 m 1,0,-1
 397 0 l 1,1,-1
 204 0 l 1,2,-1
 204 1493 l 1,3,-1
 397 1493 l 1,0,-1
EndSplineSet
EndChar

StartChar: J
Encoding: 74 74 43
Width: 1024
GlyphClass: 2
Flags: W
LayerCount: 2
Fore
SplineSet
681 1493 m 1,0,-1
 872 1493 l 1,1,-1
 872 373 l 2,2,3
 872 119 872 119 687 10 c 0,4,5
 587 -47 587 -47 450 -47 c 0,6,7
 196 -47 196 -47 89 129 c 0,8,9
 34 223 34 223 34 348 c 2,10,-1
 34 479 l 1,11,-1
 229 479 l 1,12,-1
 229 383 l 2,13,14
 229 156 229 156 394 119 c 0,15,16
 421 113 421 113 452 113 c 0,17,18
 571 113 571 113 634 205 c 0,19,20
 681 274 681 274 681 442 c 2,21,-1
 681 1493 l 1,0,-1
EndSplineSet
EndChar

StartChar: K
Encoding: 75 75 44
Width: 1366
GlyphClass: 2
Flags: W
LayerCount: 2
Fore
SplineSet
351 522 m 1,0,-1
 351 0 l 1,1,-1
 161 0 l 1,2,-1
 161 1493 l 1,3,-1
 351 1493 l 1,4,-1
 351 737 l 1,5,-1
 1095 1493 l 1,6,-1
 1341 1493 l 1,7,-1
 732 885 l 1,8,-1
 1347 0 l 1,9,-1
 1122 0 l 1,10,-1
 595 766 l 1,11,-1
 351 522 l 1,0,-1
EndSplineSet
EndChar

StartChar: L
Encoding: 76 76 45
Width: 1138
GlyphClass: 2
Flags: W
LayerCount: 2
Fore
SplineSet
353 1493 m 1,0,-1
 353 168 l 1,1,-1
 1091 168 l 1,2,-1
 1091 0 l 1,3,-1
 163 0 l 1,4,-1
 163 1493 l 1,5,-1
 353 1493 l 1,0,-1
EndSplineSet
EndChar

StartChar: M
Encoding: 77 77 46
Width: 1705
GlyphClass: 2
Flags: W
LayerCount: 2
Fore
SplineSet
958 0 m 1,0,-1
 757 0 l 1,1,-1
 333 1251 l 1,2,-1
 333 0 l 1,3,-1
 153 0 l 1,4,-1
 153 1493 l 1,5,-1
 417 1493 l 1,6,-1
 860 193 l 1,7,-1
 1294 1493 l 1,8,-1
 1558 1493 l 1,9,-1
 1558 0 l 1,10,-1
 1378 0 l 1,11,-1
 1378 1251 l 1,12,-1
 958 0 l 1,0,-1
EndSplineSet
EndChar

StartChar: N
Encoding: 78 78 47
Width: 1097
GlyphClass: 2
Flags: W
LayerCount: 2
Fore
SplineSet
143 1073 m 1,0,-1
 301 1073 l 1,1,-1
 301 893 l 1,2,3
 411 1067 411 1067 567 1096 c 0,4,5
 608 1104 608 1104 657 1104 c 0,6,7
 872 1104 872 1104 958 961 c 0,8,9
 997 895 997 895 997 811 c 2,10,-1
 997 0 l 1,11,-1
 827 0 l 1,12,-1
 827 743 l 2,13,14
 827 887 827 887 706 936 c 0,15,16
 663 954 663 954 606 954 c 0,17,18
 434 954 434 954 358 797 c 0,19,20
 315 711 315 711 315 592 c 2,21,-1
 315 0 l 1,22,-1
 143 0 l 1,23,-1
 143 1073 l 1,0,-1
EndSplineSet
EndChar

StartChar: O
Encoding: 79 79 48
Width: 1593
GlyphClass: 2
Flags: W
LayerCount: 2
Fore
SplineSet
796 1518 m 0,0,1
 1152 1518 1152 1518 1351 1266 c 1,2,-1
 1404 1188 l 1,3,4
 1519 991 1519 991 1519 723 c 0,5,6
 1519 420 1519 420 1351 205 c 0,7,8
 1310 152 1310 152 1261 111 c 0,9,10
 1074 -47 1074 -47 798 -47 c 0,11,12
 456 -47 456 -47 255 193 c 0,13,14
 77 406 77 406 77 735 c 0,15,16
 77 1112 77 1112 304 1331 c 0,17,18
 499 1518 499 1518 796 1518 c 0,0,1
796 1350 m 0,19,20
 530 1350 530 1350 382 1141 c 0,21,22
 267 977 267 977 267 735 c 0,23,24
 267 412 267 412 462 242 c 0,25,26
 599 121 599 121 798 121 c 0,27,28
 1062 121 1062 121 1210 326 c 0,29,30
 1328 487 1328 487 1328 727 c 0,31,32
 1328 1065 1328 1065 1128 1235 c 0,33,34
 992 1350 992 1350 796 1350 c 0,19,20
EndSplineSet
EndChar

StartChar: P
Encoding: 80 80 49
Width: 1366
GlyphClass: 2
Flags: W
LayerCount: 2
Fore
SplineSet
376 633 m 1,0,-1
 376 0 l 1,1,-1
 186 0 l 1,2,-1
 186 1493 l 1,3,-1
 802 1493 l 2,4,5
 1132 1493 1132 1493 1228 1251 c 0,6,7
 1263 1167 1263 1167 1263 1055 c 0,8,9
 1263 856 1263 856 1134 739 c 0,10,11
 1015 633 1015 633 845 633 c 2,12,-1
 376 633 l 1,0,-1
376 801 m 1,13,-1
 774 801 l 2,14,15
 983 801 983 801 1044 952 c 0,16,17
 1065 1001 1065 1001 1065 1063 c 0,18,19
 1065 1247 1065 1247 903 1305 c 1,20,-1
 833 1321 l 2,21,22
 804 1325 804 1325 774 1325 c 2,23,-1
 376 1325 l 1,24,-1
 376 801 l 1,13,-1
EndSplineSet
EndChar

StartChar: Q
Encoding: 81 81 50
Width: 1138
GlyphClass: 2
Flags: W
LayerCount: 2
Fore
SplineSet
1014 -446 m 1,0,-1
 844 -446 l 1,1,-1
 844 123 l 1,2,3
 727 -47 727 -47 512 -47 c 0,4,5
 250 -47 250 -47 129 174 c 0,6,7
 53 313 53 313 53 516 c 0,8,9
 53 846 53 846 239 1004 c 0,10,11
 356 1104 356 1104 520 1104 c 0,12,13
 739 1104 739 1104 862 930 c 1,14,-1
 862 1073 l 1,15,-1
 1014 1073 l 1,16,-1
 1014 -446 l 1,0,-1
545 944 m 0,17,18
 372 944 372 944 286 778 c 0,19,20
 231 674 231 674 231 528 c 0,21,22
 231 279 231 279 375 168 c 0,23,24
 448 113 448 113 545 113 c 0,25,26
 712 113 712 113 794 279 c 0,27,28
 844 381 844 381 844 522 c 0,29,30
 844 791 844 791 698 895 c 0,31,32
 631 944 631 944 545 944 c 0,17,18
EndSplineSet
EndChar

StartChar: R
Encoding: 82 82 51
Width: 730
GlyphClass: 2
Flags: W
LayerCount: 2
Fore
SplineSet
141 1073 m 1,0,-1
 299 1073 l 1,1,-1
 299 879 l 1,2,3
 417 1069 417 1069 536 1098 c 0,4,5
 563 1104 563 1104 592 1104 c 0,6,7
 614 1104 614 1104 657 1098 c 1,8,-1
 657 924 l 1,9,10
 510 922 510 922 446 879 c 0,11,12
 440 874 440 874 434 870 c 0,13,14
 313 782 313 782 313 557 c 2,15,-1
 313 0 l 1,16,-1
 141 0 l 1,17,-1
 141 1073 l 1,0,-1
EndSplineSet
EndChar

StartChar: S
Encoding: 83 83 52
Width: 1024
GlyphClass: 2
Flags: W
LayerCount: 2
Fore
SplineSet
896 774 m 1,0,-1
 716 774 l 1,1,2
 710 946 710 946 501 946 c 0,3,4
 333 946 333 946 286 846 c 0,5,6
 274 817 274 817 274 784 c 0,7,8
 274 692 274 692 409 647 c 0,9,10
 438 639 438 639 472 631 c 2,11,-1
 636 592 l 2,12,13
 878 535 878 535 925 391 c 0,14,15
 939 348 939 348 939 293 c 0,16,17
 939 96 939 96 755 6 c 0,18,19
 649 -47 649 -47 497 -47 c 0,20,21
 100 -47 100 -47 71 285 c 0,22,23
 69 301 69 301 69 319 c 1,24,-1
 249 319 l 1,25,26
 262 223 262 223 298 182 c 0,27,28
 366 111 366 111 511 111 c 0,29,30
 683 111 683 111 741 207 c 0,31,32
 761 240 761 240 761 279 c 0,33,34
 761 373 761 373 651 412 c 1,35,-1
 595 428 l 1,36,-1
 436 467 l 2,37,38
 192 526 192 526 128 631 c 0,39,40
 96 688 96 688 96 776 c 0,41,42
 96 967 96 967 268 1053 c 0,43,44
 368 1104 368 1104 507 1104 c 0,45,46
 804 1104 804 1104 876 897 c 0,47,48
 896 842 896 842 896 774 c 1,0,-1
EndSplineSet
EndChar

StartChar: T
Encoding: 84 84 53
Width: 569
GlyphClass: 2
Flags: W
LayerCount: 2
Fore
SplineSet
520 1073 m 1,0,-1
 520 934 l 1,1,-1
 343 934 l 1,2,-1
 343 199 l 2,3,4
 343 121 343 121 388 109 c 0,5,6
 407 102 407 102 438 102 c 0,7,8
 489 102 489 102 520 111 c 1,9,-1
 520 -32 l 1,10,11
 440 -47 440 -47 380 -47 c 0,12,13
 198 -47 198 -47 175 90 c 0,14,15
 173 104 173 104 173 123 c 2,16,-1
 173 934 l 1,17,-1
 28 934 l 1,18,-1
 28 1073 l 1,19,-1
 173 1073 l 1,20,-1
 173 1368 l 1,21,-1
 343 1368 l 1,22,-1
 343 1073 l 1,23,-1
 520 1073 l 1,0,-1
EndSplineSet
EndChar

StartChar: U
Encoding: 85 85 54
Width: 1478
GlyphClass: 2
Flags: W
LayerCount: 2
Fore
SplineSet
1130 1493 m 1,0,-1
 1321 1493 l 1,1,-1
 1321 444 l 2,2,3
 1321 178 1321 178 1108 45 c 0,4,5
 960 -47 960 -47 745 -47 c 0,6,7
 407 -47 407 -47 258 160 c 0,8,9
 174 279 174 279 174 444 c 2,10,-1
 174 1493 l 1,11,-1
 364 1493 l 1,12,-1
 364 444 l 2,13,14
 364 205 364 205 590 141 c 0,15,16
 659 121 659 121 745 121 c 0,17,18
 999 121 999 121 1092 285 c 0,19,20
 1130 354 1130 354 1130 444 c 2,21,-1
 1130 1493 l 1,0,-1
EndSplineSet
EndChar

StartChar: V
Encoding: 86 86 55
Width: 1366
GlyphClass: 2
Flags: W
LayerCount: 2
Fore
SplineSet
802 0 m 1,0,-1
 598 0 l 1,1,-1
 61 1493 l 1,2,-1
 266 1493 l 1,3,-1
 704 229 l 1,4,-1
 1118 1493 l 1,5,-1
 1321 1493 l 1,6,-1
 802 0 l 1,0,-1
EndSplineSet
EndChar

StartChar: W
Encoding: 87 87 56
Width: 1478
GlyphClass: 2
Flags: W
LayerCount: 2
Fore
SplineSet
182 0 m 1,0,-1
 182 1493 l 1,1,-1
 757 1493 l 2,2,3
 1091 1493 1091 1493 1253 1223 c 1,4,-1
 1298 1135 l 1,5,6
 1366 969 1366 969 1366 748 c 0,7,8
 1366 319 1366 319 1128 125 c 0,9,10
 979 0 979 0 757 0 c 2,11,-1
 182 0 l 1,0,-1
372 168 m 1,12,-1
 725 168 l 2,13,14
 1081 168 1081 168 1157 539 c 0,15,16
 1175 631 1175 631 1175 745 c 0,17,18
 1175 1249 1175 1249 831 1315 c 0,19,20
 780 1325 780 1325 725 1325 c 2,21,-1
 372 1325 l 1,22,-1
 372 168 l 1,12,-1
EndSplineSet
EndChar

StartChar: X
Encoding: 88 88 57
Width: 1251
GlyphClass: 2
Flags: W
LayerCount: 2
Fore
SplineSet
725 1325 m 1,0,-1
 725 0 l 1,1,-1
 535 0 l 1,2,-1
 535 1325 l 1,3,-1
 43 1325 l 1,4,-1
 43 1493 l 1,5,-1
 1214 1493 l 1,6,-1
 1214 1325 l 1,7,-1
 725 1325 l 1,0,-1
EndSplineSet
EndChar

StartChar: Y
Encoding: 89 89 58
Width: 1024
GlyphClass: 2
Flags: W
LayerCount: 2
Fore
SplineSet
794 1073 m 1,0,-1
 978 1073 l 1,1,-1
 501 -225 l 2,2,3
 456 -342 456 -342 384 -395 c 0,4,5
 314 -446 314 -446 224 -446 c 0,6,7
 161 -446 161 -446 110 -419 c 1,8,-1
 110 -266 l 1,9,10
 165 -278 165 -278 200 -278 c 0,11,12
 292 -278 292 -278 329 -196 c 0,13,14
 333 -186 333 -186 337 -174 c 2,15,-1
 402 -4 l 1,16,-1
 40 1073 l 1,17,-1
 222 1073 l 1,18,-1
 497 238 l 1,19,-1
 794 1073 l 1,0,-1
EndSplineSet
EndChar

StartChar: Z
Encoding: 90 90 59
Width: 433
GlyphClass: 2
Flags: W
LayerCount: 2
Fore
SplineSet
144 1073 m 1,0,-1
 314 1073 l 1,1,-1
 314 -223 l 2,2,3
 314 -434 314 -434 52 -446 c 0,4,5
 38 -446 38 -446 21 -446 c 0,6,7
 -5 -446 -5 -446 -36 -440 c 1,8,-1
 -36 -294 l 1,9,10
 -1 -296 -1 -296 5 -296 c 0,11,12
 111 -296 111 -296 134 -231 c 0,13,14
 144 -202 144 -202 144 -155 c 2,15,-1
 144 1073 l 1,0,-1
314 1493 m 1,16,-1
 314 1278 l 1,17,-1
 144 1278 l 1,18,-1
 144 1493 l 1,19,-1
 314 1493 l 1,16,-1
EndSplineSet
EndChar

StartChar: bracketleft
Encoding: 91 91 60
Width: 569
GlyphClass: 2
Flags: W
LayerCount: 2
Fore
SplineSet
512 1493 m 1,0,-1
 512 1346 l 1,1,-1
 301 1346 l 1,2,-1
 301 -286 l 1,3,-1
 512 -286 l 1,4,-1
 512 -434 l 1,5,-1
 131 -434 l 1,6,-1
 131 1493 l 1,7,-1
 512 1493 l 1,0,-1
EndSplineSet
EndChar

StartChar: backslash
Encoding: 92 92 61
Width: 569
GlyphClass: 2
Flags: W
LayerCount: 2
Fore
SplineSet
97 1493 m 1,0,-1
 582 -40 l 1,1,-1
 469 -40 l 1,2,-1
 -16 1493 l 1,3,-1
 97 1493 l 1,0,-1
EndSplineSet
EndChar

StartChar: bracketright
Encoding: 93 93 62
Width: 569
GlyphClass: 2
Flags: W
LayerCount: 2
Fore
SplineSet
47 -434 m 1,0,-1
 47 -286 l 1,1,-1
 258 -286 l 1,2,-1
 258 1346 l 1,3,-1
 47 1346 l 1,4,-1
 47 1493 l 1,5,-1
 428 1493 l 1,6,-1
 428 -434 l 1,7,-1
 47 -434 l 1,0,-1
EndSplineSet
EndChar

StartChar: asciicircum
Encoding: 94 94 63
Width: 960
GlyphClass: 2
Flags: W
LayerCount: 2
Fore
SplineSet
403 1452 m 1,0,-1
 553 1452 l 1,1,-1
 870 674 l 1,2,-1
 729 674 l 1,3,-1
 479 1288 l 1,4,-1
 231 674 l 1,5,-1
 90 674 l 1,6,-1
 403 1452 l 1,0,-1
EndSplineSet
EndChar

StartChar: underscore
Encoding: 95 95 64
Width: 1138
GlyphClass: 2
Flags: W
LayerCount: 2
Fore
SplineSet
1184 -258 m 1,0,-1
 1184 -360 l 1,1,-1
 -45 -360 l 1,2,-1
 -45 -258 l 1,3,-1
 1184 -258 l 1,0,-1
EndSplineSet
EndChar

StartChar: glyph65
Encoding: 96 96 65
Width: 681
GlyphClass: 2
Flags: W
LayerCount: 2
Fore
SplineSet
276 1516 m 1,0,-1
 473 1212 l 1,1,-1
 350 1212 l 1,2,-1
 45 1516 l 1,3,-1
 276 1516 l 1,0,-1
EndSplineSet
EndChar

StartChar: a
Encoding: 97 97 66
Width: 1138
GlyphClass: 2
Flags: W
LayerCount: 2
Fore
SplineSet
1096 100 m 1,0,-1
 1096 -28 l 1,1,2
 1024 -47 1024 -47 979 -47 c 0,3,4
 834 -47 834 -47 807 82 c 0,5,6
 805 96 805 96 803 111 c 1,7,8
 625 -45 625 -45 438 -47 c 0,9,10
 213 -47 213 -47 125 106 c 0,11,12
 86 178 86 178 86 270 c 0,13,14
 86 479 86 479 274 557 c 0,15,16
 348 588 348 588 541 612 c 0,17,18
 573 616 573 616 618 623 c 0,19,20
 768 641 768 641 791 700 c 0,21,22
 797 717 797 717 797 741 c 2,23,-1
 797 786 l 2,24,25
 797 918 797 918 631 942 c 0,26,27
 596 946 596 946 557 946 c 0,28,29
 346 946 346 946 311 793 c 0,30,31
 307 774 307 774 305 756 c 1,32,-1
 133 756 l 1,33,34
 139 903 139 903 207 979 c 0,35,36
 319 1104 319 1104 563 1104 c 0,37,38
 924 1104 924 1104 963 866 c 0,39,40
 967 840 967 840 967 811 c 2,41,-1
 967 180 l 2,42,43
 967 96 967 96 1059 96 c 0,44,45
 1077 96 1077 96 1096 100 c 1,0,-1
797 338 m 2,46,-1
 797 530 l 1,47,48
 731 500 731 500 563 477 c 0,49,50
 545 475 545 475 522 471 c 0,51,52
 305 440 305 440 272 330 c 0,53,54
 264 305 264 305 264 274 c 0,55,56
 264 141 264 141 401 111 c 0,57,58
 434 102 434 102 475 102 c 0,59,60
 623 102 623 102 729 199 c 0,61,62
 795 258 795 258 797 338 c 2,46,-1
EndSplineSet
EndChar

StartChar: b
Encoding: 98 98 67
Width: 1138
GlyphClass: 2
Flags: W
LayerCount: 2
Fore
SplineSet
110 1493 m 1,0,-1
 280 1493 l 1,1,-1
 280 928 l 1,2,3
 397 1104 397 1104 612 1104 c 0,4,5
 874 1104 874 1104 995 883 c 0,6,7
 1071 743 1071 743 1071 541 c 0,8,9
 1071 211 1071 211 884 53 c 0,10,11
 767 -47 767 -47 604 -47 c 0,12,13
 384 -47 384 -47 264 137 c 1,14,-1
 264 0 l 1,15,-1
 110 0 l 1,16,-1
 110 1493 l 1,0,-1
579 944 m 0,17,18
 409 944 409 944 329 772 c 0,19,20
 280 670 280 670 280 528 c 0,21,22
 280 272 280 272 421 166 c 0,23,24
 489 113 489 113 579 113 c 0,25,26
 751 113 751 113 837 274 c 0,27,28
 892 379 892 379 892 522 c 0,29,30
 892 782 892 782 745 891 c 1,31,32
 669 942 669 942 579 944 c 0,17,18
EndSplineSet
EndChar

StartChar: c
Encoding: 99 99 68
Width: 1024
GlyphClass: 2
Flags: W
LayerCount: 2
Fore
SplineSet
964 713 m 1,0,-1
 792 713 l 1,1,2
 765 911 765 911 593 942 c 1,3,-1
 538 946 l 1,4,5
 346 946 346 946 274 741 c 0,6,7
 241 647 241 647 241 518 c 0,8,9
 241 238 241 238 403 145 c 0,10,11
 462 111 462 111 542 111 c 0,12,13
 761 111 761 111 804 369 c 1,14,-1
 976 369 l 1,15,16
 954 88 954 88 741 -6 c 0,17,18
 653 -47 653 -47 538 -47 c 0,19,20
 274 -47 274 -47 147 168 c 0,21,22
 63 311 63 311 63 518 c 0,23,24
 63 846 63 846 251 1004 c 0,25,26
 372 1104 372 1104 540 1104 c 0,27,28
 757 1104 757 1104 876 965 c 0,29,30
 884 954 884 954 892 944 c 0,31,32
 952 856 952 856 964 713 c 1,0,-1
EndSplineSet
EndChar

StartChar: d
Encoding: 100 100 69
Width: 1138
GlyphClass: 2
Flags: W
LayerCount: 2
Fore
SplineSet
1014 1493 m 1,0,-1
 1014 0 l 1,1,-1
 862 0 l 1,2,-1
 862 141 l 1,3,4
 743 -28 743 -28 567 -45 c 0,5,6
 545 -47 545 -47 520 -47 c 0,7,8
 254 -47 254 -47 131 182 c 0,9,10
 53 328 53 328 53 539 c 0,11,12
 53 854 53 854 235 1008 c 0,13,14
 352 1104 352 1104 514 1104 c 0,15,16
 735 1104 735 1104 844 938 c 1,17,-1
 844 1493 l 1,18,-1
 1014 1493 l 1,0,-1
542 944 m 0,19,20
 368 944 368 944 284 776 c 0,21,22
 243 698 243 698 233 594 c 0,23,24
 231 561 231 561 231 528 c 0,25,26
 231 279 231 279 375 168 c 0,27,28
 448 113 448 113 545 113 c 0,29,30
 715 113 715 113 794 281 c 0,31,32
 844 383 844 383 844 524 c 0,33,34
 844 793 844 793 696 897 c 0,35,36
 628 944 628 944 542 944 c 0,19,20
EndSplineSet
EndChar

StartChar: e
Encoding: 101 101 70
Width: 1138
GlyphClass: 2
Flags: W
LayerCount: 2
Fore
SplineSet
1050 479 m 1,0,-1
 259 479 l 1,1,2
 261 332 261 332 317 250 c 0,3,4
 405 111 405 111 575 111 c 0,5,6
 783 111 783 111 855 326 c 1,7,-1
 1027 326 l 1,8,9
 982 78 982 78 769 -10 c 0,10,11
 679 -47 679 -47 568 -47 c 0,12,13
 290 -47 290 -47 161 178 c 0,14,15
 81 317 81 317 81 522 c 0,16,17
 81 846 81 846 274 1004 c 0,18,19
 396 1104 396 1104 573 1104 c 0,20,21
 808 1104 808 1104 941 936 c 0,22,23
 982 885 982 885 1007 821 c 0,24,25
 1050 709 1050 709 1050 479 c 1,0,-1
263 618 m 1,26,-1
 865 618 l 1,27,28
 867 623 867 623 867 631 c 0,29,30
 867 795 867 795 747 887 c 0,31,32
 669 946 669 946 570 946 c 0,33,34
 396 946 396 946 312 793 c 0,35,36
 271 719 271 719 263 618 c 1,26,-1
EndSplineSet
EndChar

StartChar: f
Encoding: 102 102 71
Width: 569
GlyphClass: 2
Flags: W
LayerCount: 2
Fore
SplineSet
528 1073 m 1,0,-1
 528 934 l 1,1,-1
 349 934 l 1,2,-1
 349 0 l 1,3,-1
 179 0 l 1,4,-1
 179 934 l 1,5,-1
 36 934 l 1,6,-1
 36 1073 l 1,7,-1
 179 1073 l 1,8,-1
 179 1255 l 2,9,10
 179 1436 179 1436 331 1485 c 0,11,12
 376 1499 376 1499 431 1499 c 0,13,14
 478 1499 478 1499 528 1489 c 1,15,-1
 528 1348 l 1,16,17
 489 1350 489 1350 468 1350 c 0,18,19
 349 1350 349 1350 349 1241 c 2,20,-1
 349 1073 l 1,21,-1
 528 1073 l 1,0,-1
EndSplineSet
EndChar

StartChar: g
Encoding: 103 103 72
Width: 1138
GlyphClass: 2
Flags: W
LayerCount: 2
Fore
SplineSet
843 1073 m 1,0,-1
 1001 1073 l 1,1,-1
 1001 176 l 2,2,3
 1001 -139 1001 -139 917 -270 c 0,4,5
 903 -290 903 -290 888 -309 c 0,6,7
 790 -432 790 -432 567 -444 c 0,8,9
 544 -446 544 -446 522 -446 c 0,10,11
 239 -446 239 -446 137 -266 c 0,12,13
 102 -202 102 -202 94 -122 c 1,14,-1
 268 -122 l 1,15,16
 280 -202 280 -202 333 -245 c 0,17,18
 407 -303 407 -303 528 -303 c 0,19,20
 694 -303 694 -303 766 -202 c 0,21,22
 827 -118 827 -118 827 90 c 2,23,-1
 827 145 l 1,24,25
 706 -22 706 -22 557 -43 c 1,26,-1
 501 -47 l 1,27,28
 331 -47 331 -47 206 84 c 0,29,30
 200 90 200 90 194 96 c 0,31,32
 59 254 59 254 59 518 c 0,33,34
 59 831 59 831 233 993 c 0,35,36
 350 1104 350 1104 516 1104 c 0,37,38
 716 1104 716 1104 843 918 c 1,39,-1
 843 1073 l 1,0,-1
534 946 m 0,40,41
 354 946 354 946 278 762 c 0,42,43
 237 664 237 664 237 528 c 0,44,45
 237 244 237 244 397 147 c 0,46,47
 456 111 456 111 536 111 c 0,48,49
 718 111 718 111 790 299 c 0,50,51
 827 393 827 393 827 522 c 0,52,53
 827 829 827 829 659 918 c 0,54,55
 604 946 604 946 534 946 c 0,40,41
EndSplineSet
EndChar

StartChar: h
Encoding: 104 104 73
Width: 1478
GlyphClass: 2
Flags: W
LayerCount: 2
Fore
SplineSet
1127 680 m 1,0,-1
 362 680 l 1,1,-1
 362 0 l 1,2,-1
 169 0 l 1,3,-1
 169 1493 l 1,4,-1
 359 1493 l 1,5,-1
 359 848 l 1,6,-1
 1127 848 l 1,7,-1
 1127 1493 l 1,8,-1
 1318 1493 l 1,9,-1
 1318 0 l 1,10,-1
 1127 0 l 1,11,-1
 1127 680 l 1,0,-1
EndSplineSet
EndChar

StartChar: i
Encoding: 105 105 74
Width: 426
GlyphClass: 2
Flags: W
LayerCount: 2
Fore
SplineSet
307 1073 m 1,0,-1
 307 0 l 1,1,-1
 137 0 l 1,2,-1
 137 1073 l 1,3,-1
 307 1073 l 1,0,-1
307 1493 m 1,4,-1
 307 1278 l 1,5,-1
 135 1278 l 1,6,-1
 135 1493 l 1,7,-1
 307 1493 l 1,4,-1
EndSplineSet
EndChar

StartChar: j
Encoding: 106 106 75
Width: 433
GlyphClass: 2
Flags: W
LayerCount: 2
Fore
SplineSet
144 1073 m 1,0,-1
 314 1073 l 1,1,-1
 314 -223 l 2,2,3
 314 -434 314 -434 52 -446 c 0,4,5
 38 -446 38 -446 21 -446 c 0,6,7
 -5 -446 -5 -446 -36 -440 c 1,8,-1
 -36 -294 l 1,9,10
 -1 -296 -1 -296 5 -296 c 0,11,12
 111 -296 111 -296 134 -231 c 0,13,14
 144 -202 144 -202 144 -155 c 2,15,-1
 144 1073 l 1,0,-1
314 1493 m 1,16,-1
 314 1278 l 1,17,-1
 144 1278 l 1,18,-1
 144 1493 l 1,19,-1
 314 1493 l 1,16,-1
EndSplineSet
EndChar

StartChar: k
Encoding: 107 107 76
Width: 1024
GlyphClass: 2
Flags: W
LayerCount: 2
Fore
SplineSet
288 1493 m 1,0,-1
 288 618 l 1,1,-1
 743 1073 l 1,2,-1
 962 1073 l 1,3,-1
 589 702 l 1,4,-1
 1027 0 l 1,5,-1
 816 0 l 1,6,-1
 454 582 l 1,7,-1
 288 418 l 1,8,-1
 288 0 l 1,9,-1
 118 0 l 1,10,-1
 118 1493 l 1,11,-1
 288 1493 l 1,0,-1
EndSplineSet
EndChar

StartChar: l
Encoding: 108 108 77
Width: 433
GlyphClass: 2
Flags: W
LayerCount: 2
Fore
SplineSet
311 1493 m 1,0,-1
 311 0 l 1,1,-1
 139 0 l 1,2,-1
 139 1493 l 1,3,-1
 311 1493 l 1,0,-1
EndSplineSet
EndChar

StartChar: m
Encoding: 109 109 78
Width: 1651
GlyphClass: 2
Flags: W
LayerCount: 2
Fore
SplineSet
143 1073 m 1,0,-1
 301 1073 l 1,1,-1
 301 922 l 1,2,3
 411 1077 411 1077 563 1100 c 0,4,5
 594 1104 594 1104 630 1104 c 0,6,7
 813 1104 813 1104 901 971 c 0,8,9
 911 956 911 956 919 940 c 1,10,11
 1030 1073 1030 1073 1159 1096 c 0,12,13
 1200 1104 1200 1104 1249 1104 c 0,14,15
 1499 1104 1499 1104 1550 903 c 0,16,17
 1560 858 1560 858 1560 805 c 2,18,-1
 1560 0 l 1,19,-1
 1388 0 l 1,20,-1
 1388 739 l 2,21,22
 1388 905 1388 905 1259 944 c 0,23,24
 1226 954 1226 954 1190 954 c 0,25,26
 1065 954 1065 954 989 844 c 0,27,28
 938 768 938 768 938 674 c 2,29,-1
 938 0 l 1,30,-1
 766 0 l 1,31,-1
 766 739 l 2,32,33
 766 918 766 918 620 948 c 0,34,35
 596 954 596 954 567 954 c 0,36,37
 440 954 440 954 364 840 c 0,38,39
 315 766 315 766 315 674 c 2,40,-1
 315 0 l 1,41,-1
 143 0 l 1,42,-1
 143 1073 l 1,0,-1
EndSplineSet
EndChar

StartChar: n
Encoding: 110 110 79
Width: 1097
GlyphClass: 2
Flags: W
LayerCount: 2
Fore
SplineSet
143 1073 m 1,0,-1
 301 1073 l 1,1,-1
 301 893 l 1,2,3
 411 1067 411 1067 567 1096 c 0,4,5
 608 1104 608 1104 657 1104 c 0,6,7
 872 1104 872 1104 958 961 c 0,8,9
 997 895 997 895 997 811 c 2,10,-1
 997 0 l 1,11,-1
 827 0 l 1,12,-1
 827 743 l 2,13,14
 827 887 827 887 706 936 c 0,15,16
 663 954 663 954 606 954 c 0,17,18
 434 954 434 954 358 797 c 0,19,20
 315 711 315 711 315 592 c 2,21,-1
 315 0 l 1,22,-1
 143 0 l 1,23,-1
 143 1073 l 1,0,-1
EndSplineSet
EndChar

StartChar: o
Encoding: 111 111 80
Width: 1097
GlyphClass: 2
Flags: W
LayerCount: 2
Fore
SplineSet
556 1104 m 0,0,1
 868 1104 868 1104 984 840 c 0,2,3
 1044 707 1044 707 1044 520 c 0,4,5
 1044 178 1044 178 835 33 c 0,6,7
 720 -47 720 -47 558 -47 c 0,8,9
 263 -47 263 -47 141 197 c 0,10,11
 73 334 73 334 73 528 c 0,12,13
 73 885 73 885 288 1028 c 0,14,15
 401 1104 401 1104 556 1104 c 0,0,1
558 946 m 0,16,17
 368 946 368 946 290 758 c 0,18,19
 251 659 251 659 251 528 c 0,20,21
 251 248 251 248 411 150 c 0,22,23
 474 111 474 111 558 111 c 0,24,25
 743 111 743 111 823 291 c 0,26,27
 866 387 866 387 866 522 c 0,28,29
 866 819 866 819 698 913 c 0,30,31
 636 946 636 946 558 946 c 0,16,17
EndSplineSet
EndChar

StartChar: p
Encoding: 112 112 81
Width: 1138
GlyphClass: 2
Flags: W
LayerCount: 2
Fore
SplineSet
110 -446 m 1,0,-1
 110 1073 l 1,1,-1
 268 1073 l 1,2,-1
 268 911 l 1,3,4
 389 1104 389 1104 610 1104 c 0,5,6
 870 1104 870 1104 993 877 c 0,7,8
 1071 731 1071 731 1071 518 c 0,9,10
 1071 203 1071 203 888 49 c 0,11,12
 808 -18 808 -18 702 -38 c 0,13,14
 659 -47 659 -47 612 -47 c 0,15,16
 413 -47 413 -47 282 113 c 1,17,-1
 282 -446 l 1,18,-1
 110 -446 l 1,0,-1
581 944 m 0,19,20
 411 944 411 944 331 772 c 0,21,22
 282 670 282 670 282 528 c 0,23,24
 282 272 282 272 423 166 c 0,25,26
 491 113 491 113 581 113 c 0,27,28
 753 113 753 113 839 279 c 0,29,30
 892 381 892 381 892 522 c 0,31,32
 892 782 892 782 747 891 c 0,33,34
 675 944 675 944 581 944 c 0,19,20
EndSplineSet
EndChar

StartChar: q
Encoding: 113 113 82
Width: 1138
GlyphClass: 2
Flags: W
LayerCount: 2
Fore
SplineSet
1014 -446 m 1,0,-1
 844 -446 l 1,1,-1
 844 123 l 1,2,3
 727 -47 727 -47 512 -47 c 0,4,5
 250 -47 250 -47 129 174 c 0,6,7
 53 313 53 313 53 516 c 0,8,9
 53 846 53 846 239 1004 c 0,10,11
 356 1104 356 1104 520 1104 c 0,12,13
 739 1104 739 1104 862 930 c 1,14,-1
 862 1073 l 1,15,-1
 1014 1073 l 1,16,-1
 1014 -446 l 1,0,-1
545 944 m 0,17,18
 372 944 372 944 286 778 c 0,19,20
 231 674 231 674 231 528 c 0,21,22
 231 279 231 279 375 168 c 0,23,24
 448 113 448 113 545 113 c 0,25,26
 712 113 712 113 794 279 c 0,27,28
 844 381 844 381 844 522 c 0,29,30
 844 791 844 791 698 895 c 0,31,32
 631 944 631 944 545 944 c 0,17,18
EndSplineSet
EndChar

StartChar: r
Encoding: 114 114 83
Width: 730
GlyphClass: 2
Flags: W
LayerCount: 2
Fore
SplineSet
141 1073 m 1,0,-1
 299 1073 l 1,1,-1
 299 879 l 1,2,3
 417 1069 417 1069 536 1098 c 0,4,5
 563 1104 563 1104 592 1104 c 0,6,7
 614 1104 614 1104 657 1098 c 1,8,-1
 657 924 l 1,9,10
 510 922 510 922 446 879 c 0,11,12
 440 874 440 874 434 870 c 0,13,14
 313 782 313 782 313 557 c 2,15,-1
 313 0 l 1,16,-1
 141 0 l 1,17,-1
 141 1073 l 1,0,-1
EndSplineSet
EndChar

StartChar: s
Encoding: 115 115 84
Width: 1024
GlyphClass: 2
Flags: W
LayerCount: 2
Fore
SplineSet
896 774 m 1,0,-1
 716 774 l 1,1,2
 710 946 710 946 501 946 c 0,3,4
 333 946 333 946 286 846 c 0,5,6
 274 817 274 817 274 784 c 0,7,8
 274 692 274 692 409 647 c 0,9,10
 438 639 438 639 472 631 c 2,11,-1
 636 592 l 2,12,13
 878 535 878 535 925 391 c 0,14,15
 939 348 939 348 939 293 c 0,16,17
 939 96 939 96 755 6 c 0,18,19
 649 -47 649 -47 497 -47 c 0,20,21
 100 -47 100 -47 71 285 c 0,22,23
 69 301 69 301 69 319 c 1,24,-1
 249 319 l 1,25,26
 262 223 262 223 298 182 c 0,27,28
 366 111 366 111 511 111 c 0,29,30
 683 111 683 111 741 207 c 0,31,32
 761 240 761 240 761 279 c 0,33,34
 761 373 761 373 651 412 c 1,35,-1
 595 428 l 1,36,-1
 436 467 l 2,37,38
 192 526 192 526 128 631 c 0,39,40
 96 688 96 688 96 776 c 0,41,42
 96 967 96 967 268 1053 c 0,43,44
 368 1104 368 1104 507 1104 c 0,45,46
 804 1104 804 1104 876 897 c 0,47,48
 896 842 896 842 896 774 c 1,0,-1
EndSplineSet
EndChar

StartChar: t
Encoding: 116 116 85
Width: 569
GlyphClass: 2
Flags: W
LayerCount: 2
Fore
SplineSet
520 1073 m 1,0,-1
 520 934 l 1,1,-1
 343 934 l 1,2,-1
 343 199 l 2,3,4
 343 121 343 121 388 109 c 0,5,6
 407 102 407 102 438 102 c 0,7,8
 489 102 489 102 520 111 c 1,9,-1
 520 -32 l 1,10,11
 440 -47 440 -47 380 -47 c 0,12,13
 198 -47 198 -47 175 90 c 0,14,15
 173 104 173 104 173 123 c 2,16,-1
 173 934 l 1,17,-1
 28 934 l 1,18,-1
 28 1073 l 1,19,-1
 173 1073 l 1,20,-1
 173 1368 l 1,21,-1
 343 1368 l 1,22,-1
 343 1073 l 1,23,-1
 520 1073 l 1,0,-1
EndSplineSet
EndChar

StartChar: u
Encoding: 117 117 86
Width: 1138
GlyphClass: 2
Flags: W
LayerCount: 2
Fore
SplineSet
987 0 m 1,0,-1
 833 0 l 1,1,-1
 833 150 l 1,2,3
 719 -12 719 -12 567 -38 c 0,4,5
 526 -47 526 -47 475 -47 c 0,6,7
 256 -47 256 -47 172 96 c 0,8,9
 133 162 133 162 133 246 c 2,10,-1
 133 1073 l 1,11,-1
 303 1073 l 1,12,-1
 303 313 l 2,13,14
 303 170 303 170 424 121 c 0,15,16
 469 102 469 102 524 102 c 0,17,18
 698 102 698 102 776 262 c 0,19,20
 817 348 817 348 817 465 c 2,21,-1
 817 1073 l 1,22,-1
 987 1073 l 1,23,-1
 987 0 l 1,0,-1
EndSplineSet
EndChar

StartChar: v
Encoding: 118 118 87
Width: 1024
GlyphClass: 2
Flags: W
LayerCount: 2
Fore
SplineSet
583 0 m 1,0,-1
 397 0 l 1,1,-1
 20 1073 l 1,2,-1
 213 1073 l 1,3,-1
 499 203 l 1,4,-1
 802 1073 l 1,5,-1
 995 1073 l 1,6,-1
 583 0 l 1,0,-1
EndSplineSet
EndChar

StartChar: w
Encoding: 119 119 88
Width: 1478
GlyphClass: 2
Flags: W
LayerCount: 2
Fore
SplineSet
182 0 m 1,0,-1
 182 1493 l 1,1,-1
 757 1493 l 2,2,3
 1091 1493 1091 1493 1253 1223 c 1,4,-1
 1298 1135 l 1,5,6
 1366 969 1366 969 1366 748 c 0,7,8
 1366 319 1366 319 1128 125 c 0,9,10
 979 0 979 0 757 0 c 2,11,-1
 182 0 l 1,0,-1
372 168 m 1,12,-1
 725 168 l 2,13,14
 1081 168 1081 168 1157 539 c 0,15,16
 1175 631 1175 631 1175 745 c 0,17,18
 1175 1249 1175 1249 831 1315 c 0,19,20
 780 1325 780 1325 725 1325 c 2,21,-1
 372 1325 l 1,22,-1
 372 168 l 1,12,-1
EndSplineSet
EndChar

StartChar: x
Encoding: 120 120 89
Width: 1251
GlyphClass: 2
Flags: W
LayerCount: 2
Fore
SplineSet
725 1325 m 1,0,-1
 725 0 l 1,1,-1
 535 0 l 1,2,-1
 535 1325 l 1,3,-1
 43 1325 l 1,4,-1
 43 1493 l 1,5,-1
 1214 1493 l 1,6,-1
 1214 1325 l 1,7,-1
 725 1325 l 1,0,-1
EndSplineSet
EndChar

StartChar: y
Encoding: 121 121 90
Width: 1024
GlyphClass: 2
Flags: W
LayerCount: 2
Fore
SplineSet
794 1073 m 1,0,-1
 978 1073 l 1,1,-1
 501 -225 l 2,2,3
 456 -342 456 -342 384 -395 c 0,4,5
 314 -446 314 -446 224 -446 c 0,6,7
 161 -446 161 -446 110 -419 c 1,8,-1
 110 -266 l 1,9,10
 165 -278 165 -278 200 -278 c 0,11,12
 292 -278 292 -278 329 -196 c 0,13,14
 333 -186 333 -186 337 -174 c 2,15,-1
 402 -4 l 1,16,-1
 40 1073 l 1,17,-1
 222 1073 l 1,18,-1
 497 238 l 1,19,-1
 794 1073 l 1,0,-1
EndSplineSet
EndChar

StartChar: z
Encoding: 122 122 91
Width: 433
GlyphClass: 2
Flags: W
LayerCount: 2
Fore
SplineSet
144 1073 m 1,0,-1
 314 1073 l 1,1,-1
 314 -223 l 2,2,3
 314 -434 314 -434 52 -446 c 0,4,5
 38 -446 38 -446 21 -446 c 0,6,7
 -5 -446 -5 -446 -36 -440 c 1,8,-1
 -36 -294 l 1,9,10
 -1 -296 -1 -296 5 -296 c 0,11,12
 111 -296 111 -296 134 -231 c 0,13,14
 144 -202 144 -202 144 -155 c 2,15,-1
 144 1073 l 1,0,-1
314 1493 m 1,16,-1
 314 1278 l 1,17,-1
 144 1278 l 1,18,-1
 144 1493 l 1,19,-1
 314 1493 l 1,16,-1
EndSplineSet
EndChar

StartChar: braceleft
Encoding: 123 123 92
Width: 1000
GlyphClass: 2
Flags: W
LayerCount: 2
Fore
SplineSet
451 200 m 0,0,1
 451 450 451 450 375 475 c 2,2,-1
 150 551 l 1,3,-1
 150 650 l 1,4,-1
 376 726 l 2,5,6
 451 751 451 751 451 1000 c 0,7,8
 451 1450 451 1450 800 1451 c 2,9,-1
 901 1451 l 1,10,-1
 901 1300 l 1,11,-1
 798 1300 l 2,12,13
 600 1300 600 1300 600 1001 c 0,14,15
 600 700 600 700 401 600 c 1,16,17
 600 499 600 499 601 200 c 0,18,19
 601 -100 601 -100 801 -100 c 2,20,-1
 901 -100 l 1,21,-1
 901 -250 l 1,22,-1
 800 -250 l 2,23,24
 451 -250 451 -250 451 200 c 0,0,1
EndSplineSet
EndChar

StartChar: bar
Encoding: 124 124 93
Width: 450
GlyphClass: 2
Flags: W
LayerCount: 2
Fore
SplineSet
150 -100 m 1,0,-1
 150 1300 l 1,1,-1
 300 1300 l 1,2,-1
 300 -100 l 1,3,-1
 150 -100 l 1,0,-1
EndSplineSet
EndChar

StartChar: braceright
Encoding: 125 125 94
Width: 1000
GlyphClass: 2
Flags: W
LayerCount: 2
Fore
SplineSet
550 1000 m 0,0,1
 550 750 550 750 626 725 c 2,2,-1
 851 649 l 1,3,-1
 851 550 l 1,4,-1
 625 474 l 2,5,6
 550 448 550 448 550 200 c 0,7,8
 550 -250 550 -250 201 -251 c 2,9,-1
 100 -251 l 1,10,-1
 100 -100 l 1,11,-1
 203 -100 l 2,12,13
 401 -100 401 -100 401 199 c 0,14,15
 401 500 401 500 600 600 c 1,16,17
 400 701 400 701 400 1000 c 0,18,19
 400 1300 400 1300 200 1300 c 2,20,-1
 100 1300 l 1,21,-1
 100 1450 l 1,22,-1
 201 1450 l 2,23,24
 550 1450 550 1450 550 1000 c 0,0,1
EndSplineSet
EndChar

StartChar: asciitilde
Encoding: 126 126 95
Width: 1200
GlyphClass: 2
Flags: W
LayerCount: 2
Fore
SplineSet
800 250 m 0,0,1
 651 250 651 250 576 375 c 2,2,-1
 538 438 l 2,3,4
 500 500 500 500 400 500 c 0,5,6
 301 500 301 500 301 400 c 2,7,-1
 301 250 l 1,8,-1
 150 250 l 1,9,-1
 150 401 l 2,10,11
 150 650 150 650 397 650 c 2,12,-1
 400 650 l 2,13,14
 549 650 549 650 626 525 c 2,15,-1
 663 463 l 2,16,17
 700 400 700 400 801 400 c 0,18,19
 900 400 900 400 900 500 c 2,20,-1
 900 650 l 1,21,-1
 1050 650 l 1,22,-1
 1050 500 l 2,23,24
 1050 251 1050 251 800 250 c 0,0,1
EndSplineSet
EndChar

StartChar: Adieresis
Encoding: 196 196 96
Width: 1100
GlyphClass: 2
Flags: W
LayerCount: 2
Fore
SplineSet
1062 0 m 1,0,-1
 905 0 l 1,1,-1
 778 400 l 1,2,-1
 327 400 l 1,3,-1
 204 0 l 1,4,-1
 48 0 l 1,5,-1
 450 1300 l 1,6,-1
 650 1300 l 1,7,-1
 1062 0 l 1,0,-1
731 550 m 1,8,-1
 550 1124 l 1,9,-1
 374 550 l 1,10,-1
 731 550 l 1,8,-1
450 1476 m 256,11,12
 450 1401 450 1401 376 1401 c 0,13,14
 301 1400 301 1400 301 1475 c 256,15,16
 301 1550 301 1550 376 1550 c 0,17,18
 450 1551 450 1551 450 1476 c 256,11,12
651 1476 m 0,19,20
 651 1551 651 1551 726 1551 c 0,21,22
 800 1550 800 1550 800 1476 c 0,23,24
 800 1401 800 1401 725 1401 c 256,25,26
 650 1401 650 1401 651 1476 c 0,19,20
EndSplineSet
EndChar

StartChar: Aring
Encoding: 197 197 97
Width: 1100
GlyphClass: 2
Flags: W
LayerCount: 2
Fore
SplineSet
350 1500 m 0,0,1
 350 1700 350 1700 550 1700 c 256,2,3
 750 1700 750 1700 750 1500 c 0,4,5
 750 1305 750 1305 560 1300 c 1,6,-1
 650 1300 l 1,7,-1
 1062 0 l 1,8,-1
 905 0 l 1,9,-1
 778 400 l 1,10,-1
 327 400 l 1,11,-1
 204 0 l 1,12,-1
 48 0 l 1,13,-1
 450 1300 l 1,14,-1
 540 1300 l 1,15,16
 350 1305 350 1305 350 1500 c 0,0,1
731 550 m 1,17,-1
 550 1124 l 1,18,-1
 374 550 l 1,19,-1
 731 550 l 1,17,-1
650 1500 m 256,20,21
 650 1600 650 1600 550 1600 c 256,22,23
 450 1600 450 1600 450 1500 c 256,24,25
 450 1400 450 1400 550 1400 c 256,26,27
 650 1400 650 1400 650 1500 c 256,20,21
EndSplineSet
EndChar

StartChar: Ccedilla
Encoding: 199 199 98
Width: 1150
GlyphClass: 2
Flags: W
LayerCount: 2
Fore
SplineSet
150 651 m 0,0,1
 150 1301 150 1301 650 1301 c 0,2,3
 899 1301 899 1301 1051 1200 c 1,4,-1
 1051 1000 l 1,5,6
 952 1150 952 1150 650 1150 c 0,7,8
 300 1150 300 1150 300 650 c 256,9,10
 300 150 300 150 650 150 c 0,11,12
 951 150 951 150 1050 300 c 1,13,-1
 1050 101 l 1,14,15
 898 0 898 0 650 0 c 2,16,-1
 648 0 l 1,17,-1
 600 -100 l 1,18,19
 800 -100 800 -100 800 -275 c 0,20,21
 801 -450 801 -450 551 -450 c 0,22,23
 451 -450 451 -450 401 -351 c 1,24,-1
 551 -350 l 2,25,26
 700 -350 700 -350 700 -275 c 0,27,28
 700 -201 700 -201 601 -201 c 2,29,-1
 451 -200 l 1,30,-1
 551 7 l 1,31,32
 150 68 150 68 150 651 c 0,0,1
EndSplineSet
EndChar

StartChar: Eacute
Encoding: 201 201 99
Width: 1049
GlyphClass: 2
Flags: W
LayerCount: 2
Fore
SplineSet
950 1300 m 1,0,-1
 950 1150 l 1,1,-1
 300 1150 l 1,2,-1
 300 800 l 1,3,-1
 900 800 l 1,4,-1
 900 650 l 1,5,-1
 300 650 l 1,6,-1
 300 150 l 1,7,-1
 950 150 l 1,8,-1
 950 0 l 1,9,-1
 150 0 l 1,10,-1
 150 1300 l 1,11,-1
 950 1300 l 1,0,-1
550 1400 m 1,12,-1
 450 1400 l 1,13,-1
 650 1800 l 1,14,-1
 800 1800 l 1,15,-1
 550 1400 l 1,12,-1
EndSplineSet
EndChar

StartChar: Ntilde
Encoding: 209 209 100
Width: 1100
GlyphClass: 2
Flags: W
LayerCount: 2
Fore
SplineSet
300 976 m 1,0,-1
 300 0 l 1,1,-1
 150 0 l 1,2,-1
 150 1300 l 1,3,-1
 301 1300 l 1,4,-1
 800 328 l 1,5,-1
 800 1300 l 1,6,-1
 950 1300 l 1,7,-1
 950 0 l 1,8,-1
 799 0 l 1,9,-1
 300 976 l 1,0,-1
706 1400 m 0,10,11
 608 1400 608 1400 531 1450 c 256,12,13
 454 1500 454 1500 406 1500 c 0,14,15
 357 1500 357 1500 357 1400 c 1,16,-1
 256 1400 l 1,17,18
 256 1600 256 1600 406 1600 c 0,19,20
 504 1600 504 1600 581 1550 c 256,21,22
 658 1500 658 1500 706 1500 c 0,23,24
 756 1500 756 1500 756 1600 c 1,25,-1
 856 1600 l 1,26,27
 856 1400 856 1400 706 1400 c 0,10,11
EndSplineSet
EndChar

StartChar: Odieresis
Encoding: 214 214 101
Width: 1300
GlyphClass: 2
Flags: W
LayerCount: 2
Fore
SplineSet
150 650 m 256,0,1
 150 1300 150 1300 650 1300 c 256,2,3
 1150 1300 1150 1300 1150 650 c 256,4,5
 1150 0 1150 0 650 0 c 256,6,7
 150 0 150 0 150 650 c 256,0,1
300 650 m 256,8,9
 300 150 300 150 650 150 c 256,10,11
 1000 150 1000 150 1000 650 c 256,12,13
 1000 1150 1000 1150 650 1150 c 256,14,15
 300 1150 300 1150 300 650 c 256,8,9
550 1476 m 256,16,17
 550 1401 550 1401 476 1401 c 0,18,19
 401 1400 401 1400 401 1475 c 256,20,21
 401 1550 401 1550 476 1550 c 0,22,23
 550 1551 550 1551 550 1476 c 256,16,17
751 1476 m 0,24,25
 751 1551 751 1551 826 1551 c 0,26,27
 900 1550 900 1550 900 1476 c 0,28,29
 900 1401 900 1401 825 1401 c 256,30,31
 750 1401 750 1401 751 1476 c 0,24,25
EndSplineSet
EndChar

StartChar: Udieresis
Encoding: 220 220 102
Width: 1200
GlyphClass: 2
Flags: W
LayerCount: 2
Fore
SplineSet
600 0 m 256,0,1
 150 0 150 0 150 400 c 2,2,-1
 150 1300 l 1,3,-1
 300 1300 l 1,4,-1
 300 400 l 2,5,6
 300 150 300 150 600 150 c 256,7,8
 900 150 900 150 900 400 c 2,9,-1
 900 1300 l 1,10,-1
 1050 1300 l 1,11,-1
 1050 400 l 2,12,13
 1050 0 1050 0 600 0 c 256,0,1
500 1476 m 256,14,15
 500 1401 500 1401 426 1401 c 0,16,17
 351 1400 351 1400 351 1475 c 256,18,19
 351 1550 351 1550 426 1550 c 0,20,21
 500 1551 500 1551 500 1476 c 256,14,15
701 1476 m 0,22,23
 701 1551 701 1551 776 1551 c 0,24,25
 850 1550 850 1550 850 1476 c 0,26,27
 850 1401 850 1401 775 1401 c 256,28,29
 700 1401 700 1401 701 1476 c 0,22,23
EndSplineSet
EndChar

StartChar: aacute
Encoding: 225 225 103
Width: 1050
GlyphClass: 2
Flags: W
LayerCount: 2
Fore
SplineSet
100 300 m 0,0,1
 100 650 100 650 650 650 c 2,2,-1
 751 650 l 1,3,-1
 751 701 l 2,4,5
 751 851 751 851 500 851 c 0,6,7
 337 851 337 851 151 801 c 1,8,-1
 151 951 l 1,9,10
 339 1001 339 1001 501 1001 c 0,11,12
 901 1001 901 1001 901 701 c 2,13,-1
 901 1 l 1,14,-1
 751 1 l 1,15,-1
 751 160 l 1,16,-1
 738 150 l 1,17,18
 550 0 550 0 400 0 c 0,19,20
 100 0 100 0 100 300 c 0,0,1
251 300 m 0,21,22
 251 151 251 151 401 151 c 0,23,24
 500 151 500 151 625 250 c 2,25,-1
 750 350 l 1,26,-1
 750 500 l 1,27,-1
 650 500 l 2,28,29
 251 500 251 500 251 300 c 0,21,22
500 1150 m 1,30,-1
 400 1150 l 1,31,-1
 600 1550 l 1,32,-1
 750 1550 l 1,33,-1
 500 1150 l 1,30,-1
EndSplineSet
EndChar

StartChar: agrave
Encoding: 224 224 104
Width: 1050
GlyphClass: 2
Flags: W
LayerCount: 2
Fore
SplineSet
100 300 m 0,0,1
 100 650 100 650 650 650 c 2,2,-1
 751 650 l 1,3,-1
 751 701 l 2,4,5
 751 851 751 851 500 851 c 0,6,7
 337 851 337 851 151 801 c 1,8,-1
 151 951 l 1,9,10
 339 1001 339 1001 501 1001 c 0,11,12
 901 1001 901 1001 901 701 c 2,13,-1
 901 1 l 1,14,-1
 751 1 l 1,15,-1
 751 160 l 1,16,-1
 738 150 l 1,17,18
 550 0 550 0 400 0 c 0,19,20
 100 0 100 0 100 300 c 0,0,1
251 300 m 0,21,22
 251 151 251 151 401 151 c 0,23,24
 500 151 500 151 625 250 c 2,25,-1
 750 350 l 1,26,-1
 750 500 l 1,27,-1
 650 500 l 2,28,29
 251 500 251 500 251 300 c 0,21,22
700 1150 m 1,30,-1
 600 1150 l 1,31,-1
 300 1500 l 1,32,-1
 450 1500 l 1,33,-1
 700 1150 l 1,30,-1
EndSplineSet
EndChar

StartChar: acircumflex
Encoding: 226 226 105
Width: 1050
GlyphClass: 2
Flags: W
LayerCount: 2
Fore
SplineSet
100 300 m 0,0,1
 100 650 100 650 650 650 c 2,2,-1
 751 650 l 1,3,-1
 751 701 l 2,4,5
 751 851 751 851 500 851 c 0,6,7
 339 851 339 851 151 801 c 1,8,-1
 151 951 l 1,9,10
 340 1001 340 1001 501 1001 c 0,11,12
 901 1001 901 1001 901 701 c 2,13,-1
 901 1 l 1,14,-1
 751 1 l 1,15,-1
 751 160 l 1,16,-1
 738 150 l 1,17,18
 550 0 550 0 400 0 c 0,19,20
 100 0 100 0 100 300 c 0,0,1
651 500 m 2,21,22
 251 500 251 500 251 300 c 0,23,24
 251 151 251 151 401 151 c 0,25,26
 500 151 500 151 625 250 c 2,27,-1
 750 350 l 1,28,-1
 751 347 l 1,29,-1
 751 500 l 1,30,-1
 651 500 l 2,21,22
751 1151 m 1,31,-1
 551 1350 l 1,32,-1
 350 1151 l 1,33,-1
 250 1151 l 1,34,-1
 551 1550 l 1,35,-1
 851 1151 l 1,36,-1
 751 1151 l 1,31,-1
EndSplineSet
EndChar

StartChar: adieresis
Encoding: 228 228 106
Width: 1050
GlyphClass: 2
Flags: W
LayerCount: 2
Fore
SplineSet
100 300 m 0,0,1
 100 650 100 650 650 650 c 2,2,-1
 751 650 l 1,3,-1
 751 701 l 2,4,5
 751 851 751 851 500 851 c 0,6,7
 339 851 339 851 151 801 c 1,8,-1
 151 951 l 1,9,10
 340 1001 340 1001 501 1001 c 0,11,12
 901 1001 901 1001 901 701 c 2,13,-1
 901 1 l 1,14,-1
 751 1 l 1,15,-1
 751 160 l 1,16,-1
 738 150 l 1,17,18
 550 0 550 0 400 0 c 0,19,20
 100 0 100 0 100 300 c 0,0,1
651 500 m 2,21,22
 251 500 251 500 251 300 c 0,23,24
 251 151 251 151 401 151 c 0,25,26
 500 151 500 151 625 250 c 2,27,-1
 750 350 l 1,28,-1
 751 347 l 1,29,-1
 751 500 l 1,30,-1
 651 500 l 2,21,22
450 1226 m 256,31,32
 450 1151 450 1151 376 1151 c 0,33,34
 301 1150 301 1150 301 1225 c 256,35,36
 301 1300 301 1300 376 1300 c 0,37,38
 450 1301 450 1301 450 1226 c 256,31,32
651 1226 m 0,39,40
 651 1301 651 1301 726 1301 c 0,41,42
 800 1300 800 1300 800 1226 c 0,43,44
 800 1151 800 1151 725 1151 c 256,45,46
 650 1151 650 1151 651 1226 c 0,39,40
EndSplineSet
EndChar

StartChar: atilde
Encoding: 227 227 107
Width: 1050
GlyphClass: 2
Flags: W
LayerCount: 2
Fore
SplineSet
100 300 m 0,0,1
 100 650 100 650 650 650 c 2,2,-1
 751 650 l 1,3,-1
 751 701 l 2,4,5
 751 851 751 851 500 851 c 0,6,7
 339 851 339 851 151 801 c 1,8,-1
 151 951 l 1,9,10
 340 1001 340 1001 501 1001 c 0,11,12
 901 1001 901 1001 901 701 c 2,13,-1
 901 1 l 1,14,-1
 751 1 l 1,15,-1
 751 160 l 1,16,-1
 738 150 l 1,17,18
 550 0 550 0 400 0 c 0,19,20
 100 0 100 0 100 300 c 0,0,1
651 500 m 2,21,22
 251 500 251 500 251 300 c 0,23,24
 251 151 251 151 401 151 c 0,25,26
 500 151 500 151 625 250 c 2,27,-1
 750 350 l 1,28,-1
 751 347 l 1,29,-1
 751 500 l 1,30,-1
 651 500 l 2,21,22
676 1150 m 0,31,32
 578 1150 578 1150 501 1200 c 256,33,34
 424 1250 424 1250 376 1250 c 0,35,36
 327 1250 327 1250 327 1150 c 1,37,-1
 226 1150 l 1,38,39
 226 1350 226 1350 376 1350 c 0,40,41
 474 1350 474 1350 551 1300 c 256,42,43
 628 1250 628 1250 676 1250 c 0,44,45
 726 1250 726 1250 726 1350 c 1,46,-1
 826 1350 l 1,47,48
 826 1150 826 1150 676 1150 c 0,31,32
EndSplineSet
EndChar

StartChar: aring
Encoding: 229 229 108
Width: 1050
GlyphClass: 2
Flags: W
LayerCount: 2
Fore
SplineSet
100 300 m 0,0,1
 100 650 100 650 650 650 c 2,2,-1
 751 650 l 1,3,-1
 751 701 l 2,4,5
 751 851 751 851 500 851 c 0,6,7
 339 851 339 851 151 801 c 1,8,-1
 151 951 l 1,9,10
 340 1001 340 1001 501 1001 c 0,11,12
 901 1001 901 1001 901 701 c 2,13,-1
 901 1 l 1,14,-1
 751 1 l 1,15,-1
 751 160 l 1,16,-1
 738 150 l 1,17,18
 550 0 550 0 400 0 c 0,19,20
 100 0 100 0 100 300 c 0,0,1
651 500 m 2,21,22
 251 500 251 500 251 300 c 0,23,24
 251 151 251 151 401 151 c 0,25,26
 500 151 500 151 625 250 c 2,27,-1
 750 350 l 1,28,-1
 751 347 l 1,29,-1
 751 500 l 1,30,-1
 651 500 l 2,21,22
650 1250 m 256,31,32
 650 1350 650 1350 550 1350 c 256,33,34
 450 1350 450 1350 450 1250 c 256,35,36
 450 1150 450 1150 550 1150 c 256,37,38
 650 1150 650 1150 650 1250 c 256,31,32
350 1250 m 256,39,40
 350 1450 350 1450 550 1450 c 256,41,42
 750 1450 750 1450 750 1250 c 256,43,44
 750 1050 750 1050 550 1050 c 256,45,46
 350 1050 350 1050 350 1250 c 256,39,40
EndSplineSet
EndChar

StartChar: ccedilla
Encoding: 231 231 109
Width: 1050
GlyphClass: 2
Flags: W
LayerCount: 2
Fore
SplineSet
150 500 m 0,0,1
 150 1000 150 1000 601 1000 c 0,2,3
 803 1000 803 1000 951 900 c 1,4,-1
 951 700 l 1,5,6
 852 850 852 850 600 850 c 0,7,8
 301 850 301 850 301 500 c 0,9,10
 301 151 301 151 601 150 c 0,11,12
 852 150 852 150 951 300 c 1,13,-1
 951 101 l 1,14,15
 817 12 817 12 648 1 c 1,16,-1
 600 -100 l 1,17,18
 800 -100 800 -100 800 -275 c 0,19,20
 801 -450 801 -450 551 -450 c 0,21,22
 451 -450 451 -450 401 -351 c 1,23,-1
 551 -350 l 2,24,25
 700 -350 700 -350 700 -275 c 0,26,27
 700 -201 700 -201 601 -201 c 2,28,-1
 451 -200 l 1,29,-1
 548 2 l 1,30,31
 150 30 150 30 150 500 c 0,0,1
EndSplineSet
EndChar

StartChar: eacute
Encoding: 233 233 110
Width: 1050
GlyphClass: 2
Flags: W
LayerCount: 2
Fore
SplineSet
501 1001 m 256,0,1
 901 1001 901 1001 901 601 c 2,2,-1
 901 450 l 1,3,-1
 251 450 l 1,4,5
 269 150 269 150 500 150 c 0,6,7
 749 150 749 150 901 300 c 1,8,-1
 901 101 l 1,9,10
 750 1 750 1 500 1 c 2,11,-1
 498 1 l 2,12,13
 101 1 101 1 101 497 c 2,14,-1
 101 501 l 2,15,16
 101 1001 101 1001 501 1001 c 256,0,1
501 851 m 0,17,18
 291 851 291 851 256 600 c 1,19,-1
 750 600 l 1,20,-1
 750 603 l 2,21,22
 750 849 750 849 501 851 c 0,17,18
500 1150 m 1,23,-1
 400 1150 l 1,24,-1
 600 1550 l 1,25,-1
 750 1550 l 1,26,-1
 500 1150 l 1,23,-1
EndSplineSet
EndChar

StartChar: egrave
Encoding: 232 232 111
Width: 1050
GlyphClass: 2
Flags: W
LayerCount: 2
Fore
SplineSet
501 1001 m 256,0,1
 901 1001 901 1001 901 601 c 2,2,-1
 901 450 l 1,3,-1
 251 450 l 1,4,5
 269 150 269 150 500 150 c 0,6,7
 749 150 749 150 901 300 c 1,8,-1
 901 101 l 1,9,10
 750 1 750 1 500 1 c 2,11,-1
 498 1 l 2,12,13
 101 1 101 1 101 497 c 2,14,-1
 101 501 l 2,15,16
 101 1001 101 1001 501 1001 c 256,0,1
501 851 m 0,17,18
 291 851 291 851 256 600 c 1,19,-1
 750 600 l 1,20,-1
 750 603 l 2,21,22
 750 849 750 849 501 851 c 0,17,18
700 1150 m 1,23,-1
 600 1150 l 1,24,-1
 300 1500 l 1,25,-1
 450 1500 l 1,26,-1
 700 1150 l 1,23,-1
EndSplineSet
EndChar

StartChar: ecircumflex
Encoding: 234 234 112
Width: 1050
GlyphClass: 2
Flags: W
LayerCount: 2
Fore
SplineSet
501 1001 m 256,0,1
 901 1001 901 1001 901 601 c 2,2,-1
 901 450 l 1,3,-1
 251 450 l 1,4,5
 269 150 269 150 500 150 c 0,6,7
 749 150 749 150 901 300 c 1,8,-1
 901 101 l 1,9,10
 750 1 750 1 500 1 c 2,11,-1
 498 1 l 2,12,13
 101 1 101 1 101 497 c 2,14,-1
 101 501 l 2,15,16
 101 1001 101 1001 501 1001 c 256,0,1
501 851 m 0,17,18
 291 851 291 851 256 600 c 1,19,-1
 750 600 l 1,20,-1
 750 603 l 2,21,22
 750 849 750 849 501 851 c 0,17,18
751 1151 m 1,23,-1
 551 1350 l 1,24,-1
 350 1151 l 1,25,-1
 250 1151 l 1,26,-1
 551 1550 l 1,27,-1
 851 1151 l 1,28,-1
 751 1151 l 1,23,-1
EndSplineSet
EndChar

StartChar: edieresis
Encoding: 235 235 113
Width: 1050
GlyphClass: 2
Flags: W
LayerCount: 2
Fore
SplineSet
501 1001 m 256,0,1
 901 1001 901 1001 901 601 c 2,2,-1
 901 450 l 1,3,-1
 251 450 l 1,4,5
 269 150 269 150 500 150 c 0,6,7
 749 150 749 150 901 300 c 1,8,-1
 901 101 l 1,9,10
 750 1 750 1 500 1 c 2,11,-1
 498 1 l 2,12,13
 101 1 101 1 101 497 c 2,14,-1
 101 501 l 2,15,16
 101 1001 101 1001 501 1001 c 256,0,1
501 851 m 0,17,18
 291 851 291 851 256 600 c 1,19,-1
 750 600 l 1,20,-1
 750 603 l 2,21,22
 750 849 750 849 501 851 c 0,17,18
450 1226 m 256,23,24
 450 1151 450 1151 376 1151 c 0,25,26
 301 1150 301 1150 301 1225 c 256,27,28
 301 1300 301 1300 376 1300 c 0,29,30
 450 1301 450 1301 450 1226 c 256,23,24
651 1226 m 0,31,32
 651 1301 651 1301 726 1301 c 0,33,34
 800 1300 800 1300 800 1226 c 0,35,36
 800 1151 800 1151 725 1151 c 256,37,38
 650 1151 650 1151 651 1226 c 0,31,32
EndSplineSet
EndChar

StartChar: iacute
Encoding: 237 237 114
Width: 450
GlyphClass: 2
Flags: W
LayerCount: 2
Fore
SplineSet
150 1000 m 1,0,-1
 300 1000 l 1,1,-1
 300 0 l 1,2,-1
 150 0 l 1,3,-1
 150 1000 l 1,0,-1
250 1150 m 1,4,-1
 150 1150 l 1,5,-1
 350 1550 l 1,6,-1
 500 1550 l 1,7,-1
 250 1150 l 1,4,-1
EndSplineSet
EndChar

StartChar: igrave
Encoding: 236 236 115
Width: 450
GlyphClass: 2
Flags: W
LayerCount: 2
Fore
SplineSet
150 1000 m 1,0,-1
 300 1000 l 1,1,-1
 300 0 l 1,2,-1
 150 0 l 1,3,-1
 150 1000 l 1,0,-1
300 1150 m 1,4,-1
 200 1150 l 1,5,-1
 -100 1500 l 1,6,-1
 50 1500 l 1,7,-1
 300 1150 l 1,4,-1
EndSplineSet
EndChar

StartChar: icircumflex
Encoding: 238 238 116
Width: 450
GlyphClass: 2
Flags: W
LayerCount: 2
Fore
SplineSet
150 1000 m 1,0,-1
 300 1000 l 1,1,-1
 300 0 l 1,2,-1
 150 0 l 1,3,-1
 150 1000 l 1,0,-1
424 1101 m 1,4,-1
 224 1300 l 1,5,-1
 23 1101 l 1,6,-1
 -77 1101 l 1,7,-1
 224 1500 l 1,8,-1
 524 1101 l 1,9,-1
 424 1101 l 1,4,-1
EndSplineSet
EndChar

StartChar: idieresis
Encoding: 239 239 117
Width: 450
GlyphClass: 2
Flags: W
LayerCount: 2
Fore
SplineSet
150 1000 m 1,0,-1
 300 1000 l 1,1,-1
 300 0 l 1,2,-1
 150 0 l 1,3,-1
 150 1000 l 1,0,-1
375 1300 m 256,4,5
 450 1300 450 1300 450 1225 c 256,6,7
 450 1150 450 1150 375 1150 c 256,8,9
 300 1150 300 1150 300 1225 c 256,10,11
 300 1300 300 1300 375 1300 c 256,4,5
75 1300 m 256,12,13
 150 1300 150 1300 150 1225 c 256,14,15
 150 1150 150 1150 75 1150 c 256,16,17
 0 1150 0 1150 0 1225 c 256,18,19
 0 1300 0 1300 75 1300 c 256,12,13
EndSplineSet
EndChar

StartChar: ntilde
Encoding: 241 241 118
Width: 1100
GlyphClass: 2
Flags: W
LayerCount: 2
Fore
SplineSet
300 900 m 1,0,1
 400 1000 400 1000 550 1000 c 0,2,3
 950 1000 950 1000 950 600 c 2,4,-1
 950 0 l 1,5,-1
 800 0 l 1,6,-1
 800 600 l 2,7,8
 800 850 800 850 550 850 c 256,9,10
 300 850 300 850 300 600 c 2,11,-1
 300 0 l 1,12,-1
 150 0 l 1,13,-1
 150 1000 l 1,14,-1
 300 1000 l 1,15,-1
 300 900 l 1,0,1
706 1150 m 0,16,17
 608 1150 608 1150 531 1200 c 256,18,19
 454 1250 454 1250 406 1250 c 0,20,21
 357 1250 357 1250 357 1150 c 1,22,-1
 256 1150 l 1,23,24
 256 1350 256 1350 406 1350 c 0,25,26
 504 1350 504 1350 581 1300 c 256,27,28
 658 1250 658 1250 706 1250 c 0,29,30
 756 1250 756 1250 756 1350 c 1,31,-1
 856 1350 l 1,32,33
 856 1150 856 1150 706 1150 c 0,16,17
EndSplineSet
EndChar

StartChar: oacute
Encoding: 243 243 119
Width: 1100
GlyphClass: 2
Flags: W
LayerCount: 2
Fore
SplineSet
551 1001 m 256,0,1
 951 1001 951 1001 951 501 c 0,2,3
 949 1 949 1 550 1 c 2,4,-1
 548 1 l 2,5,6
 151 1 151 1 151 497 c 2,7,-1
 151 501 l 2,8,9
 151 1001 151 1001 551 1001 c 256,0,1
550 150 m 256,10,11
 800 150 800 150 800 500 c 2,12,-1
 800 504 l 2,13,14
 800 850 800 850 550 850 c 256,15,16
 300 850 300 850 300 500 c 256,17,18
 300 150 300 150 550 150 c 256,10,11
500 1150 m 1,19,-1
 400 1150 l 1,20,-1
 600 1550 l 1,21,-1
 750 1550 l 1,22,-1
 500 1150 l 1,19,-1
EndSplineSet
EndChar

StartChar: ograve
Encoding: 242 242 120
Width: 1100
GlyphClass: 2
Flags: W
LayerCount: 2
Fore
SplineSet
551 1001 m 256,0,1
 951 1001 951 1001 951 501 c 0,2,3
 949 1 949 1 550 1 c 2,4,-1
 548 1 l 2,5,6
 151 1 151 1 151 497 c 2,7,-1
 151 501 l 2,8,9
 151 1001 151 1001 551 1001 c 256,0,1
550 150 m 256,10,11
 800 150 800 150 800 500 c 2,12,-1
 800 504 l 2,13,14
 800 850 800 850 550 850 c 256,15,16
 300 850 300 850 300 500 c 256,17,18
 300 150 300 150 550 150 c 256,10,11
700 1150 m 1,19,-1
 600 1150 l 1,20,-1
 300 1500 l 1,21,-1
 450 1500 l 1,22,-1
 700 1150 l 1,19,-1
EndSplineSet
EndChar

StartChar: ocircumflex
Encoding: 244 244 121
Width: 1100
GlyphClass: 2
Flags: W
LayerCount: 2
Fore
SplineSet
551 1001 m 256,0,1
 951 1001 951 1001 951 501 c 0,2,3
 949 1 949 1 550 1 c 2,4,-1
 548 1 l 2,5,6
 151 1 151 1 151 497 c 2,7,-1
 151 501 l 2,8,9
 151 1001 151 1001 551 1001 c 256,0,1
550 150 m 256,10,11
 800 150 800 150 800 500 c 2,12,-1
 800 504 l 2,13,14
 800 850 800 850 550 850 c 256,15,16
 300 850 300 850 300 500 c 256,17,18
 300 150 300 150 550 150 c 256,10,11
751 1151 m 1,19,-1
 551 1350 l 1,20,-1
 350 1151 l 1,21,-1
 250 1151 l 1,22,-1
 551 1550 l 1,23,-1
 851 1151 l 1,24,-1
 751 1151 l 1,19,-1
EndSplineSet
EndChar

StartChar: odieresis
Encoding: 246 246 122
Width: 1100
GlyphClass: 2
Flags: W
LayerCount: 2
Fore
SplineSet
551 1001 m 256,0,1
 951 1001 951 1001 951 501 c 0,2,3
 949 1 949 1 550 1 c 2,4,-1
 548 1 l 2,5,6
 151 1 151 1 151 497 c 2,7,-1
 151 501 l 2,8,9
 151 1001 151 1001 551 1001 c 256,0,1
550 150 m 256,10,11
 800 150 800 150 800 500 c 2,12,-1
 800 504 l 2,13,14
 800 850 800 850 550 850 c 256,15,16
 300 850 300 850 300 500 c 256,17,18
 300 150 300 150 550 150 c 256,10,11
450 1226 m 256,19,20
 450 1151 450 1151 376 1151 c 0,21,22
 301 1150 301 1150 301 1225 c 256,23,24
 301 1300 301 1300 376 1300 c 0,25,26
 450 1301 450 1301 450 1226 c 256,19,20
651 1226 m 0,27,28
 651 1301 651 1301 726 1301 c 0,29,30
 800 1300 800 1300 800 1226 c 0,31,32
 800 1151 800 1151 725 1151 c 256,33,34
 650 1151 650 1151 651 1226 c 0,27,28
EndSplineSet
EndChar

StartChar: otilde
Encoding: 245 245 123
Width: 1100
GlyphClass: 2
Flags: W
LayerCount: 2
Fore
SplineSet
551 1001 m 256,0,1
 951 1001 951 1001 951 501 c 0,2,3
 949 1 949 1 550 1 c 2,4,-1
 548 1 l 2,5,6
 151 1 151 1 151 497 c 2,7,-1
 151 501 l 2,8,9
 151 1001 151 1001 551 1001 c 256,0,1
550 150 m 256,10,11
 800 150 800 150 800 500 c 2,12,-1
 800 504 l 2,13,14
 800 850 800 850 550 850 c 256,15,16
 300 850 300 850 300 500 c 256,17,18
 300 150 300 150 550 150 c 256,10,11
700 1150 m 0,19,20
 602 1150 602 1150 525 1200 c 256,21,22
 448 1250 448 1250 400 1250 c 0,23,24
 351 1250 351 1250 351 1150 c 1,25,-1
 250 1150 l 1,26,27
 250 1350 250 1350 400 1350 c 0,28,29
 498 1350 498 1350 575 1300 c 256,30,31
 652 1250 652 1250 700 1250 c 0,32,33
 750 1250 750 1250 750 1350 c 1,34,-1
 850 1350 l 1,35,36
 850 1150 850 1150 700 1150 c 0,19,20
EndSplineSet
EndChar

StartChar: uacute
Encoding: 250 250 124
Width: 1100
GlyphClass: 2
Flags: W
LayerCount: 2
Fore
SplineSet
550 150 m 256,0,1
 800 150 800 150 800 400 c 2,2,-1
 800 1000 l 1,3,-1
 950 1000 l 1,4,-1
 950 0 l 1,5,-1
 800 0 l 1,6,-1
 800 100 l 1,7,8
 700 0 700 0 550 0 c 0,9,10
 150 0 150 0 150 400 c 2,11,-1
 150 1000 l 1,12,-1
 300 1000 l 1,13,-1
 300 400 l 2,14,15
 300 150 300 150 550 150 c 256,0,1
500 1150 m 1,16,-1
 400 1150 l 1,17,-1
 600 1550 l 1,18,-1
 750 1550 l 1,19,-1
 500 1150 l 1,16,-1
EndSplineSet
EndChar

StartChar: ugrave
Encoding: 249 249 125
Width: 1100
GlyphClass: 2
Flags: W
LayerCount: 2
Fore
SplineSet
550 150 m 256,0,1
 800 150 800 150 800 400 c 2,2,-1
 800 1000 l 1,3,-1
 950 1000 l 1,4,-1
 950 0 l 1,5,-1
 800 0 l 1,6,-1
 800 100 l 1,7,8
 700 0 700 0 550 0 c 0,9,10
 150 0 150 0 150 400 c 2,11,-1
 150 1000 l 1,12,-1
 300 1000 l 1,13,-1
 300 400 l 2,14,15
 300 150 300 150 550 150 c 256,0,1
700 1150 m 1,16,-1
 600 1150 l 1,17,-1
 300 1500 l 1,18,-1
 450 1500 l 1,19,-1
 700 1150 l 1,16,-1
EndSplineSet
EndChar

StartChar: ucircumflex
Encoding: 251 251 126
Width: 1100
GlyphClass: 2
Flags: W
LayerCount: 2
Fore
SplineSet
550 150 m 256,0,1
 800 150 800 150 800 400 c 2,2,-1
 800 1000 l 1,3,-1
 950 1000 l 1,4,-1
 950 0 l 1,5,-1
 800 0 l 1,6,-1
 800 100 l 1,7,8
 700 0 700 0 550 0 c 0,9,10
 150 0 150 0 150 400 c 2,11,-1
 150 1000 l 1,12,-1
 300 1000 l 1,13,-1
 300 400 l 2,14,15
 300 150 300 150 550 150 c 256,0,1
751 1151 m 1,16,-1
 551 1350 l 1,17,-1
 350 1151 l 1,18,-1
 250 1151 l 1,19,-1
 551 1550 l 1,20,-1
 851 1151 l 1,21,-1
 751 1151 l 1,16,-1
EndSplineSet
EndChar

StartChar: udieresis
Encoding: 252 252 127
Width: 1100
GlyphClass: 2
Flags: W
LayerCount: 2
Fore
SplineSet
550 150 m 256,0,1
 800 150 800 150 800 400 c 2,2,-1
 800 1000 l 1,3,-1
 950 1000 l 1,4,-1
 950 0 l 1,5,-1
 800 0 l 1,6,-1
 800 100 l 1,7,8
 700 0 700 0 550 0 c 0,9,10
 150 0 150 0 150 400 c 2,11,-1
 150 1000 l 1,12,-1
 300 1000 l 1,13,-1
 300 400 l 2,14,15
 300 150 300 150 550 150 c 256,0,1
450 1226 m 256,16,17
 450 1151 450 1151 376 1151 c 0,18,19
 301 1150 301 1150 301 1225 c 256,20,21
 301 1300 301 1300 376 1300 c 0,22,23
 450 1301 450 1301 450 1226 c 256,16,17
651 1226 m 0,24,25
 651 1301 651 1301 726 1301 c 0,26,27
 800 1300 800 1300 800 1226 c 0,28,29
 800 1151 800 1151 725 1151 c 256,30,31
 650 1151 650 1151 651 1226 c 0,24,25
EndSplineSet
EndChar

StartChar: dagger
Encoding: 8224 8224 128
Width: 1050
GlyphClass: 2
Flags: W
LayerCount: 2
Fore
SplineSet
50 850 m 1,0,-1
 50 1000 l 1,1,-1
 450 1000 l 1,2,-1
 450 1400 l 1,3,-1
 600 1400 l 1,4,-1
 600 1000 l 1,5,-1
 1000 1000 l 1,6,-1
 1000 850 l 1,7,-1
 600 850 l 1,8,-1
 600 0 l 1,9,-1
 450 0 l 1,10,-1
 450 850 l 1,11,-1
 50 850 l 1,0,-1
EndSplineSet
EndChar

StartChar: degree
Encoding: 176 176 129
Width: 1100
GlyphClass: 2
Flags: W
LayerCount: 2
Fore
SplineSet
800 950 m 256,0,1
 800 1200 800 1200 550 1200 c 256,2,3
 300 1200 300 1200 300 950 c 256,4,5
 300 700 300 700 550 700 c 256,6,7
 800 700 800 700 800 950 c 256,0,1
201 950 m 256,8,9
 201 1300 201 1300 550 1300 c 0,10,11
 900 1300 900 1300 900 950 c 256,12,13
 900 600 900 600 550 600 c 0,14,15
 201 600 201 600 201 950 c 256,8,9
EndSplineSet
EndChar

StartChar: cent
Encoding: 162 162 130
Width: 1051
GlyphClass: 2
Flags: W
LayerCount: 2
Fore
SplineSet
903 1134 m 1,0,-1
 834 960 l 1,1,2
 896 937 896 937 951 900 c 1,3,-1
 951 700 l 1,4,5
 892 788 892 788 781 825 c 1,6,-1
 519 158 l 1,7,8
 556 150 556 150 601 150 c 0,9,10
 852 150 852 150 951 300 c 1,11,-1
 951 101 l 1,12,13
 799 0 799 0 601 0 c 0,14,15
 525 0 525 0 462 14 c 1,16,-1
 390 -170 l 1,17,-1
 298 -133 l 1,18,-1
 368 46 l 1,19,20
 151 152 151 152 151 500 c 0,21,22
 151 1000 151 1000 601 1000 c 0,23,24
 673 1000 673 1000 738 987 c 1,25,-1
 810 1170 l 1,26,-1
 903 1134 l 1,0,-1
601 850 m 0,27,28
 301 850 301 850 301 500 c 0,29,30
 301 273 301 273 426 194 c 1,31,-1
 682 845 l 1,32,33
 644 850 644 850 601 850 c 0,27,28
EndSplineSet
EndChar

StartChar: sterling
Encoding: 163 163 131
Width: 600
GlyphClass: 2
Flags: W
LayerCount: 2
Fore
SplineSet
300 700 m 1,0,-1
 300 250 l 1,1,-1
 600 150 l 1,2,-1
 600 250 l 1,3,-1
 700 250 l 1,4,-1
 700 150 l 2,5,6
 700 0 700 0 600 0 c 1,7,-1
 300 100 l 1,8,-1
 150 0 l 1,9,10
 0 0 0 0 0 125 c 256,11,12
 0 250 0 250 150 250 c 1,13,-1
 150 700 l 1,14,-1
 29 700 l 1,15,-1
 29 850 l 1,16,-1
 150 850 l 1,17,-1
 150 1050 l 2,18,19
 150 1400 150 1400 450 1400 c 2,20,-1
 600 1400 l 1,21,-1
 600 1250 l 1,22,-1
 450 1250 l 2,23,24
 300 1250 300 1250 300 1051 c 2,25,-1
 300 850 l 1,26,-1
 550 850 l 1,27,-1
 550 700 l 1,28,-1
 300 700 l 1,0,-1
EndSplineSet
EndChar

StartChar: section
Encoding: 167 167 132
Width: 1050
GlyphClass: 2
Flags: W
LayerCount: 2
Fore
SplineSet
551 151 m 256,0,1
 800 151 800 151 800 286 c 0,2,3
 800 420 800 420 551 420 c 0,4,5
 150 420 150 420 150 710 c 0,6,7
 150 852 150 852 246 925 c 1,8,9
 150 998 150 998 150 1140 c 0,10,11
 150 1431 150 1431 550 1431 c 0,12,13
 801 1431 801 1431 901 1331 c 1,14,-1
 901 1130 l 1,15,16
 800 1280 800 1280 551 1280 c 0,17,18
 301 1280 301 1280 301 1140 c 0,19,20
 301 1009 301 1009 520 1001 c 1,21,-1
 550 1001 l 1,22,-1
 550 1000 l 1,23,-1
 551 1000 l 2,24,25
 950 1000 950 1000 950 715 c 0,26,27
 950 570 950 570 854 496 c 1,28,29
 950 425 950 425 950 285 c 0,30,31
 950 0 950 0 551 0 c 0,32,33
 298 0 298 0 150 100 c 1,34,-1
 150 300 l 1,35,36
 302 151 302 151 551 151 c 256,0,1
301 710 m 0,37,38
 301 570 301 570 551 570 c 2,39,-1
 563 570 l 2,40,41
 800 573 800 573 800 716 c 0,42,43
 800 850 800 850 551 850 c 2,44,-1
 537 850 l 1,45,46
 301 846 301 846 301 710 c 0,37,38
EndSplineSet
EndChar

StartChar: bullet
Encoding: 8226 8226 133
Width: 1100
GlyphClass: 2
Flags: W
LayerCount: 2
Fore
SplineSet
200 550 m 256,0,1
 200 900 200 900 549 900 c 0,2,3
 899 900 899 900 899 550 c 256,4,5
 899 200 899 200 549 200 c 0,6,7
 200 200 200 200 200 550 c 256,0,1
EndSplineSet
EndChar

StartChar: paragraph
Encoding: 182 182 134
Width: 1050
GlyphClass: 2
Flags: W
LayerCount: 2
Fore
SplineSet
600 1800 m 2,0,-1
 1050 1800 l 1,1,-1
 1050 1700 l 1,2,-1
 950 1700 l 1,3,-1
 950 0 l 1,4,-1
 850 0 l 1,5,-1
 850 1700 l 1,6,-1
 700 1700 l 1,7,-1
 700 0 l 1,8,-1
 600 0 l 1,9,-1
 600 800 l 1,10,11
 101 801 101 801 101 1297 c 2,12,-1
 101 1301 l 2,13,14
 101 1801 101 1801 600 1800 c 2,0,-1
EndSplineSet
EndChar

StartChar: germandbls
Encoding: 223 223 135
Width: 1050
GlyphClass: 2
Flags: W
LayerCount: 2
Fore
SplineSet
700 975 m 256,0,1
 700 1150 700 1150 500 1150 c 256,2,3
 300 1150 300 1150 300 1000 c 2,4,-1
 300 250 l 2,5,6
 300 0 300 0 50 0 c 1,7,-1
 50 150 l 1,8,9
 150 150 150 150 150 250 c 2,10,-1
 150 1000 l 2,11,12
 150 1300 150 1300 500 1300 c 256,13,14
 850 1300 850 1300 850 975 c 0,15,16
 850 824 850 824 775 743 c 1,17,18
 950 649 950 649 950 400 c 0,19,20
 950 0 950 0 500 0 c 2,21,-1
 400 0 l 1,22,-1
 400 150 l 1,23,-1
 500 150 l 2,24,25
 800 150 800 150 800 400 c 0,26,27
 800 528 800 528 731.5 589 c 128,-1,28
 663 650 663 650 500 650 c 2,29,-1
 400 650 l 1,30,-1
 400 800 l 1,31,-1
 500 800 l 2,32,33
 700 800 700 800 700 975 c 256,0,1
EndSplineSet
EndChar

StartChar: registered
Encoding: 174 174 136
Width: 1500
GlyphClass: 2
Flags: W
LayerCount: 2
Fore
SplineSet
750 1300 m 256,0,1
 1400 1300 1400 1300 1400 650 c 256,2,3
 1400 0 1400 0 750 0 c 256,4,5
 100 0 100 0 100 650 c 256,6,7
 100 1300 100 1300 750 1300 c 256,0,1
750 100 m 256,8,9
 1300 100 1300 100 1300 650 c 256,10,11
 1300 1200 1300 1200 750 1200 c 256,12,13
 200 1200 200 1200 200 650 c 256,14,15
 200 100 200 100 750 100 c 256,8,9
688 1094 m 2,16,17
 997 1094 997 1094 997 819 c 0,18,19
 997 621 997 621 835 565 c 1,20,-1
 1101 201 l 1,21,-1
 973 201 l 1,22,-1
 723 545 l 2,23,24
 722 544 722 544 714 544 c 2,25,-1
 551 544 l 1,26,-1
 551 201 l 1,27,-1
 448 201 l 1,28,-1
 448 1094 l 1,29,-1
 688 1094 l 2,16,17
894 819 m 0,30,31
 894 991 894 991 688 991 c 2,32,-1
 551 991 l 1,33,-1
 551 648 l 1,34,-1
 688 648 l 2,35,36
 894 648 894 648 894 819 c 0,30,31
EndSplineSet
EndChar

StartChar: copyright
Encoding: 169 169 137
Width: 1500
GlyphClass: 2
Flags: W
LayerCount: 2
Fore
SplineSet
750 1300 m 256,0,1
 1400 1300 1400 1300 1400 650 c 256,2,3
 1400 0 1400 0 750 0 c 256,4,5
 100 0 100 0 100 650 c 256,6,7
 100 1300 100 1300 750 1300 c 256,0,1
750 100 m 256,8,9
 1300 100 1300 100 1300 650 c 256,10,11
 1300 1200 1300 1200 750 1200 c 256,12,13
 200 1200 200 1200 200 650 c 256,14,15
 200 100 200 100 750 100 c 256,8,9
397 651 m 0,16,17
 397 1101 397 1101 743 1101 c 0,18,19
 916 1101 916 1101 1021 1031 c 1,20,-1
 1021 893 l 1,21,22
 952 996 952 996 743 996 c 0,23,24
 501 996 501 996 501 650 c 256,25,26
 501 304 501 304 743 304 c 0,27,28
 952 304 952 304 1020 408 c 1,29,-1
 1020 270 l 1,30,31
 915 200 915 200 743 200 c 0,32,33
 397 200 397 200 397 651 c 0,16,17
EndSplineSet
EndChar

StartChar: trademark
Encoding: 8482 8482 138
Width: 1550
GlyphClass: 2
Flags: W
LayerCount: 2
Fore
SplineSet
50 1196 m 1,0,-1
 50 1300 l 1,1,-1
 707 1300 l 1,2,-1
 707 1196 l 1,3,-1
 430 1196 l 1,4,-1
 430 401 l 1,5,-1
 327 401 l 1,6,-1
 327 1196 l 1,7,-1
 50 1196 l 1,0,-1
1364 1095 m 1,8,-1
 1122 678 l 1,9,-1
 880 1095 l 1,10,-1
 880 401 l 1,11,-1
 776 401 l 1,12,-1
 776 1300 l 1,13,-1
 880 1300 l 1,14,-1
 1122 884 l 1,15,-1
 1364 1300 l 1,16,-1
 1468 1300 l 1,17,-1
 1468 401 l 1,18,-1
 1364 401 l 1,19,-1
 1364 1095 l 1,8,-1
EndSplineSet
EndChar

StartChar: glyph139
Encoding: 180 180 139
Width: 0
GlyphClass: 2
Flags: W
LayerCount: 2
Fore
SplineSet
50 1300 m 1,0,-1
 -50 1300 l 1,1,-1
 150 1700 l 1,2,-1
 300 1700 l 1,3,-1
 50 1300 l 1,0,-1
EndSplineSet
EndChar

StartChar: dieresis
Encoding: 168 168 140
Width: 0
GlyphClass: 2
Flags: W
LayerCount: 2
Fore
SplineSet
-100 1376 m 256,0,1
 -100 1301 -100 1301 -174 1301 c 0,2,3
 -249 1300 -249 1300 -249 1375 c 256,4,5
 -249 1450 -249 1450 -174 1450 c 0,6,7
 -100 1451 -100 1451 -100 1376 c 256,0,1
101 1376 m 0,8,9
 101 1451 101 1451 176 1451 c 0,10,11
 250 1450 250 1450 250 1376 c 0,12,13
 250 1301 250 1301 175 1301 c 256,14,15
 100 1301 100 1301 101 1376 c 0,8,9
EndSplineSet
EndChar

StartChar: AE
Encoding: 198 198 141
Width: 1400
GlyphClass: 2
Flags: W
LayerCount: 2
Fore
SplineSet
1350 1300 m 1,0,-1
 1350 1150 l 1,1,-1
 700 1150 l 1,2,-1
 700 800 l 1,3,-1
 1300 800 l 1,4,-1
 1300 650 l 1,5,-1
 700 650 l 1,6,-1
 700 150 l 1,7,-1
 1350 150 l 1,8,-1
 1350 0 l 1,9,-1
 550 0 l 1,10,-1
 550 400 l 1,11,-1
 327 400 l 1,12,-1
 204 0 l 1,13,-1
 48 0 l 1,14,-1
 450 1300 l 1,15,-1
 1350 1300 l 1,0,-1
550 550 m 1,16,-1
 550 1124 l 1,17,-1
 374 550 l 1,18,-1
 550 550 l 1,16,-1
EndSplineSet
EndChar

StartChar: Oslash
Encoding: 216 216 142
Width: 1300
GlyphClass: 2
Flags: W
LayerCount: 2
Fore
SplineSet
1069 1392 m 1,0,-1
 972 1194 l 1,1,2
 1150 1037 1150 1037 1150 650 c 0,3,4
 1150 0 1150 0 650 0 c 0,5,6
 512 0 512 0 412 49 c 1,7,-1
 321 -137 l 1,8,-1
 232 -93 l 1,9,-1
 329 105 l 1,10,11
 150 261 150 261 150 650 c 0,12,13
 150 1300 150 1300 650 1300 c 0,14,15
 788 1300 788 1300 888 1250 c 1,16,-1
 979 1436 l 1,17,-1
 1069 1392 l 1,0,-1
300 650 m 0,18,19
 300 379 300 379 402 255 c 1,20,-1
 819 1110 l 1,21,22
 748 1150 748 1150 650 1150 c 0,23,24
 300 1150 300 1150 300 650 c 0,18,19
650 150 m 0,25,26
 1000 150 1000 150 1000 650 c 0,27,28
 1000 919 1000 919 898 1043 c 1,29,-1
 481 190 l 1,30,31
 551 150 551 150 650 150 c 0,25,26
EndSplineSet
EndChar

StartChar: plusminus
Encoding: 177 177 143
Width: 1250
GlyphClass: 2
Flags: W
LayerCount: 2
Fore
SplineSet
700 699 m 1,0,-1
 700 300 l 1,1,-1
 550 300 l 1,2,-1
 550 700 l 1,3,-1
 150 700 l 1,4,-1
 150 850 l 1,5,-1
 550 850 l 1,6,-1
 550 1250 l 1,7,-1
 700 1250 l 1,8,-1
 700 850 l 1,9,-1
 1100 850 l 1,10,-1
 1100 699 l 1,11,-1
 700 699 l 1,0,-1
150 0 m 1,12,-1
 150 150 l 1,13,-1
 1100 150 l 1,14,-1
 1100 -1 l 1,15,-1
 150 0 l 1,12,-1
EndSplineSet
EndChar

StartChar: yen
Encoding: 165 165 144
Width: 1101
GlyphClass: 2
Flags: W
LayerCount: 2
Fore
SplineSet
100 250 m 1,0,-1
 100 350 l 1,1,-1
 476 350 l 1,2,-1
 476 550 l 1,3,-1
 100 550 l 1,4,-1
 100 650 l 1,5,-1
 463 650 l 1,6,-1
 65 1300 l 1,7,-1
 241 1300 l 1,8,-1
 550 791 l 1,9,-1
 872 1300 l 1,10,-1
 1048 1300 l 1,11,-1
 637 650 l 1,12,-1
 1000 650 l 1,13,-1
 1000 550 l 1,14,-1
 625 550 l 1,15,-1
 625 350 l 1,16,-1
 1000 350 l 1,17,-1
 1000 250 l 1,18,-1
 625 250 l 1,19,-1
 625 0 l 1,20,-1
 476 0 l 1,21,-1
 476 250 l 1,22,-1
 100 250 l 1,0,-1
EndSplineSet
EndChar

StartChar: mu
Encoding: 181 181 145
Width: 1100
GlyphClass: 2
Flags: W
LayerCount: 2
Fore
SplineSet
550 150 m 256,0,1
 800 150 800 150 800 400 c 2,2,-1
 800 1000 l 1,3,-1
 950 1000 l 1,4,-1
 950 0 l 1,5,-1
 800 0 l 1,6,-1
 800 100 l 1,7,8
 700 0 700 0 550 0 c 0,9,10
 395 0 395 0 300 60 c 1,11,-1
 300 -350 l 1,12,-1
 150 -350 l 1,13,-1
 150 1000 l 1,14,-1
 300 1000 l 1,15,-1
 300 400 l 2,16,17
 300 150 300 150 550 150 c 256,0,1
EndSplineSet
EndChar

StartChar: ordfeminine
Encoding: 170 170 146
Width: 1050
GlyphClass: 2
Flags: W
LayerCount: 2
Fore
SplineSet
100 915 m 0,0,1
 100 1108 100 1108 403 1108 c 2,2,-1
 459 1108 l 1,3,-1
 459 1136 l 2,4,5
 459 1218 459 1218 321 1218 c 0,6,7
 231 1218 231 1218 128 1191 c 1,8,-1
 128 1273 l 1,9,10
 232 1301 232 1301 321 1301 c 0,11,12
 542 1301 542 1301 542 1136 c 2,13,-1
 542 751 l 1,14,-1
 459 751 l 1,15,-1
 459 838 l 1,16,-1
 452 833 l 1,17,18
 348 750 348 750 266 750 c 0,19,20
 100 750 100 750 100 915 c 0,0,1
183 915 m 0,21,22
 183 833 183 833 266 833 c 0,23,24
 321 833 321 833 390 888 c 2,25,-1
 459 943 l 1,26,-1
 459 1025 l 1,27,-1
 403 1025 l 2,28,29
 183 1025 183 1025 183 915 c 0,21,22
100 700 m 1,30,-1
 550 700 l 1,31,-1
 550 650 l 1,32,-1
 100 650 l 1,33,-1
 100 700 l 1,30,-1
EndSplineSet
EndChar

StartChar: ordmasculine
Encoding: 186 186 147
Width: 1050
GlyphClass: 2
Flags: W
LayerCount: 2
Fore
SplineSet
100 700 m 1,0,-1
 550 700 l 1,1,-1
 550 650 l 1,2,-1
 100 650 l 1,3,-1
 100 700 l 1,0,-1
325 1300 m 256,4,5
 550 1300 550 1300 550 1025 c 0,6,7
 549 750 549 750 324 750 c 2,8,-1
 323 750 l 2,9,10
 100 750 100 750 100 1023 c 2,11,-1
 100 1025 l 2,12,13
 100 1300 100 1300 325 1300 c 256,4,5
324 832 m 0,14,15
 465 832 465 832 465 1024 c 2,16,-1
 465 1027 l 2,17,18
 465 1217 465 1217 324 1217 c 0,19,20
 184 1217 184 1217 184 1024 c 0,21,22
 184 832 184 832 324 832 c 0,14,15
EndSplineSet
EndChar

StartChar: ae
Encoding: 230 230 148
Width: 1650
GlyphClass: 2
Flags: W
LayerCount: 2
Fore
SplineSet
1151 1001 m 0,0,1
 1551 1001 1551 1001 1551 601 c 2,2,-1
 1551 450 l 1,3,-1
 901 450 l 1,4,5
 919 150 919 150 1150 150 c 0,6,7
 1399 150 1399 150 1551 300 c 1,8,-1
 1551 101 l 1,9,10
 1400 1 1400 1 1150 1 c 2,11,-1
 1148 1 l 2,12,13
 896 1 896 1 804 200 c 1,14,-1
 738 150 l 1,15,16
 550 0 550 0 400 0 c 0,17,18
 100 0 100 0 100 300 c 0,19,20
 100 650 100 650 650 650 c 2,21,-1
 751 650 l 1,22,-1
 751 701 l 2,23,24
 751 851 751 851 500 851 c 0,25,26
 337 851 337 851 151 801 c 1,27,-1
 151 951 l 1,28,29
 339 1001 339 1001 501 1001 c 0,30,31
 759 1001 759 1001 851 876 c 1,32,33
 951 1001 951 1001 1151 1001 c 0,0,1
251 300 m 0,34,35
 251 151 251 151 401 151 c 0,36,37
 500 151 500 151 625 250 c 2,38,-1
 750 350 l 1,39,-1
 750 500 l 1,40,-1
 650 500 l 2,41,42
 251 500 251 500 251 300 c 0,34,35
1151 851 m 0,43,44
 941 851 941 851 906 600 c 1,45,-1
 1400 600 l 1,46,-1
 1400 603 l 2,47,48
 1400 849 1400 849 1151 851 c 0,43,44
EndSplineSet
EndChar

StartChar: oslash
Encoding: 248 248 149
Width: 1100
GlyphClass: 2
Flags: W
LayerCount: 2
Fore
SplineSet
853 1134 m 1,0,-1
 777 942 l 1,1,2
 951 830 951 830 951 501 c 0,3,4
 949 1 949 1 550 1 c 2,5,-1
 548 1 l 2,6,7
 474 1 474 1 414 18 c 1,8,-1
 340 -170 l 1,9,-1
 248 -133 l 1,10,-1
 323 58 l 1,11,12
 151 170 151 170 151 497 c 2,13,-1
 151 501 l 2,14,15
 151 1001 151 1001 551 1001 c 0,16,17
 626 1001 626 1001 686 983 c 1,18,-1
 760 1170 l 1,19,-1
 853 1134 l 1,0,-1
550 850 m 0,20,21
 300 850 300 850 300 500 c 0,22,23
 300 297 300 297 383 212 c 1,24,-1
 630 839 l 1,25,26
 593 850 593 850 550 850 c 0,20,21
550 150 m 0,27,28
 800 150 800 150 800 500 c 2,29,-1
 800 504 l 2,30,31
 800 703 800 703 717 788 c 1,32,-1
 470 160 l 1,33,34
 506 150 506 150 550 150 c 0,27,28
EndSplineSet
EndChar

StartChar: questiondown
Encoding: 191 191 150
Width: 1100
GlyphClass: 2
Flags: W
LayerCount: 2
Fore
SplineSet
151 400 m 0,0,1
 151 750 151 750 501 750 c 1,2,-1
 501 1000 l 1,3,-1
 651 1000 l 1,4,-1
 651 600 l 1,5,-1
 501 600 l 2,6,7
 301 600 301 600 301 399 c 0,8,9
 301 149 301 149 551 149 c 256,10,11
 801 149 801 149 801 300 c 1,12,-1
 951 300 l 1,13,14
 951 0 951 0 551 0 c 2,15,-1
 548 0 l 2,16,17
 151 0 151 0 151 400 c 0,0,1
576 1300 m 256,18,19
 651 1300 651 1300 651 1225 c 256,20,21
 651 1150 651 1150 576 1150 c 256,22,23
 501 1150 501 1150 501 1225 c 256,24,25
 501 1300 501 1300 576 1300 c 256,18,19
EndSplineSet
EndChar

StartChar: exclamdown
Encoding: 161 161 151
Width: 450
GlyphClass: 2
Flags: W
LayerCount: 2
Fore
SplineSet
301 100 m 256,0,1
 301 0 301 0 251 0 c 2,2,-1
 201 0 l 2,3,4
 151 0 151 0 151 100 c 256,5,6
 151 200 151 200 163.5 424 c 128,-1,7
 176 648 176 648 201 1000 c 1,8,-1
 251 1000 l 1,9,10
 276 648 276 648 288.5 424 c 128,-1,11
 301 200 301 200 301 100 c 256,0,1
150 1224 m 256,12,13
 150 1256 150 1256 172 1278 c 256,14,15
 194 1300 194 1300 225 1300 c 0,16,17
 257 1300 257 1300 279 1278 c 256,18,19
 301 1256 301 1256 301 1224 c 256,20,21
 301 1192 301 1192 279 1170 c 256,22,23
 257 1148 257 1148 225 1148 c 0,24,25
 194 1148 194 1148 172 1170 c 256,26,27
 150 1192 150 1192 150 1224 c 256,12,13
EndSplineSet
EndChar

StartChar: logicalnot
Encoding: 172 172 152
Width: 1001
GlyphClass: 2
Flags: W
LayerCount: 2
Fore
SplineSet
1 850 m 1,0,-1
 1 1000 l 1,1,-1
 1001 1000 l 1,2,-1
 1001 500 l 1,3,-1
 851 500 l 1,4,-1
 851 850 l 1,5,-1
 1 850 l 1,0,-1
EndSplineSet
EndChar

StartChar: florin
Encoding: 402 402 153
Width: 600
GlyphClass: 2
Flags: W
LayerCount: 2
Fore
SplineSet
300 850 m 1,0,-1
 300 350 l 2,1,2
 300 0 300 0 0 0 c 2,3,-1
 -150 0 l 1,4,-1
 -150 150 l 1,5,-1
 0 150 l 2,6,7
 150 150 150 150 150 349 c 2,8,-1
 150 850 l 1,9,-1
 29 850 l 1,10,-1
 29 1000 l 1,11,-1
 150 1000 l 1,12,-1
 150 1050 l 2,13,14
 150 1400 150 1400 450 1400 c 2,15,-1
 600 1400 l 1,16,-1
 600 1250 l 1,17,-1
 450 1250 l 2,18,19
 300 1250 300 1250 300 1051 c 2,20,-1
 300 1000 l 1,21,-1
 550 1000 l 1,22,-1
 550 850 l 1,23,-1
 300 850 l 1,0,-1
EndSplineSet
EndChar

StartChar: guillemotleft
Encoding: 171 171 154
Width: 950
GlyphClass: 2
Flags: W
LayerCount: 2
Fore
SplineSet
499 601 m 1,0,-1
 300 401 l 1,1,-1
 499 200 l 1,2,-1
 499 100 l 1,3,-1
 100 401 l 1,4,-1
 499 701 l 1,5,-1
 499 601 l 1,0,-1
849 601 m 1,6,-1
 650 401 l 1,7,-1
 849 200 l 1,8,-1
 849 100 l 1,9,-1
 450 401 l 1,10,-1
 849 701 l 1,11,-1
 849 601 l 1,6,-1
EndSplineSet
EndChar

StartChar: guillemotright
Encoding: 187 187 155
Width: 950
GlyphClass: 2
Flags: W
LayerCount: 2
Fore
SplineSet
451 199 m 1,0,-1
 650 399 l 1,1,-1
 451 600 l 1,2,-1
 451 700 l 1,3,-1
 850 399 l 1,4,-1
 451 99 l 1,5,-1
 451 199 l 1,0,-1
101 199 m 1,6,-1
 300 399 l 1,7,-1
 101 600 l 1,8,-1
 101 700 l 1,9,-1
 500 399 l 1,10,-1
 101 99 l 1,11,-1
 101 199 l 1,6,-1
EndSplineSet
EndChar

StartChar: ellipsis
Encoding: 8230 8230 156
Width: 1750
GlyphClass: 2
Flags: W
LayerCount: 2
Fore
SplineSet
1600 75 m 256,0,1
 1600 44 1600 44 1578 22 c 128,-1,2
 1556 0 1556 0 1525 0 c 256,3,4
 1494 0 1494 0 1472 22 c 128,-1,5
 1450 44 1450 44 1450 75 c 256,6,7
 1450 106 1450 106 1472 128 c 128,-1,8
 1494 150 1494 150 1525 150 c 256,9,10
 1556 150 1556 150 1578 128 c 128,-1,11
 1600 106 1600 106 1600 75 c 256,0,1
952 75 m 256,12,13
 952 44 952 44 930 22 c 128,-1,14
 908 0 908 0 877 0 c 256,15,16
 846 0 846 0 824 22 c 128,-1,17
 802 44 802 44 802 75 c 256,18,19
 802 106 802 106 824 128 c 128,-1,20
 846 150 846 150 877 150 c 256,21,22
 908 150 908 150 930 128 c 128,-1,23
 952 106 952 106 952 75 c 256,12,13
300 75 m 256,24,25
 300 44 300 44 278 22 c 128,-1,26
 256 0 256 0 225 0 c 256,27,28
 194 0 194 0 172 22 c 128,-1,29
 150 44 150 44 150 75 c 256,30,31
 150 106 150 106 172 128 c 128,-1,32
 194 150 194 150 225 150 c 256,33,34
 256 150 256 150 278 128 c 128,-1,35
 300 106 300 106 300 75 c 256,24,25
EndSplineSet
EndChar

StartChar: Agrave
Encoding: 192 192 158
Width: 1100
GlyphClass: 2
Flags: W
LayerCount: 2
Fore
SplineSet
1062 0 m 1,0,-1
 905 0 l 1,1,-1
 778 400 l 1,2,-1
 327 400 l 1,3,-1
 204 0 l 1,4,-1
 48 0 l 1,5,-1
 450 1300 l 1,6,-1
 650 1300 l 1,7,-1
 1062 0 l 1,0,-1
731 550 m 1,8,-1
 550 1124 l 1,9,-1
 374 550 l 1,10,-1
 731 550 l 1,8,-1
700 1400 m 1,11,-1
 600 1400 l 1,12,-1
 300 1750 l 1,13,-1
 450 1750 l 1,14,-1
 700 1400 l 1,11,-1
EndSplineSet
EndChar

StartChar: Atilde
Encoding: 195 195 159
Width: 1100
GlyphClass: 2
Flags: W
LayerCount: 2
Fore
SplineSet
1062 0 m 1,0,-1
 905 0 l 1,1,-1
 778 400 l 1,2,-1
 327 400 l 1,3,-1
 204 0 l 1,4,-1
 48 0 l 1,5,-1
 450 1300 l 1,6,-1
 650 1300 l 1,7,-1
 1062 0 l 1,0,-1
731 550 m 1,8,-1
 550 1124 l 1,9,-1
 374 550 l 1,10,-1
 731 550 l 1,8,-1
706 1400 m 0,11,12
 608 1400 608 1400 531 1450 c 256,13,14
 454 1500 454 1500 406 1500 c 0,15,16
 357 1500 357 1500 357 1400 c 1,17,-1
 256 1400 l 1,18,19
 256 1600 256 1600 406 1600 c 0,20,21
 504 1600 504 1600 581 1550 c 256,22,23
 658 1500 658 1500 706 1500 c 0,24,25
 756 1500 756 1500 756 1600 c 1,26,-1
 856 1600 l 1,27,28
 856 1400 856 1400 706 1400 c 0,11,12
EndSplineSet
EndChar

StartChar: Otilde
Encoding: 213 213 160
Width: 1300
GlyphClass: 2
Flags: W
LayerCount: 2
Fore
SplineSet
150 650 m 256,0,1
 150 1300 150 1300 650 1300 c 256,2,3
 1150 1300 1150 1300 1150 650 c 256,4,5
 1150 0 1150 0 650 0 c 256,6,7
 150 0 150 0 150 650 c 256,0,1
300 650 m 256,8,9
 300 150 300 150 650 150 c 256,10,11
 1000 150 1000 150 1000 650 c 256,12,13
 1000 1150 1000 1150 650 1150 c 256,14,15
 300 1150 300 1150 300 650 c 256,8,9
796 1400 m 0,16,17
 698 1400 698 1400 621 1450 c 256,18,19
 544 1500 544 1500 496 1500 c 0,20,21
 447 1500 447 1500 447 1400 c 1,22,-1
 346 1400 l 1,23,24
 346 1600 346 1600 496 1600 c 0,25,26
 594 1600 594 1600 671 1550 c 256,27,28
 748 1500 748 1500 796 1500 c 0,29,30
 846 1500 846 1500 846 1600 c 1,31,-1
 946 1600 l 1,32,33
 946 1400 946 1400 796 1400 c 0,16,17
EndSplineSet
EndChar

StartChar: OE
Encoding: 338 338 161
Width: 1600
GlyphClass: 2
Flags: W
LayerCount: 2
Fore
SplineSet
1500 1300 m 1,0,-1
 1500 1150 l 1,1,-1
 850 1150 l 1,2,-1
 850 800 l 1,3,-1
 1450 800 l 1,4,-1
 1450 650 l 1,5,-1
 850 650 l 1,6,-1
 850 150 l 1,7,-1
 1500 150 l 1,8,-1
 1500 0 l 1,9,-1
 650 0 l 2,10,11
 150 0 150 0 150 651 c 0,12,13
 150 1300 150 1300 650 1300 c 2,14,-1
 1500 1300 l 1,0,-1
300 650 m 256,15,16
 300 150 300 150 650 150 c 2,17,-1
 700 150 l 1,18,-1
 700 1150 l 1,19,-1
 650 1150 l 2,20,21
 300 1150 300 1150 300 650 c 256,15,16
EndSplineSet
EndChar

StartChar: oe
Encoding: 339 339 162
Width: 1700
GlyphClass: 2
Flags: W
LayerCount: 2
Fore
SplineSet
1200 1001 m 0,0,1
 1600 1001 1600 1001 1600 601 c 2,2,-1
 1600 450 l 1,3,-1
 950 450 l 1,4,5
 968 150 968 150 1199 150 c 0,6,7
 1448 150 1448 150 1600 300 c 1,8,-1
 1600 101 l 1,9,10
 1449 1 1449 1 1199 1 c 2,11,-1
 1197 1 l 2,12,13
 971 1 971 1 874 161 c 1,14,15
 776 1 776 1 550 1 c 2,16,-1
 548 1 l 2,17,18
 151 1 151 1 151 497 c 2,19,-1
 151 501 l 2,20,21
 151 1001 151 1001 551 1001 c 0,22,23
 777 1001 777 1001 875 840 c 1,24,25
 973 1001 973 1001 1200 1001 c 0,0,1
550 150 m 0,26,27
 799 150 799 150 800 497 c 2,28,-1
 800 501 l 1,29,-1
 800 504 l 2,30,31
 800 850 800 850 550 850 c 256,32,33
 300 850 300 850 300 500 c 256,34,35
 300 150 300 150 550 150 c 0,26,27
1200 851 m 0,36,37
 990 851 990 851 955 600 c 1,38,-1
 1449 600 l 1,39,-1
 1449 603 l 2,40,41
 1449 849 1449 849 1200 851 c 0,36,37
EndSplineSet
EndChar

StartChar: endash
Encoding: 8211 8211 163
Width: 1100
GlyphClass: 2
Flags: W
LayerCount: 2
Fore
SplineSet
0 550 m 1,0,-1
 0 700 l 1,1,-1
 1100 700 l 1,2,-1
 1100 550 l 1,3,-1
 0 550 l 1,0,-1
EndSplineSet
EndChar

StartChar: emdash
Encoding: 8212 8212 164
Width: 1800
GlyphClass: 2
Flags: W
LayerCount: 2
Fore
SplineSet
0 850 m 1,0,-1
 1800 850 l 1,1,-1
 1800 700 l 1,2,-1
 0 700 l 1,3,-1
 0 850 l 1,0,-1
EndSplineSet
EndChar

StartChar: quotedblleft
Encoding: 8220 8220 165
Width: 650
GlyphClass: 2
Flags: W
LayerCount: 2
Fore
SplineSet
333 939 m 1,0,-1
 286 918 l 1,1,2
 126 1146 126 1146 104 1194 c 0,3,4
 73 1260 73 1260 142 1292 c 0,5,6
 209 1323 209 1323 240 1256 c 1,7,-1
 241 1253 l 1,8,9
 257 1219 257 1219 280 1141 c 128,-1,10
 303 1063 303 1063 333 939 c 1,0,-1
593 939 m 1,11,-1
 546 918 l 1,12,13
 386 1146 386 1146 364 1194 c 0,14,15
 333 1260 333 1260 402 1292 c 0,16,17
 469 1323 469 1323 500 1256 c 1,18,-1
 501 1253 l 1,19,20
 517 1219 517 1219 540 1141 c 128,-1,21
 563 1063 563 1063 593 939 c 1,11,-1
EndSplineSet
EndChar

StartChar: quotedblright
Encoding: 8221 8221 166
Width: 650
GlyphClass: 2
Flags: W
LayerCount: 2
Fore
SplineSet
133 954 m 1,0,-1
 94 987 l 1,1,2
 231 1229 231 1229 265 1270 c 0,3,4
 312 1326 312 1326 370 1277 c 0,5,6
 427 1230 427 1230 380 1173 c 1,7,-1
 377 1171 l 1,8,9
 353 1142 353 1142 292.5 1088 c 128,-1,10
 232 1034 232 1034 133 954 c 1,0,-1
411 953 m 1,11,-1
 372 986 l 1,12,13
 509 1229 509 1229 543 1269 c 0,14,15
 590 1325 590 1325 648 1277 c 0,16,17
 705 1229 705 1229 657 1173 c 1,18,-1
 655 1170 l 2,19,20
 631 1141 631 1141 570.5 1087 c 128,-1,21
 510 1033 510 1033 411 953 c 1,11,-1
EndSplineSet
EndChar

StartChar: quoteleft
Encoding: 8216 8216 167
Width: 448
GlyphClass: 2
Flags: W
LayerCount: 2
Fore
SplineSet
332 939 m 1,0,-1
 285 918 l 1,1,2
 125 1146 125 1146 103 1194 c 0,3,4
 72 1260 72 1260 141 1292 c 0,5,6
 208 1323 208 1323 239 1256 c 1,7,-1
 240 1253 l 1,8,9
 256 1219 256 1219 279 1141 c 128,-1,10
 302 1063 302 1063 332 939 c 1,0,-1
EndSplineSet
EndChar

StartChar: quoteright
Encoding: 8217 8217 168
Width: 495
GlyphClass: 2
Flags: W
LayerCount: 2
Fore
SplineSet
132 954 m 1,0,-1
 93 987 l 1,1,2
 230 1229 230 1229 264 1270 c 0,3,4
 311 1326 311 1326 369 1277 c 0,5,6
 426 1230 426 1230 379 1173 c 1,7,-1
 376 1171 l 1,8,9
 352 1142 352 1142 291.5 1088 c 128,-1,10
 231 1034 231 1034 132 954 c 1,0,-1
EndSplineSet
EndChar

StartChar: divide
Encoding: 247 247 169
Width: 1150
GlyphClass: 2
Flags: W
LayerCount: 2
Fore
SplineSet
1000 450 m 1,0,-1
 150 450 l 1,1,-1
 150 600 l 1,2,-1
 1000 600 l 1,3,-1
 1000 450 l 1,0,-1
650 225 m 256,4,5
 650 194 650 194 628 172 c 128,-1,6
 606 150 606 150 575 150 c 256,7,8
 544 150 544 150 522 172 c 128,-1,9
 500 194 500 194 500 225 c 256,10,11
 500 256 500 256 522 278 c 128,-1,12
 544 300 544 300 575 300 c 256,13,14
 606 300 606 300 628 278 c 128,-1,15
 650 256 650 256 650 225 c 256,4,5
650 825 m 256,16,17
 650 794 650 794 628 772 c 128,-1,18
 606 750 606 750 575 750 c 256,19,20
 544 750 544 750 522 772 c 128,-1,21
 500 794 500 794 500 825 c 256,22,23
 500 856 500 856 522 878 c 128,-1,24
 544 900 544 900 575 900 c 256,25,26
 606 900 606 900 628 878 c 128,-1,27
 650 856 650 856 650 825 c 256,16,17
EndSplineSet
EndChar

StartChar: ydieresis
Encoding: 255 255 170
Width: 1100
GlyphClass: 2
Flags: W
LayerCount: 2
Fore
SplineSet
258 -400 m 1,0,-1
 467 89 l 1,1,-1
 90 1000 l 1,2,-1
 252 1000 l 1,3,-1
 550 284 l 1,4,-1
 856 1000 l 1,5,-1
 1019 1000 l 1,6,-1
 421 -400 l 1,7,-1
 258 -400 l 1,0,-1
450 1226 m 256,8,9
 450 1151 450 1151 376 1151 c 0,10,11
 301 1150 301 1150 301 1225 c 256,12,13
 301 1300 301 1300 376 1300 c 0,14,15
 450 1301 450 1301 450 1226 c 256,8,9
651 1226 m 0,16,17
 651 1301 651 1301 726 1301 c 0,18,19
 800 1300 800 1300 800 1226 c 0,20,21
 800 1151 800 1151 725 1151 c 256,22,23
 650 1151 650 1151 651 1226 c 0,16,17
EndSplineSet
EndChar

StartChar: Ydieresis
Encoding: 376 376 171
Width: 1101
GlyphClass: 2
Flags: W
LayerCount: 2
Fore
SplineSet
65 1300 m 1,0,-1
 241 1300 l 1,1,-1
 550 791 l 1,2,-1
 872 1300 l 1,3,-1
 1048 1300 l 1,4,-1
 625 630 l 1,5,-1
 625 0 l 1,6,-1
 476 0 l 1,7,-1
 476 629 l 1,8,-1
 65 1300 l 1,0,-1
450 1476 m 256,9,10
 450 1401 450 1401 376 1401 c 0,11,12
 301 1400 301 1400 301 1475 c 256,13,14
 301 1550 301 1550 376 1550 c 0,15,16
 450 1551 450 1551 450 1476 c 256,9,10
651 1476 m 0,17,18
 651 1551 651 1551 726 1551 c 0,19,20
 800 1550 800 1550 800 1476 c 0,21,22
 800 1401 800 1401 725 1401 c 256,23,24
 650 1401 650 1401 651 1476 c 0,17,18
EndSplineSet
EndChar

StartChar: currency
Encoding: 164 164 172
Width: 1100
GlyphClass: 2
Flags: W
LayerCount: 2
Fore
SplineSet
266 905 m 1,0,-1
 326 844 l 1,1,2
 410 900 410 900 549 900 c 0,3,4
 689 900 689 900 773 844 c 1,5,-1
 833 903 l 1,6,-1
 904 833 l 1,7,-1
 843 773 l 1,8,9
 899 689 899 689 899 550 c 256,10,11
 899 411 899 411 844 327 c 1,12,-1
 903 268 l 1,13,-1
 832 197 l 1,14,-1
 773 256 l 1,15,16
 689 200 689 200 549 200 c 0,17,18
 410 200 410 200 326 255 c 1,19,-1
 267 196 l 1,20,-1
 196 267 l 1,21,-1
 255 326 l 1,22,23
 199 410 199 410 199 550 c 256,24,25
 199 690 199 690 255 774 c 1,26,-1
 196 834 l 1,27,-1
 266 905 l 1,0,-1
799 550 m 256,28,29
 799 800 799 800 549 800 c 256,30,31
 299 800 299 800 299 550 c 256,32,33
 299 300 299 300 549 300 c 256,34,35
 799 300 799 300 799 550 c 256,28,29
EndSplineSet
EndChar

StartChar: guilsinglleft
Encoding: 8249 8249 173
Width: 600
GlyphClass: 2
Flags: W
LayerCount: 2
Fore
SplineSet
500 600 m 1,0,-1
 300 400 l 1,1,-1
 500 200 l 1,2,-1
 500 100 l 1,3,-1
 100 400 l 1,4,-1
 500 700 l 1,5,-1
 500 600 l 1,0,-1
EndSplineSet
EndChar

StartChar: guilsinglright
Encoding: 8250 8250 174
Width: 600
GlyphClass: 2
Flags: W
LayerCount: 2
Fore
SplineSet
100 200 m 1,0,-1
 299 400 l 1,1,-1
 100 600 l 1,2,-1
 100 700 l 1,3,-1
 500 400 l 1,4,-1
 100 100 l 1,5,-1
 100 200 l 1,0,-1
EndSplineSet
EndChar

StartChar: daggerdbl
Encoding: 8225 8225 175
Width: 1250
GlyphClass: 2
Flags: W
LayerCount: 2
Fore
SplineSet
700 -1 m 1,0,-1
 700 -400 l 1,1,-1
 550 -400 l 1,2,-1
 550 0 l 1,3,-1
 150 0 l 1,4,-1
 150 150 l 1,5,-1
 550 150 l 1,6,-1
 550 600 l 1,7,-1
 150 600 l 1,8,-1
 150 750 l 1,9,-1
 550 750 l 1,10,-1
 550 1150 l 1,11,-1
 700 1150 l 1,12,-1
 700 750 l 1,13,-1
 1100 750 l 1,14,-1
 1100 599 l 1,15,-1
 700 599 l 1,16,-1
 700 150 l 1,17,-1
 1100 150 l 1,18,-1
 1100 -1 l 1,19,-1
 700 -1 l 1,0,-1
EndSplineSet
EndChar

StartChar: periodcentered
Encoding: 183 183 176
Width: 600
GlyphClass: 2
Flags: W
LayerCount: 2
Fore
SplineSet
500 500 m 256,0,1
 500 300 500 300 300 300 c 256,2,3
 100 300 100 300 100 500 c 256,4,5
 100 700 100 700 300 700 c 256,6,7
 500 700 500 700 500 500 c 256,0,1
EndSplineSet
EndChar

StartChar: quotesinglbase
Encoding: 8218 8218 177
Width: 450
GlyphClass: 2
Flags: W
LayerCount: 2
Fore
SplineSet
344 10 m 0,0,1
 344 -11 344 -11 331 -33 c 2,2,-1
 196 -267 l 1,3,-1
 108 -238 l 1,4,-1
 158 42 l 2,5,6
 164 67 164 67 185.5 83 c 128,-1,7
 207 99 207 99 233 99 c 0,8,9
 272 99 272 99 306 74 c 0,10,11
 344 47 344 47 344 10 c 0,0,1
EndSplineSet
EndChar

StartChar: quotedblbase
Encoding: 8222 8222 178
Width: 800
GlyphClass: 2
Flags: W
LayerCount: 2
Fore
SplineSet
344 10 m 0,0,1
 344 -11 344 -11 331 -33 c 2,2,-1
 196 -267 l 1,3,-1
 108 -238 l 1,4,-1
 158 42 l 2,5,6
 164 67 164 67 185.5 83 c 128,-1,7
 207 99 207 99 233 99 c 0,8,9
 272 99 272 99 306 74 c 0,10,11
 344 47 344 47 344 10 c 0,0,1
686 10 m 0,12,13
 686 -11 686 -11 673 -33 c 2,14,-1
 538 -267 l 1,15,-1
 450 -238 l 1,16,-1
 500 42 l 2,17,18
 506 67 506 67 527.5 83 c 128,-1,19
 549 99 549 99 575 99 c 0,20,21
 614 99 614 99 648 74 c 0,22,23
 686 47 686 47 686 10 c 0,12,13
EndSplineSet
EndChar

StartChar: perthousand
Encoding: 8240 8240 179
Width: 2050
GlyphClass: 2
Flags: W
LayerCount: 2
Fore
SplineSet
294 -204 m 1,0,-1
 150 -124 l 1,1,-1
 1045 1492 l 1,2,-1
 1190 1413 l 1,3,-1
 294 -204 l 1,0,-1
975 451 m 0,4,5
 1200 451 1200 451 1200 226 c 256,6,7
 1200 1 1200 1 976 1 c 0,8,9
 751 1 751 1 751 226 c 2,10,-1
 751 229 l 2,11,12
 751 451 751 451 975 451 c 0,4,5
1050 225 m 256,13,14
 1050 300 1050 300 975 300 c 256,15,16
 900 300 900 300 900 225 c 256,17,18
 900 150 900 150 975 150 c 256,19,20
 1050 150 1050 150 1050 225 c 256,13,14
375 1301 m 0,21,22
 600 1301 600 1301 600 1076 c 256,23,24
 600 851 600 851 376 851 c 0,25,26
 151 851 151 851 151 1076 c 2,27,-1
 151 1079 l 2,28,29
 151 1301 151 1301 375 1301 c 0,21,22
450 1075 m 256,30,31
 450 1150 450 1150 375 1150 c 256,32,33
 300 1150 300 1150 300 1075 c 256,34,35
 300 1000 300 1000 375 1000 c 256,36,37
 450 1000 450 1000 450 1075 c 256,30,31
1675 451 m 0,38,39
 1900 451 1900 451 1900 226 c 256,40,41
 1900 1 1900 1 1676 1 c 0,42,43
 1451 1 1451 1 1451 226 c 2,44,-1
 1451 229 l 2,45,46
 1451 451 1451 451 1675 451 c 0,38,39
1750 225 m 256,47,48
 1750 300 1750 300 1675 300 c 256,49,50
 1600 300 1600 300 1600 225 c 256,51,52
 1600 150 1600 150 1675 150 c 256,53,54
 1750 150 1750 150 1750 225 c 256,47,48
EndSplineSet
EndChar

StartChar: Acircumflex
Encoding: 194 194 180
Width: 1100
GlyphClass: 2
Flags: W
LayerCount: 2
Fore
SplineSet
1062 0 m 1,0,-1
 905 0 l 1,1,-1
 778 400 l 1,2,-1
 327 400 l 1,3,-1
 204 0 l 1,4,-1
 48 0 l 1,5,-1
 450 1300 l 1,6,-1
 650 1300 l 1,7,-1
 1062 0 l 1,0,-1
731 550 m 1,8,-1
 550 1124 l 1,9,-1
 374 550 l 1,10,-1
 731 550 l 1,8,-1
751 1401 m 1,11,-1
 551 1600 l 1,12,-1
 350 1401 l 1,13,-1
 250 1401 l 1,14,-1
 551 1800 l 1,15,-1
 851 1401 l 1,16,-1
 751 1401 l 1,11,-1
EndSplineSet
EndChar

StartChar: Ecircumflex
Encoding: 202 202 181
Width: 1049
GlyphClass: 2
Flags: W
LayerCount: 2
Fore
SplineSet
950 1300 m 1,0,-1
 950 1150 l 1,1,-1
 300 1150 l 1,2,-1
 300 800 l 1,3,-1
 900 800 l 1,4,-1
 900 650 l 1,5,-1
 300 650 l 1,6,-1
 300 150 l 1,7,-1
 950 150 l 1,8,-1
 950 0 l 1,9,-1
 150 0 l 1,10,-1
 150 1300 l 1,11,-1
 950 1300 l 1,0,-1
751 1401 m 1,12,-1
 551 1600 l 1,13,-1
 350 1401 l 1,14,-1
 250 1401 l 1,15,-1
 551 1800 l 1,16,-1
 851 1401 l 1,17,-1
 751 1401 l 1,12,-1
EndSplineSet
EndChar

StartChar: Aacute
Encoding: 193 193 182
Width: 1100
GlyphClass: 2
Flags: W
LayerCount: 2
Fore
SplineSet
1062 0 m 1,0,-1
 905 0 l 1,1,-1
 778 400 l 1,2,-1
 327 400 l 1,3,-1
 204 0 l 1,4,-1
 48 0 l 1,5,-1
 450 1300 l 1,6,-1
 650 1300 l 1,7,-1
 1062 0 l 1,0,-1
731 550 m 1,8,-1
 550 1124 l 1,9,-1
 374 550 l 1,10,-1
 731 550 l 1,8,-1
550 1400 m 1,11,-1
 450 1400 l 1,12,-1
 650 1800 l 1,13,-1
 800 1800 l 1,14,-1
 550 1400 l 1,11,-1
EndSplineSet
EndChar

StartChar: Edieresis
Encoding: 203 203 183
Width: 1049
GlyphClass: 2
Flags: W
LayerCount: 2
Fore
SplineSet
950 1300 m 1,0,-1
 950 1150 l 1,1,-1
 300 1150 l 1,2,-1
 300 800 l 1,3,-1
 900 800 l 1,4,-1
 900 650 l 1,5,-1
 300 650 l 1,6,-1
 300 150 l 1,7,-1
 950 150 l 1,8,-1
 950 0 l 1,9,-1
 150 0 l 1,10,-1
 150 1300 l 1,11,-1
 950 1300 l 1,0,-1
450 1476 m 256,12,13
 450 1401 450 1401 376 1401 c 0,14,15
 301 1400 301 1400 301 1475 c 256,16,17
 301 1550 301 1550 376 1550 c 0,18,19
 450 1551 450 1551 450 1476 c 256,12,13
651 1476 m 0,20,21
 651 1551 651 1551 726 1551 c 0,22,23
 800 1550 800 1550 800 1476 c 0,24,25
 800 1401 800 1401 725 1401 c 256,26,27
 650 1401 650 1401 651 1476 c 0,20,21
EndSplineSet
EndChar

StartChar: Egrave
Encoding: 200 200 184
Width: 1049
GlyphClass: 2
Flags: W
LayerCount: 2
Fore
SplineSet
950 1300 m 1,0,-1
 950 1150 l 1,1,-1
 300 1150 l 1,2,-1
 300 800 l 1,3,-1
 900 800 l 1,4,-1
 900 650 l 1,5,-1
 300 650 l 1,6,-1
 300 150 l 1,7,-1
 950 150 l 1,8,-1
 950 0 l 1,9,-1
 150 0 l 1,10,-1
 150 1300 l 1,11,-1
 950 1300 l 1,0,-1
700 1400 m 1,12,-1
 600 1400 l 1,13,-1
 300 1750 l 1,14,-1
 450 1750 l 1,15,-1
 700 1400 l 1,12,-1
EndSplineSet
EndChar

StartChar: Iacute
Encoding: 205 205 185
Width: 650
GlyphClass: 2
Flags: W
LayerCount: 2
Fore
SplineSet
100 150 m 1,0,-1
 250 150 l 1,1,-1
 250 1150 l 1,2,-1
 100 1150 l 1,3,-1
 100 1300 l 1,4,-1
 550 1300 l 1,5,-1
 550 1150 l 1,6,-1
 400 1150 l 1,7,-1
 400 150 l 1,8,-1
 550 150 l 1,9,-1
 550 0 l 1,10,-1
 100 0 l 1,11,-1
 100 150 l 1,0,-1
350 1400 m 1,12,-1
 250 1400 l 1,13,-1
 450 1800 l 1,14,-1
 600 1800 l 1,15,-1
 350 1400 l 1,12,-1
EndSplineSet
EndChar

StartChar: Icircumflex
Encoding: 206 206 186
Width: 650
GlyphClass: 2
Flags: W
LayerCount: 2
Fore
SplineSet
100 150 m 1,0,-1
 250 150 l 1,1,-1
 250 1150 l 1,2,-1
 100 1150 l 1,3,-1
 100 1300 l 1,4,-1
 550 1300 l 1,5,-1
 550 1150 l 1,6,-1
 400 1150 l 1,7,-1
 400 150 l 1,8,-1
 550 150 l 1,9,-1
 550 0 l 1,10,-1
 100 0 l 1,11,-1
 100 150 l 1,0,-1
526 1399 m 1,12,-1
 326 1598 l 1,13,-1
 125 1399 l 1,14,-1
 25 1399 l 1,15,-1
 326 1798 l 1,16,-1
 626 1399 l 1,17,-1
 526 1399 l 1,12,-1
EndSplineSet
EndChar

StartChar: Idieresis
Encoding: 207 207 187
Width: 650
GlyphClass: 2
Flags: W
LayerCount: 2
Fore
SplineSet
100 150 m 1,0,-1
 250 150 l 1,1,-1
 250 1150 l 1,2,-1
 100 1150 l 1,3,-1
 100 1300 l 1,4,-1
 550 1300 l 1,5,-1
 550 1150 l 1,6,-1
 400 1150 l 1,7,-1
 400 150 l 1,8,-1
 550 150 l 1,9,-1
 550 0 l 1,10,-1
 100 0 l 1,11,-1
 100 150 l 1,0,-1
250 1476 m 256,12,13
 250 1401 250 1401 176 1401 c 0,14,15
 101 1400 101 1400 101 1475 c 256,16,17
 101 1550 101 1550 176 1550 c 0,18,19
 250 1551 250 1551 250 1476 c 256,12,13
401 1476 m 0,20,21
 401 1551 401 1551 476 1551 c 0,22,23
 550 1550 550 1550 550 1476 c 0,24,25
 550 1401 550 1401 475 1401 c 256,26,27
 400 1401 400 1401 401 1476 c 0,20,21
EndSplineSet
EndChar

StartChar: Igrave
Encoding: 204 204 188
Width: 650
GlyphClass: 2
Flags: W
LayerCount: 2
Fore
SplineSet
100 150 m 1,0,-1
 250 150 l 1,1,-1
 250 1150 l 1,2,-1
 100 1150 l 1,3,-1
 100 1300 l 1,4,-1
 550 1300 l 1,5,-1
 550 1150 l 1,6,-1
 400 1150 l 1,7,-1
 400 150 l 1,8,-1
 550 150 l 1,9,-1
 550 0 l 1,10,-1
 100 0 l 1,11,-1
 100 150 l 1,0,-1
400 1400 m 1,12,-1
 300 1400 l 1,13,-1
 0 1750 l 1,14,-1
 150 1750 l 1,15,-1
 400 1400 l 1,12,-1
EndSplineSet
EndChar

StartChar: Oacute
Encoding: 211 211 189
Width: 1300
GlyphClass: 2
Flags: W
LayerCount: 2
Fore
SplineSet
150 650 m 256,0,1
 150 1300 150 1300 650 1300 c 256,2,3
 1150 1300 1150 1300 1150 650 c 256,4,5
 1150 0 1150 0 650 0 c 256,6,7
 150 0 150 0 150 650 c 256,0,1
300 650 m 256,8,9
 300 150 300 150 650 150 c 256,10,11
 1000 150 1000 150 1000 650 c 256,12,13
 1000 1150 1000 1150 650 1150 c 256,14,15
 300 1150 300 1150 300 650 c 256,8,9
600 1400 m 1,16,-1
 500 1400 l 1,17,-1
 700 1800 l 1,18,-1
 850 1800 l 1,19,-1
 600 1400 l 1,16,-1
EndSplineSet
EndChar

StartChar: Ocircumflex
Encoding: 212 212 190
Width: 1300
GlyphClass: 2
Flags: W
LayerCount: 2
Fore
SplineSet
150 650 m 256,0,1
 150 1300 150 1300 650 1300 c 256,2,3
 1150 1300 1150 1300 1150 650 c 256,4,5
 1150 0 1150 0 650 0 c 256,6,7
 150 0 150 0 150 650 c 256,0,1
300 650 m 256,8,9
 300 150 300 150 650 150 c 256,10,11
 1000 150 1000 150 1000 650 c 256,12,13
 1000 1150 1000 1150 650 1150 c 256,14,15
 300 1150 300 1150 300 650 c 256,8,9
850 1401 m 1,16,-1
 650 1600 l 1,17,-1
 449 1401 l 1,18,-1
 349 1401 l 1,19,-1
 650 1800 l 1,20,-1
 950 1401 l 1,21,-1
 850 1401 l 1,16,-1
EndSplineSet
EndChar

StartChar: Ograve
Encoding: 210 210 191
Width: 1300
GlyphClass: 2
Flags: W
LayerCount: 2
Fore
SplineSet
150 650 m 256,0,1
 150 1300 150 1300 650 1300 c 256,2,3
 1150 1300 1150 1300 1150 650 c 256,4,5
 1150 0 1150 0 650 0 c 256,6,7
 150 0 150 0 150 650 c 256,0,1
300 650 m 256,8,9
 300 150 300 150 650 150 c 256,10,11
 1000 150 1000 150 1000 650 c 256,12,13
 1000 1150 1000 1150 650 1150 c 256,14,15
 300 1150 300 1150 300 650 c 256,8,9
750 1400 m 1,16,-1
 650 1400 l 1,17,-1
 350 1750 l 1,18,-1
 500 1750 l 1,19,-1
 750 1400 l 1,16,-1
EndSplineSet
EndChar

StartChar: Uacute
Encoding: 218 218 192
Width: 1200
GlyphClass: 2
Flags: W
LayerCount: 2
Fore
SplineSet
600 0 m 256,0,1
 150 0 150 0 150 400 c 2,2,-1
 150 1300 l 1,3,-1
 300 1300 l 1,4,-1
 300 400 l 2,5,6
 300 150 300 150 600 150 c 256,7,8
 900 150 900 150 900 400 c 2,9,-1
 900 1300 l 1,10,-1
 1050 1300 l 1,11,-1
 1050 400 l 2,12,13
 1050 0 1050 0 600 0 c 256,0,1
600 1400 m 1,14,-1
 500 1400 l 1,15,-1
 700 1800 l 1,16,-1
 850 1800 l 1,17,-1
 600 1400 l 1,14,-1
EndSplineSet
EndChar

StartChar: Ucircumflex
Encoding: 219 219 193
Width: 1200
GlyphClass: 2
Flags: W
LayerCount: 2
Fore
SplineSet
600 0 m 256,0,1
 150 0 150 0 150 400 c 2,2,-1
 150 1300 l 1,3,-1
 300 1300 l 1,4,-1
 300 400 l 2,5,6
 300 150 300 150 600 150 c 256,7,8
 900 150 900 150 900 400 c 2,9,-1
 900 1300 l 1,10,-1
 1050 1300 l 1,11,-1
 1050 400 l 2,12,13
 1050 0 1050 0 600 0 c 256,0,1
801 1401 m 1,14,-1
 601 1600 l 1,15,-1
 400 1401 l 1,16,-1
 300 1401 l 1,17,-1
 601 1800 l 1,18,-1
 901 1401 l 1,19,-1
 801 1401 l 1,14,-1
EndSplineSet
EndChar

StartChar: Ugrave
Encoding: 217 217 194
Width: 1200
GlyphClass: 2
Flags: W
LayerCount: 2
Fore
SplineSet
600 0 m 256,0,1
 150 0 150 0 150 400 c 2,2,-1
 150 1300 l 1,3,-1
 300 1300 l 1,4,-1
 300 400 l 2,5,6
 300 150 300 150 600 150 c 256,7,8
 900 150 900 150 900 400 c 2,9,-1
 900 1300 l 1,10,-1
 1050 1300 l 1,11,-1
 1050 400 l 2,12,13
 1050 0 1050 0 600 0 c 256,0,1
750 1400 m 1,14,-1
 650 1400 l 1,15,-1
 350 1750 l 1,16,-1
 500 1750 l 1,17,-1
 750 1400 l 1,14,-1
EndSplineSet
EndChar

StartChar: circumflex
Encoding: 710 710 195
Width: 0
GlyphClass: 2
Flags: W
LayerCount: 2
Fore
SplineSet
200 1400 m 1,0,-1
 0 1600 l 1,1,-1
 -200 1400 l 1,2,-1
 -300 1400 l 1,3,-1
 0 1800 l 1,4,-1
 300 1400 l 1,5,-1
 200 1400 l 1,0,-1
EndSplineSet
EndChar

StartChar: glyph196
Encoding: 732 732 196
Width: 0
GlyphClass: 2
Flags: W
LayerCount: 2
Fore
SplineSet
150 1400 m 0,0,1
 52 1400 52 1400 -25 1450 c 256,2,3
 -102 1500 -102 1500 -150 1500 c 0,4,5
 -199 1500 -199 1500 -199 1400 c 1,6,-1
 -300 1400 l 1,7,8
 -300 1600 -300 1600 -150 1600 c 0,9,10
 -52 1600 -52 1600 25 1550 c 256,11,12
 102 1500 102 1500 150 1500 c 0,13,14
 200 1500 200 1500 200 1600 c 1,15,-1
 300 1600 l 1,16,17
 300 1400 300 1400 150 1400 c 0,0,1
EndSplineSet
EndChar

StartChar: macron
Encoding: 175 175 197
Width: 0
GlyphClass: 2
Flags: W
LayerCount: 2
Fore
SplineSet
-400 1300 m 1,0,-1
 -400 1450 l 1,1,-1
 400 1450 l 1,2,-1
 400 1300 l 1,3,-1
 -400 1300 l 1,0,-1
EndSplineSet
EndChar

StartChar: cedilla
Encoding: 184 184 198
Width: 0
GlyphClass: 2
Flags: W
LayerCount: 2
Fore
SplineSet
150 100 m 1,0,-1
 50 -100 l 1,1,2
 250 -100 250 -100 250 -275 c 256,3,4
 250 -450 250 -450 0 -450 c 0,5,6
 -100 -450 -100 -450 -150 -350 c 1,7,-1
 0 -350 l 2,8,9
 150 -350 150 -350 150 -275 c 256,10,11
 150 -200 150 -200 50 -200 c 2,12,-1
 -100 -200 l 1,13,-1
 50 100 l 1,14,-1
 150 100 l 1,0,-1
EndSplineSet
EndChar

StartChar: notequal
Encoding: 8800 8800 199
Width: 1100
GlyphClass: 2
Flags: W
LayerCount: 2
Fore
SplineSet
821 1185 m 1,0,-1
 721 949 l 1,1,-1
 951 949 l 1,2,-1
 951 800 l 1,3,-1
 657 800 l 1,4,-1
 552 551 l 1,5,-1
 951 551 l 1,6,-1
 951 400 l 1,7,-1
 488 400 l 1,8,-1
 372 126 l 1,9,-1
 281 165 l 1,10,-1
 380 400 l 1,11,-1
 150 400 l 1,12,-1
 150 551 l 1,13,-1
 444 551 l 1,14,-1
 550 800 l 1,15,-1
 150 800 l 1,16,-1
 150 949 l 1,17,-1
 613 949 l 1,18,-1
 730 1224 l 1,19,-1
 821 1185 l 1,0,-1
EndSplineSet
EndChar

StartChar: infinity
Encoding: 8734 8734 200
Width: 1700
GlyphClass: 2
Flags: W
LayerCount: 2
Fore
SplineSet
200 350 m 256,0,1
 200 700 200 700 550 700 c 0,2,3
 768 700 768 700 850 564 c 1,4,5
 932 700 932 700 1150 700 c 0,6,7
 1500 700 1500 700 1500 350 c 256,8,9
 1500 0 1500 0 1150 0 c 0,10,11
 932 0 932 0 850 135 c 1,12,13
 768 0 768 0 550 0 c 0,14,15
 200 0 200 0 200 350 c 256,0,1
1400 350 m 256,16,17
 1400 600 1400 600 1150 600 c 256,18,19
 900 600 900 600 900 350 c 256,20,21
 900 100 900 100 1150 100 c 256,22,23
 1400 100 1400 100 1400 350 c 256,16,17
800 350 m 2,24,-1
 800 362 l 1,25,26
 793 600 793 600 550 600 c 0,27,28
 300 600 300 600 300 350 c 256,29,30
 300 100 300 100 550 100 c 256,31,32
 800 100 800 100 800 350 c 2,24,-1
EndSplineSet
EndChar

StartChar: lessequal
Encoding: 8804 8804 201
Width: 1250
GlyphClass: 2
Flags: W
LayerCount: 2
Fore
SplineSet
1101 249 m 1,0,-1
 150 704 l 1,1,-1
 150 804 l 1,2,-1
 1101 1256 l 1,3,-1
 1136 1111 l 1,4,-1
 383 754 l 1,5,-1
 1136 397 l 1,6,-1
 1101 249 l 1,0,-1
150 1 m 1,7,-1
 150 150 l 1,8,-1
 1151 151 l 1,9,-1
 1151 1 l 1,10,-1
 150 1 l 1,7,-1
EndSplineSet
EndChar

StartChar: greaterequal
Encoding: 8805 8805 202
Width: 1250
GlyphClass: 2
Flags: W
LayerCount: 2
Fore
SplineSet
150 0 m 1,0,-1
 150 150 l 1,1,-1
 1150 150 l 1,2,-1
 1150 0 l 1,3,-1
 150 0 l 1,0,-1
201 242 m 1,4,-1
 166 389 l 1,5,-1
 931 751 l 1,6,-1
 166 1103 l 1,7,-1
 201 1248 l 1,8,-1
 1150 796 l 1,9,-1
 1150 696 l 1,10,-1
 201 242 l 1,4,-1
EndSplineSet
EndChar

StartChar: partialdiff
Encoding: 8706 8706 203
Width: 1100
GlyphClass: 2
Flags: W
LayerCount: 2
Fore
SplineSet
630 847 m 0,0,1
 783 820 783 820 865 740 c 1,2,-1
 894 903 l 2,3,4
 937 1149 937 1149 790 1175 c 0,5,6
 593 1209 593 1209 607 1283.5 c 128,-1,7
 621 1358 621 1358 817 1323 c 0,8,9
 1112 1269 1112 1269 1043 877 c 2,10,-1
 951 359 l 1,11,-1
 950 359 l 1,12,13
 877 -59 877 -59 483 10 c 0,14,15
 89 80 89 80 163 499 c 0,16,17
 236 917 236 917 630 847 c 0,0,1
509 158 m 256,18,19
 755 115 755 115 803 385 c 0,20,21
 851 656 851 656 604 700 c 0,22,23
 358 743 358 743 310 472 c 0,24,25
 263 201 263 201 509 158 c 256,18,19
EndSplineSet
EndChar

StartChar: summation
Encoding: 8721 8721 204
Width: 1100
GlyphClass: 2
Flags: W
LayerCount: 2
Fore
SplineSet
150 1500 m 1,0,-1
 950 1500 l 1,1,-1
 950 1350 l 1,2,-1
 300 1350 l 1,3,-1
 700 650 l 1,4,-1
 300 -50 l 1,5,-1
 950 -50 l 1,6,-1
 950 -200 l 1,7,-1
 150 -200 l 1,8,-1
 150 -50 l 1,9,-1
 550 650 l 1,10,-1
 150 1350 l 1,11,-1
 150 1500 l 1,0,-1
EndSplineSet
EndChar

StartChar: product
Encoding: 8719 8719 205
Width: 1150
GlyphClass: 2
Flags: W
LayerCount: 2
Fore
SplineSet
150 1300 m 1,0,-1
 1000 1300 l 1,1,-1
 1000 0 l 1,2,-1
 850 0 l 1,3,-1
 850 1150 l 1,4,-1
 300 1150 l 1,5,-1
 300 0 l 1,6,-1
 150 0 l 1,7,-1
 150 1300 l 1,0,-1
EndSplineSet
EndChar

StartChar: pi
Encoding: 960 960 206
Width: 1150
GlyphClass: 2
Flags: W
LayerCount: 2
Fore
SplineSet
150 1300 m 1,0,-1
 1000 1300 l 1,1,-1
 1000 0 l 1,2,-1
 850 0 l 1,3,-1
 850 1150 l 1,4,-1
 300 1150 l 1,5,-1
 300 0 l 1,6,-1
 150 0 l 1,7,-1
 150 1300 l 1,0,-1
EndSplineSet
EndChar

StartChar: integral
Encoding: 8747 8747 207
Width: 650
GlyphClass: 2
Flags: W
LayerCount: 2
Fore
SplineSet
600 1300 m 1,0,1
 400 1300 400 1300 400 1100 c 2,2,-1
 400 200 l 2,3,4
 400 -150 400 -150 50 -150 c 1,5,-1
 50 0 l 1,6,7
 250 0 250 0 250 200 c 2,8,-1
 250 1100 l 2,9,10
 250 1450 250 1450 600 1450 c 1,11,-1
 600 1300 l 1,0,1
EndSplineSet
EndChar

StartChar: Omega
Encoding: 937 937 208
Width: 1300
GlyphClass: 2
Flags: W
LayerCount: 2
Fore
SplineSet
1151 149 m 1,0,-1
 1150 -1 l 1,1,-1
 750 -1 l 1,2,-1
 750 500 l 1,3,4
 1000 500 1000 500 1000 850 c 0,5,6
 1000 1150 1000 1150 650 1150 c 256,7,8
 300 1150 300 1150 300 850 c 0,9,10
 300 500 300 500 550 500 c 1,11,-1
 550 0 l 1,12,-1
 550 -1 l 1,13,-1
 150 -1 l 1,14,-1
 151 149 l 1,15,-1
 401 149 l 1,16,-1
 401 371 l 1,17,18
 150 454 150 454 150 850 c 0,19,20
 150 1300 150 1300 650 1300 c 256,21,22
 1150 1300 1150 1300 1150 850 c 0,23,24
 1150 455 1150 455 900 372 c 1,25,-1
 900 149 l 1,26,-1
 1151 149 l 1,0,-1
EndSplineSet
EndChar

StartChar: radical
Encoding: 8730 8730 209
Width: 1100
GlyphClass: 2
Flags: W
LayerCount: 2
Fore
SplineSet
456 0 m 1,0,-1
 252 650 l 1,1,-1
 49 738 l 1,2,-1
 379 738 l 1,3,-1
 554 176 l 1,4,-1
 896 1300 l 1,5,-1
 1050 1300 l 1,6,-1
 653 0 l 1,7,-1
 456 0 l 1,0,-1
EndSplineSet
EndChar

StartChar: approxequal
Encoding: 8776 8776 210
Width: 1100
GlyphClass: 2
Flags: W
LayerCount: 2
Fore
SplineSet
150 800 m 1,0,-1
 150 949 l 1,1,2
 350 1049 350 1049 450 999 c 128,-1,3
 550 949 550 949 650.5 949 c 128,-1,4
 751 949 751 949 951 1019 c 1,5,-1
 951 870 l 1,6,7
 751 800 751 800 650.5 800 c 128,-1,8
 550 800 550 800 450 850 c 128,-1,9
 350 900 350 900 150 800 c 1,0,-1
150 400 m 1,10,-1
 150 551 l 1,11,12
 350 651 350 651 450 601 c 128,-1,13
 550 551 550 551 650.5 551 c 128,-1,14
 751 551 751 551 951 621 c 1,15,-1
 951 470 l 1,16,17
 751 400 751 400 650.5 400 c 128,-1,18
 550 400 550 400 450 450 c 128,-1,19
 350 500 350 500 150 400 c 1,10,-1
EndSplineSet
EndChar

StartChar: Delta
Encoding: 916 916 211
Width: 1100
GlyphClass: 2
Flags: W
LayerCount: 2
Fore
SplineSet
1062 0 m 1,0,-1
 48 0 l 1,1,-1
 450 1300 l 1,2,-1
 650 1300 l 1,3,-1
 1062 0 l 1,0,-1
550 1124 m 1,4,-1
 250 150 l 1,5,-1
 857 150 l 1,6,-1
 550 1124 l 1,4,-1
EndSplineSet
EndChar

StartChar: lozenge
Encoding: 9674 9674 212
Width: 1600
GlyphClass: 2
Flags: W
LayerCount: 2
Fore
SplineSet
101 700 m 1,0,-1
 800 1400 l 1,1,-1
 1500 700 l 1,2,-1
 800 0 l 1,3,-1
 101 700 l 1,0,-1
800 210 m 1,4,-1
 1290 700 l 1,5,-1
 800 1190 l 1,6,-1
 311 700 l 1,7,-1
 800 210 l 1,4,-1
EndSplineSet
EndChar

StartChar: fraction
Encoding: 8260 8260 213
Width: 1000
GlyphClass: 2
Flags: W
LayerCount: 2
Fore
SplineSet
177 -67 m 1,0,-1
 49 11 l 1,1,-1
 824 1296 l 1,2,-1
 952 1219 l 1,3,-1
 177 -67 l 1,0,-1
EndSplineSet
EndChar

StartChar: fi
Encoding: 64257 64257 214
Width: 950
GlyphClass: 2
Flags: W
LayerCount: 2
Fore
SplineSet
300 850 m 1,0,-1
 300 0 l 1,1,-1
 150 0 l 1,2,-1
 150 850 l 1,3,-1
 29 850 l 1,4,-1
 29 1000 l 1,5,-1
 150 1000 l 1,6,-1
 150 1050 l 2,7,8
 150 1400 150 1400 450 1400 c 2,9,-1
 800 1400 l 1,10,-1
 800 1250 l 1,11,-1
 450 1250 l 2,12,13
 300 1250 300 1250 300 1051 c 2,14,-1
 300 1000 l 1,15,-1
 800 1000 l 1,16,-1
 800 0 l 1,17,-1
 650 0 l 1,18,-1
 650 850 l 1,19,-1
 300 850 l 1,0,-1
EndSplineSet
EndChar

StartChar: fl
Encoding: 64258 64258 215
Width: 950
GlyphClass: 2
Flags: W
LayerCount: 2
Fore
SplineSet
300 850 m 1,0,-1
 300 0 l 1,1,-1
 150 0 l 1,2,-1
 150 850 l 1,3,-1
 29 850 l 1,4,-1
 29 1000 l 1,5,-1
 150 1000 l 1,6,-1
 150 1050 l 2,7,8
 150 1400 150 1400 450 1400 c 2,9,-1
 800 1400 l 1,10,-1
 800 0 l 1,11,-1
 650 0 l 1,12,-1
 650 1250 l 1,13,-1
 450 1250 l 2,14,15
 300 1250 300 1250 300 1051 c 2,16,-1
 300 1000 l 1,17,-1
 550 1000 l 1,18,-1
 550 850 l 1,19,-1
 300 850 l 1,0,-1
EndSplineSet
EndChar

StartChar: dotlessi
Encoding: 305 305 216
Width: 450
GlyphClass: 2
Flags: W
LayerCount: 2
Fore
SplineSet
150 1000 m 1,0,-1
 300 1000 l 1,1,-1
 300 0 l 1,2,-1
 150 0 l 1,3,-1
 150 1000 l 1,0,-1
EndSplineSet
EndChar

StartChar: breve
Encoding: 728 728 217
Width: 0
GlyphClass: 2
Flags: W
LayerCount: 2
Fore
SplineSet
-1 1400 m 0,0,1
 -252 1400 -252 1400 -301 1749 c 1,2,-1
 -201 1749 l 1,3,4
 -150 1550 -150 1550 0 1550 c 0,5,6
 151 1550 151 1550 200 1749 c 1,7,-1
 300 1749 l 1,8,9
 251 1400 251 1400 -1 1400 c 0,0,1
EndSplineSet
EndChar

StartChar: dotaccent
Encoding: 729 729 218
Width: 0
GlyphClass: 2
Flags: W
LayerCount: 2
Fore
SplineSet
-100 1350 m 256,0,1
 -100 1450 -100 1450 0 1450 c 256,2,3
 100 1450 100 1450 100 1350 c 256,4,5
 100 1250 100 1250 0 1250 c 256,6,7
 -100 1250 -100 1250 -100 1350 c 256,0,1
EndSplineSet
EndChar

StartChar: ring
Encoding: 730 730 219
Width: 0
GlyphClass: 2
Flags: W
LayerCount: 2
Fore
SplineSet
-100 1350 m 256,0,1
 -100 1250 -100 1250 0 1250 c 256,2,3
 100 1250 100 1250 100 1350 c 256,4,5
 100 1450 100 1450 0 1450 c 256,6,7
 -100 1450 -100 1450 -100 1350 c 256,0,1
0 1150 m 256,8,9
 -200 1150 -200 1150 -200 1350 c 256,10,11
 -200 1550 -200 1550 0 1550 c 256,12,13
 200 1550 200 1550 200 1350 c 256,14,15
 200 1150 200 1150 0 1150 c 256,8,9
EndSplineSet
EndChar

StartChar: hungarumlaut
Encoding: 733 733 220
Width: 797
GlyphClass: 2
Flags: W
LayerCount: 2
Fore
SplineSet
132 954 m 1,0,-1
 93 987 l 1,1,2
 230 1229 230 1229 264 1270 c 0,3,4
 311 1326 311 1326 369 1277 c 0,5,6
 426 1230 426 1230 379 1173 c 1,7,-1
 376 1171 l 1,8,9
 352 1142 352 1142 291.5 1088 c 128,-1,10
 231 1034 231 1034 132 954 c 1,0,-1
432 954 m 1,11,-1
 393 987 l 1,12,13
 530 1229 530 1229 564 1270 c 0,14,15
 611 1326 611 1326 669 1277 c 0,16,17
 726 1230 726 1230 679 1173 c 1,18,-1
 676 1171 l 1,19,20
 652 1142 652 1142 591.5 1088 c 128,-1,21
 531 1034 531 1034 432 954 c 1,11,-1
EndSplineSet
EndChar

StartChar: ogonek
Encoding: 731 731 221
Width: 0
GlyphClass: 2
Flags: W
LayerCount: 2
Fore
SplineSet
150 100 m 1,0,-1
 50 -100 l 1,1,-1
 0 -200 l 1,2,-1
 -25 -250 l 1,3,4
 -80 -350 -80 -350 0 -350 c 0,5,6
 150 -350 150 -350 150 -300 c 256,7,8
 150 -250 150 -250 200 -250 c 2,9,-1
 250 -250 l 1,10,11
 250 -450 250 -450 0 -450 c 0,12,13
 -100 -450 -100 -450 -125 -375 c 128,-1,14
 -150 -300 -150 -300 -100 -200 c 2,15,-1
 50 100 l 1,16,-1
 150 100 l 1,0,-1
EndSplineSet
EndChar

StartChar: caron
Encoding: 711 711 222
Width: 0
GlyphClass: 2
Flags: W
LayerCount: 2
Fore
SplineSet
-200 1800 m 1,0,-1
 0 1600 l 1,1,-1
 200 1800 l 1,2,-1
 300 1800 l 1,3,-1
 0 1400 l 1,4,-1
 -300 1800 l 1,5,-1
 -200 1800 l 1,0,-1
EndSplineSet
EndChar

StartChar: Itilde
Encoding: 296 296 223
Width: 650
GlyphClass: 2
Flags: W
LayerCount: 2
Fore
SplineSet
100 150 m 1,0,-1
 250 150 l 1,1,-1
 250 1150 l 1,2,-1
 100 1150 l 1,3,-1
 100 1300 l 1,4,-1
 550 1300 l 1,5,-1
 550 1150 l 1,6,-1
 400 1150 l 1,7,-1
 400 150 l 1,8,-1
 550 150 l 1,9,-1
 550 0 l 1,10,-1
 100 0 l 1,11,-1
 100 150 l 1,0,-1
476 1400 m 0,12,13
 378 1400 378 1400 301 1450 c 256,14,15
 224 1500 224 1500 176 1500 c 0,16,17
 127 1500 127 1500 127 1400 c 1,18,-1
 26 1400 l 1,19,20
 26 1600 26 1600 176 1600 c 0,21,22
 274 1600 274 1600 351 1550 c 256,23,24
 428 1500 428 1500 476 1500 c 0,25,26
 526 1500 526 1500 526 1600 c 1,27,-1
 626 1600 l 1,28,29
 626 1400 626 1400 476 1400 c 0,12,13
EndSplineSet
EndChar

StartChar: itilde
Encoding: 297 297 224
Width: 450
GlyphClass: 2
Flags: W
LayerCount: 2
Fore
SplineSet
150 1000 m 1,0,-1
 300 1000 l 1,1,-1
 300 0 l 1,2,-1
 150 0 l 1,3,-1
 150 1000 l 1,0,-1
376 1200 m 0,4,5
 278 1200 278 1200 201 1250 c 256,6,7
 124 1300 124 1300 76 1300 c 0,8,9
 27 1300 27 1300 27 1200 c 1,10,-1
 -74 1200 l 1,11,12
 -74 1400 -74 1400 76 1400 c 0,13,14
 174 1400 174 1400 251 1350 c 256,15,16
 328 1300 328 1300 376 1300 c 0,17,18
 426 1300 426 1300 426 1400 c 1,19,-1
 526 1400 l 1,20,21
 526 1200 526 1200 376 1200 c 0,4,5
EndSplineSet
EndChar

StartChar: Scaron
Encoding: 352 352 225
Width: 1100
GlyphClass: 2
Flags: W
LayerCount: 2
Fore
SplineSet
551 151 m 0,0,1
 799 151 799 151 801 400 c 0,2,3
 801 600 801 600 555 600 c 2,4,-1
 551 600 l 2,5,6
 150 600 150 600 150 950 c 0,7,8
 150 1301 150 1301 550 1301 c 0,9,10
 801 1301 801 1301 901 1201 c 1,11,-1
 901 1000 l 1,12,13
 800 1150 800 1150 551 1150 c 0,14,15
 301 1150 301 1150 301 950 c 256,16,17
 301 750 301 750 551 750 c 2,18,-1
 554 750 l 2,19,20
 950 750 950 750 950 401 c 0,21,22
 950 1 950 1 551 0 c 0,23,24
 298 0 298 0 150 100 c 1,25,-1
 150 300 l 1,26,27
 302 151 302 151 551 151 c 0,0,1
350 1800 m 1,28,-1
 550 1600 l 1,29,-1
 750 1800 l 1,30,-1
 850 1800 l 1,31,-1
 550 1400 l 1,32,-1
 250 1800 l 1,33,-1
 350 1800 l 1,28,-1
EndSplineSet
EndChar

StartChar: scaron
Encoding: 353 353 226
Width: 1050
GlyphClass: 2
Flags: W
LayerCount: 2
Fore
SplineSet
551 151 m 256,0,1
 800 151 800 151 800 286 c 0,2,3
 800 420 800 420 551 420 c 0,4,5
 150 420 150 420 150 710 c 0,6,7
 150 1001 150 1001 550 1001 c 0,8,9
 801 1001 801 1001 901 901 c 1,10,-1
 901 700 l 1,11,12
 800 850 800 850 551 850 c 0,13,14
 301 850 301 850 301 710 c 256,15,16
 301 570 301 570 551 570 c 0,17,18
 950 570 950 570 950 285 c 256,19,20
 950 0 950 0 551 0 c 0,21,22
 298 0 298 0 150 100 c 1,23,-1
 150 300 l 1,24,25
 302 151 302 151 551 151 c 256,0,1
350 1550 m 1,26,-1
 550 1350 l 1,27,-1
 750 1550 l 1,28,-1
 850 1550 l 1,29,-1
 550 1150 l 1,30,-1
 250 1550 l 1,31,-1
 350 1550 l 1,26,-1
EndSplineSet
EndChar

StartChar: brokenbar
Encoding: 166 166 227
Width: 450
GlyphClass: 2
Flags: W
LayerCount: 2
Fore
SplineSet
150 0 m 1,0,-1
 150 800 l 1,1,-1
 300 800 l 1,2,-1
 300 0 l 1,3,-1
 150 0 l 1,0,-1
150 1000 m 1,4,-1
 150 1800 l 1,5,-1
 300 1800 l 1,6,-1
 300 1000 l 1,7,-1
 150 1000 l 1,4,-1
EndSplineSet
EndChar

StartChar: Dstroke
Encoding: 272 272 228
Width: 1149
GlyphClass: 2
Flags: W
LayerCount: 2
Fore
SplineSet
-1 600 m 1,0,-1
 -1 750 l 1,1,-1
 149 750 l 1,2,-1
 149 1300 l 1,3,-1
 549 1300 l 2,4,5
 1049 1300 1049 1300 1049 650 c 256,6,7
 1049 0 1049 0 549 0 c 2,8,-1
 149 0 l 1,9,-1
 149 600 l 1,10,-1
 -1 600 l 1,0,-1
899 650 m 256,11,12
 899 1150 899 1150 549 1150 c 2,13,-1
 299 1150 l 1,14,-1
 299 750 l 1,15,-1
 599 750 l 1,16,-1
 599 600 l 1,17,-1
 299 600 l 1,18,-1
 299 150 l 1,19,-1
 549 150 l 2,20,21
 899 150 899 150 899 650 c 256,11,12
EndSplineSet
EndChar

StartChar: eth
Encoding: 240 240 229
Width: 1100
GlyphClass: 2
Flags: W
LayerCount: 2
Fore
SplineSet
-94 1176 m 1,0,-1
 388 1353 l 1,1,-1
 133 1773 l 1,2,-1
 261 1851 l 1,3,-1
 532 1405 l 1,4,-1
 1042 1593 l 1,5,-1
 1094 1452 l 1,6,-1
 611 1275 l 1,7,-1
 865 857 l 2,8,9
 879 839 879 839 889 817 c 1,10,-1
 890 817 l 1,11,12
 952 698 952 698 952 501 c 0,13,14
 950 1 950 1 551 1 c 2,15,-1
 549 1 l 2,16,17
 152 1 152 1 152 497 c 2,18,-1
 152 501 l 2,19,20
 152 1001 152 1001 552 1001 c 0,21,22
 579 1001 579 1001 604 998 c 1,23,-1
 468 1222 l 1,24,-1
 -42 1035 l 1,25,-1
 -94 1176 l 1,0,-1
551 150 m 256,26,27
 801 150 801 150 801 500 c 2,28,-1
 801 504 l 2,29,30
 801 850 801 850 551 850 c 256,31,32
 301 850 301 850 301 500 c 256,33,34
 301 150 301 150 551 150 c 256,26,27
EndSplineSet
EndChar

StartChar: Yacute
Encoding: 221 221 230
Width: 1106
GlyphClass: 2
Flags: W
LayerCount: 2
Fore
SplineSet
65 1300 m 1,0,-1
 241 1300 l 1,1,-1
 550 791 l 1,2,-1
 872 1300 l 1,3,-1
 1048 1300 l 1,4,-1
 625 630 l 1,5,-1
 625 0 l 1,6,-1
 476 0 l 1,7,-1
 476 629 l 1,8,-1
 65 1300 l 1,0,-1
600 1400 m 1,9,-1
 500 1400 l 1,10,-1
 700 1800 l 1,11,-1
 850 1800 l 1,12,-1
 600 1400 l 1,9,-1
EndSplineSet
EndChar

StartChar: yacute
Encoding: 253 253 231
Width: 1100
GlyphClass: 2
Flags: W
LayerCount: 2
Fore
SplineSet
258 -400 m 1,0,-1
 467 89 l 1,1,-1
 90 1000 l 1,2,-1
 252 1000 l 1,3,-1
 550 284 l 1,4,-1
 856 1000 l 1,5,-1
 1019 1000 l 1,6,-1
 421 -400 l 1,7,-1
 258 -400 l 1,0,-1
500 1150 m 1,8,-1
 400 1150 l 1,9,-1
 600 1550 l 1,10,-1
 750 1550 l 1,11,-1
 500 1150 l 1,8,-1
EndSplineSet
EndChar

StartChar: Thorn
Encoding: 222 222 232
Width: 1050
GlyphClass: 2
Flags: W
LayerCount: 2
Fore
SplineSet
150 1300 m 1,0,-1
 300 1300 l 1,1,-1
 300 1050 l 1,2,-1
 500 1050 l 2,3,4
 950 1050 950 1050 950 650 c 256,5,6
 950 250 950 250 500 250 c 2,7,-1
 300 250 l 1,8,-1
 300 0 l 1,9,-1
 150 0 l 1,10,-1
 150 1300 l 1,0,-1
800 650 m 256,11,12
 800 900 800 900 500 900 c 2,13,-1
 300 900 l 1,14,-1
 300 400 l 1,15,-1
 500 400 l 2,16,17
 800 400 800 400 800 650 c 256,11,12
EndSplineSet
EndChar

StartChar: thorn
Encoding: 254 254 233
Width: 1050
GlyphClass: 2
Flags: W
LayerCount: 2
Fore
SplineSet
300 925 m 1,0,1
 394 1001 394 1001 551 1001 c 0,2,3
 951 1001 951 1001 951 501 c 0,4,5
 949 1 949 1 550 1 c 2,6,-1
 544 1 l 2,7,8
 395 1 395 1 300 75 c 1,9,-1
 300 -400 l 1,10,-1
 150 -400 l 1,11,-1
 150 1300 l 1,12,-1
 300 1300 l 1,13,-1
 300 925 l 1,0,1
550 150 m 256,14,15
 800 150 800 150 800 500 c 256,16,17
 800 850 800 850 550 850 c 256,18,19
 300 850 300 850 300 500 c 256,20,21
 300 150 300 150 550 150 c 256,14,15
EndSplineSet
EndChar

StartChar: minus
Encoding: 173 173 234
Width: 1100
GlyphClass: 2
Flags: W
LayerCount: 2
Fore
SplineSet
150 400 m 1,0,-1
 150 550 l 1,1,-1
 950 550 l 1,2,-1
 950 400 l 1,3,-1
 150 400 l 1,0,-1
EndSplineSet
EndChar

StartChar: multiply
Encoding: 215 215 235
Width: 1100
GlyphClass: 2
Flags: W
LayerCount: 2
Fore
SplineSet
656 574 m 1,0,-1
 938 292 l 1,1,-1
 832 186 l 1,2,-1
 549 469 l 1,3,-1
 266 186 l 1,4,-1
 160 292 l 1,5,-1
 443 575 l 1,6,-1
 160 858 l 1,7,-1
 266 964 l 1,8,-1
 549 681 l 1,9,-1
 832 964 l 1,10,-1
 939 857 l 1,11,-1
 656 574 l 1,0,-1
EndSplineSet
EndChar

StartChar: onesuperior
Encoding: 185 185 236
Width: 400
GlyphClass: 2
Flags: W
LayerCount: 2
Fore
SplineSet
154 1092 m 1,0,-1
 50 1092 l 1,1,-1
 50 1196 l 1,2,3
 119 1196 119 1196 154 1300 c 1,4,-1
 258 1300 l 1,5,-1
 258 504 l 1,6,-1
 362 504 l 1,7,-1
 362 400 l 1,8,-1
 50 400 l 1,9,-1
 50 504 l 1,10,-1
 154 504 l 1,11,-1
 154 1092 l 1,0,-1
EndSplineSet
EndChar

StartChar: twosuperior
Encoding: 178 178 237
Width: 850
GlyphClass: 2
Flags: W
LayerCount: 2
Fore
SplineSet
703 1033 m 0,0,1
 703 957 703 957 597 840 c 2,2,-1
 292 504 l 1,3,-1
 703 504 l 1,4,-1
 703 400 l 1,5,-1
 150 400 l 1,6,-1
 150 501 l 1,7,-1
 512 900 l 2,8,9
 599 996 599 996 599 1032 c 0,10,11
 599 1196 599 1196 426 1196 c 0,12,13
 254 1196 254 1196 254 1023 c 1,14,-1
 150 1023 l 1,15,16
 150 1300 150 1300 426 1300 c 0,17,18
 703 1300 703 1300 703 1033 c 0,0,1
EndSplineSet
EndChar

StartChar: threesuperior
Encoding: 179 179 238
Width: 850
GlyphClass: 2
Flags: W
LayerCount: 2
Fore
SplineSet
427 1301 m 0,0,1
 704 1301 704 1301 704 1053 c 0,2,3
 704 923 704 923 621 864 c 1,4,5
 704 797 704 797 704 649 c 0,6,7
 704 400 704 400 427 400 c 0,8,9
 151 400 151 400 151 643 c 1,10,-1
 255 643 l 1,11,12
 255 504 255 504 427 504 c 256,13,14
 599 504 599 504 599 649 c 0,15,16
 599 816 599 816 427 816 c 2,17,-1
 358 816 l 1,18,-1
 358 920 l 1,19,-1
 427 920 l 2,20,21
 518 920 518 920 558.5 955 c 128,-1,22
 599 990 599 990 599 1053 c 0,23,24
 599 1197 599 1197 427 1197 c 256,25,26
 255 1197 255 1197 255 1059 c 1,27,-1
 151 1059 l 1,28,29
 151 1301 151 1301 427 1301 c 0,0,1
EndSplineSet
EndChar

StartChar: onehalf
Encoding: 189 189 239
Width: 1550
GlyphClass: 2
Flags: W
LayerCount: 2
Fore
SplineSet
154 1092 m 1,0,-1
 50 1092 l 1,1,-1
 50 1196 l 1,2,3
 119 1196 119 1196 154 1300 c 1,4,-1
 258 1300 l 1,5,-1
 258 504 l 1,6,-1
 362 504 l 1,7,-1
 362 400 l 1,8,-1
 50 400 l 1,9,-1
 50 504 l 1,10,-1
 154 504 l 1,11,-1
 154 1092 l 1,0,-1
1450 633 m 0,12,13
 1450 557 1450 557 1344 440 c 2,14,-1
 1039 104 l 1,15,-1
 1450 104 l 1,16,-1
 1450 0 l 1,17,-1
 897 0 l 1,18,-1
 897 101 l 1,19,-1
 1259 500 l 2,20,21
 1346 596 1346 596 1346 632 c 0,22,23
 1346 796 1346 796 1174 796 c 0,24,25
 1001 796 1001 796 1001 623 c 1,26,-1
 897 623 l 1,27,28
 897 900 897 900 1174 900 c 0,29,30
 1450 900 1450 900 1450 633 c 0,12,13
1129 1301 m 1,31,-1
 348 -1 l 1,32,-1
 232 -1 l 1,33,-1
 1012 1300 l 1,34,-1
 1129 1301 l 1,31,-1
EndSplineSet
EndChar

StartChar: onequarter
Encoding: 188 188 240
Width: 1450
GlyphClass: 2
Flags: W
LayerCount: 2
Fore
SplineSet
154 1092 m 1,0,-1
 50 1092 l 1,1,-1
 50 1196 l 1,2,3
 119 1196 119 1196 154 1300 c 1,4,-1
 258 1300 l 1,5,-1
 258 504 l 1,6,-1
 362 504 l 1,7,-1
 362 400 l 1,8,-1
 50 400 l 1,9,-1
 50 504 l 1,10,-1
 154 504 l 1,11,-1
 154 1092 l 1,0,-1
1129 1301 m 1,12,-1
 348 -1 l 1,13,-1
 232 -1 l 1,14,-1
 1012 1300 l 1,15,-1
 1129 1301 l 1,12,-1
1314 278 m 1,16,-1
 1314 0 l 1,17,-1
 1210 0 l 1,18,-1
 1210 278 l 1,19,-1
 760 278 l 1,20,-1
 760 368 l 1,21,-1
 1210 900 l 1,22,-1
 1314 900 l 1,23,-1
 1314 381 l 1,24,-1
 1399 381 l 1,25,-1
 1399 278 l 1,26,-1
 1314 278 l 1,16,-1
1210 739 m 1,27,-1
 907 381 l 1,28,-1
 1210 381 l 1,29,-1
 1210 739 l 1,27,-1
EndSplineSet
EndChar

StartChar: threequarters
Encoding: 190 190 241
Width: 1700
GlyphClass: 2
Flags: W
LayerCount: 2
Fore
SplineSet
1379 1301 m 1,0,-1
 598 -1 l 1,1,-1
 482 -1 l 1,2,-1
 1262 1300 l 1,3,-1
 1379 1301 l 1,0,-1
1564 278 m 1,4,-1
 1564 0 l 1,5,-1
 1460 0 l 1,6,-1
 1460 278 l 1,7,-1
 1010 278 l 1,8,-1
 1010 368 l 1,9,-1
 1460 900 l 1,10,-1
 1564 900 l 1,11,-1
 1564 381 l 1,12,-1
 1649 381 l 1,13,-1
 1649 278 l 1,14,-1
 1564 278 l 1,4,-1
1460 739 m 1,15,-1
 1157 381 l 1,16,-1
 1460 381 l 1,17,-1
 1460 739 l 1,15,-1
427 1301 m 0,18,19
 704 1301 704 1301 704 1053 c 0,20,21
 704 923 704 923 621 864 c 1,22,23
 704 797 704 797 704 649 c 0,24,25
 704 400 704 400 427 400 c 0,26,27
 151 400 151 400 151 643 c 1,28,-1
 255 643 l 1,29,30
 255 504 255 504 427 504 c 256,31,32
 599 504 599 504 599 649 c 0,33,34
 599 816 599 816 427 816 c 2,35,-1
 358 816 l 1,36,-1
 358 920 l 1,37,-1
 427 920 l 2,38,39
 518 920 518 920 558.5 955 c 128,-1,40
 599 990 599 990 599 1053 c 0,41,42
 599 1197 599 1197 427 1197 c 256,43,44
 255 1197 255 1197 255 1059 c 1,45,-1
 151 1059 l 1,46,47
 151 1301 151 1301 427 1301 c 0,18,19
EndSplineSet
EndChar

StartChar: Lslash
Encoding: 321 321 242
Width: 900
GlyphClass: 2
Flags: W
LayerCount: 2
Fore
SplineSet
-50 600 m 1,0,-1
 150 661 l 1,1,-1
 150 1300 l 1,2,-1
 300 1300 l 1,3,-1
 300 707 l 1,4,-1
 600 800 l 1,5,-1
 600 701 l 1,6,-1
 300 608 l 1,7,-1
 300 150 l 1,8,-1
 800 150 l 1,9,-1
 800 0 l 1,10,-1
 150 0 l 1,11,-1
 150 562 l 1,12,-1
 -50 500 l 1,13,-1
 -50 600 l 1,0,-1
EndSplineSet
EndChar

StartChar: lslash
Encoding: 322 322 243
Width: 450
GlyphClass: 2
Flags: W
LayerCount: 2
Fore
SplineSet
-50 600 m 1,0,-1
 150 661 l 1,1,-1
 150 1300 l 1,2,-1
 300 1300 l 1,3,-1
 300 707 l 1,4,-1
 600 800 l 1,5,-1
 600 701 l 1,6,-1
 300 608 l 1,7,-1
 300 0 l 1,8,-1
 150 0 l 1,9,-1
 150 562 l 1,10,-1
 -50 500 l 1,11,-1
 -50 600 l 1,0,-1
EndSplineSet
EndChar

StartChar: Zcaron
Encoding: 381 381 244
Width: 1100
GlyphClass: 2
Flags: W
LayerCount: 2
Fore
SplineSet
350 1800 m 1,0,-1
 550 1600 l 1,1,-1
 750 1800 l 1,2,-1
 850 1800 l 1,3,-1
 550 1400 l 1,4,-1
 250 1800 l 1,5,-1
 350 1800 l 1,0,-1
150 124 m 1,6,-1
 761 1150 l 1,7,-1
 150 1150 l 1,8,-1
 150 1300 l 1,9,-1
 950 1300 l 1,10,-1
 950 1174 l 1,11,-1
 340 150 l 1,12,-1
 950 150 l 1,13,-1
 950 0 l 1,14,-1
 150 0 l 1,15,-1
 150 124 l 1,6,-1
EndSplineSet
EndChar

StartChar: zcaron
Encoding: 382 382 245
Width: 1100
GlyphClass: 2
Flags: W
LayerCount: 2
Fore
SplineSet
150 131 m 1,0,-1
 151 131 l 1,1,-1
 741 850 l 1,2,-1
 150 850 l 1,3,-1
 150 1000 l 1,4,-1
 950 1000 l 1,5,-1
 950 867 l 1,6,-1
 949 867 l 1,7,-1
 360 150 l 1,8,-1
 950 150 l 1,9,-1
 950 0 l 1,10,-1
 150 0 l 1,11,-1
 150 131 l 1,0,-1
350 1550 m 1,12,-1
 550 1350 l 1,13,-1
 750 1550 l 1,14,-1
 850 1550 l 1,15,-1
 550 1150 l 1,16,-1
 250 1550 l 1,17,-1
 350 1550 l 1,12,-1
EndSplineSet
EndChar

StartChar: Euro
Encoding: 8364 8364 246
Width: 1150
GlyphClass: 2
Flags: W
LayerCount: 2
Fore
SplineSet
50 850 m 1,0,-1
 164 850 l 1,1,2
 233 1301 233 1301 650 1301 c 0,3,4
 899 1301 899 1301 1051 1200 c 1,5,-1
 1051 1000 l 1,6,7
 952 1150 952 1150 650 1150 c 0,8,9
 379 1150 379 1150 317 850 c 1,10,-1
 600 850 l 1,11,-1
 600 750 l 1,12,-1
 304 750 l 1,13,14
 300 703 300 703 300 650 c 256,15,16
 300 597 300 597 304 550 c 1,17,-1
 600 550 l 1,18,-1
 600 450 l 1,19,-1
 317 450 l 1,20,21
 378 150 378 150 650 150 c 0,22,23
 951 150 951 150 1050 300 c 1,24,-1
 1050 101 l 1,25,26
 898 0 898 0 650 0 c 0,27,28
 234 0 234 0 164 450 c 1,29,-1
 51 450 l 1,30,-1
 50 550 l 1,31,-1
 153 550 l 1,32,33
 150 598 150 598 150 651 c 0,34,35
 150 702 150 702 153 750 c 1,36,-1
 51 750 l 1,37,-1
 50 850 l 1,0,-1
EndSplineSet
EndChar

StartChar: Adotbelow
Encoding: 7840 7840 247
Width: 1100
GlyphClass: 2
Flags: W
LayerCount: 2
Fore
SplineSet
1062 0 m 1,0,-1
 905 0 l 1,1,-1
 778 400 l 1,2,-1
 327 400 l 1,3,-1
 204 0 l 1,4,-1
 48 0 l 1,5,-1
 450 1300 l 1,6,-1
 650 1300 l 1,7,-1
 1062 0 l 1,0,-1
731 550 m 1,8,-1
 550 1124 l 1,9,-1
 374 550 l 1,10,-1
 731 550 l 1,8,-1
476 -150 m 1,11,-1
 625 -150 l 1,12,-1
 625 -300 l 1,13,-1
 476 -300 l 1,14,-1
 476 -150 l 1,11,-1
EndSplineSet
EndChar

StartChar: adotbelow
Encoding: 7841 7841 248
Width: 1050
GlyphClass: 2
Flags: W
LayerCount: 2
Fore
SplineSet
100 300 m 0,0,1
 100 650 100 650 650 650 c 2,2,-1
 751 650 l 1,3,-1
 751 701 l 2,4,5
 751 851 751 851 500 851 c 0,6,7
 337 851 337 851 151 801 c 1,8,-1
 151 951 l 1,9,10
 339 1001 339 1001 501 1001 c 0,11,12
 901 1001 901 1001 901 701 c 2,13,-1
 901 1 l 1,14,-1
 751 1 l 1,15,-1
 751 160 l 1,16,-1
 738 150 l 1,17,18
 550 0 550 0 400 0 c 0,19,20
 100 0 100 0 100 300 c 0,0,1
251 300 m 0,21,22
 251 151 251 151 401 151 c 0,23,24
 500 151 500 151 625 250 c 2,25,-1
 750 350 l 1,26,-1
 750 500 l 1,27,-1
 650 500 l 2,28,29
 251 500 251 500 251 300 c 0,21,22
476 -150 m 1,30,-1
 625 -150 l 1,31,-1
 625 -300 l 1,32,-1
 476 -300 l 1,33,-1
 476 -150 l 1,30,-1
EndSplineSet
EndChar

StartChar: Ahookabove
Encoding: 7842 7842 249
Width: 1100
GlyphClass: 2
Flags: W
LayerCount: 2
Fore
SplineSet
1062 0 m 1,0,-1
 905 0 l 1,1,-1
 778 400 l 1,2,-1
 327 400 l 1,3,-1
 204 0 l 1,4,-1
 48 0 l 1,5,-1
 450 1300 l 1,6,-1
 650 1300 l 1,7,-1
 1062 0 l 1,0,-1
731 550 m 1,8,-1
 550 1124 l 1,9,-1
 374 550 l 1,10,-1
 731 550 l 1,8,-1
600 1600 m 256,11,12
 700 1649 700 1649 700 1700 c 0,13,14
 700 1800 700 1800 575 1800 c 256,15,16
 450 1800 450 1800 450 1750 c 1,17,-1
 350 1750 l 1,18,19
 350 1900 350 1900 575 1900 c 256,20,21
 800 1900 800 1900 800 1700 c 0,22,23
 800 1599 800 1599 700 1550 c 2,24,-1
 650 1525 l 2,25,26
 600 1499 600 1499 600 1400 c 1,27,-1
 500 1400 l 1,28,29
 500 1551 500 1551 600 1600 c 256,11,12
EndSplineSet
EndChar

StartChar: ahookabove
Encoding: 7843 7843 250
Width: 1050
GlyphClass: 2
Flags: W
LayerCount: 2
Fore
SplineSet
100 300 m 0,0,1
 100 650 100 650 650 650 c 2,2,-1
 751 650 l 1,3,-1
 751 701 l 2,4,5
 751 851 751 851 500 851 c 0,6,7
 337 851 337 851 151 801 c 1,8,-1
 151 951 l 1,9,10
 339 1001 339 1001 501 1001 c 0,11,12
 901 1001 901 1001 901 701 c 2,13,-1
 901 1 l 1,14,-1
 751 1 l 1,15,-1
 751 160 l 1,16,-1
 738 150 l 1,17,18
 550 0 550 0 400 0 c 0,19,20
 100 0 100 0 100 300 c 0,0,1
251 300 m 0,21,22
 251 151 251 151 401 151 c 0,23,24
 500 151 500 151 625 250 c 2,25,-1
 750 350 l 1,26,-1
 750 500 l 1,27,-1
 650 500 l 2,28,29
 251 500 251 500 251 300 c 0,21,22
600 1350 m 256,30,31
 700 1399 700 1399 700 1450 c 0,32,33
 700 1550 700 1550 575 1550 c 256,34,35
 450 1550 450 1550 450 1500 c 1,36,-1
 350 1500 l 1,37,38
 350 1650 350 1650 575 1650 c 256,39,40
 800 1650 800 1650 800 1450 c 0,41,42
 800 1349 800 1349 700 1300 c 2,43,-1
 650 1275 l 2,44,45
 600 1249 600 1249 600 1150 c 1,46,-1
 500 1150 l 1,47,48
 500 1301 500 1301 600 1350 c 256,30,31
EndSplineSet
EndChar

StartChar: Acircumflexacute
Encoding: 7844 7844 251
Width: 1100
GlyphClass: 2
Flags: W
LayerCount: 2
Fore
SplineSet
1062 0 m 1,0,-1
 905 0 l 1,1,-1
 778 400 l 1,2,-1
 327 400 l 1,3,-1
 204 0 l 1,4,-1
 48 0 l 1,5,-1
 450 1300 l 1,6,-1
 650 1300 l 1,7,-1
 1062 0 l 1,0,-1
800 1600 m 1,8,-1
 701 1600 l 1,9,-1
 851 1401 l 1,10,-1
 751 1401 l 1,11,-1
 551 1600 l 1,12,-1
 350 1401 l 1,13,-1
 250 1401 l 1,14,-1
 551 1800 l 1,15,-1
 700 1601 l 1,16,-1
 900 2000 l 1,17,-1
 1050 2000 l 1,18,-1
 800 1600 l 1,8,-1
731 550 m 1,19,-1
 550 1124 l 1,20,-1
 374 550 l 1,21,-1
 731 550 l 1,19,-1
EndSplineSet
EndChar

StartChar: acircumflexacute
Encoding: 7845 7845 252
Width: 1050
GlyphClass: 2
Flags: W
LayerCount: 2
Fore
SplineSet
100 300 m 0,0,1
 100 650 100 650 650 650 c 2,2,-1
 751 650 l 1,3,-1
 751 701 l 2,4,5
 751 851 751 851 500 851 c 0,6,7
 339 851 339 851 151 801 c 1,8,-1
 151 951 l 1,9,10
 340 1001 340 1001 501 1001 c 0,11,12
 901 1001 901 1001 901 701 c 2,13,-1
 901 1 l 1,14,-1
 751 1 l 1,15,-1
 751 160 l 1,16,-1
 738 150 l 1,17,18
 550 0 550 0 400 0 c 0,19,20
 100 0 100 0 100 300 c 0,0,1
651 500 m 2,21,22
 251 500 251 500 251 300 c 0,23,24
 251 151 251 151 401 151 c 0,25,26
 500 151 500 151 625 250 c 2,27,-1
 750 350 l 1,28,-1
 751 347 l 1,29,-1
 751 500 l 1,30,-1
 651 500 l 2,21,22
751 1151 m 1,31,-1
 551 1350 l 1,32,-1
 350 1151 l 1,33,-1
 250 1151 l 1,34,-1
 551 1550 l 1,35,-1
 851 1151 l 1,36,-1
 751 1151 l 1,31,-1
800 1400 m 1,37,-1
 700 1400 l 1,38,-1
 900 1800 l 1,39,-1
 1050 1800 l 1,40,-1
 800 1400 l 1,37,-1
EndSplineSet
EndChar

StartChar: Acircumflexgrave
Encoding: 7846 7846 253
Width: 1100
GlyphClass: 2
Flags: W
LayerCount: 2
Fore
SplineSet
1062 0 m 1,0,-1
 905 0 l 1,1,-1
 778 400 l 1,2,-1
 327 400 l 1,3,-1
 204 0 l 1,4,-1
 48 0 l 1,5,-1
 450 1300 l 1,6,-1
 650 1300 l 1,7,-1
 1062 0 l 1,0,-1
731 550 m 1,8,-1
 550 1124 l 1,9,-1
 374 550 l 1,10,-1
 731 550 l 1,8,-1
751 1401 m 1,11,-1
 551 1600 l 1,12,-1
 350 1401 l 1,13,-1
 250 1401 l 1,14,-1
 551 1800 l 1,15,-1
 851 1401 l 1,16,-1
 751 1401 l 1,11,-1
1000 1600 m 1,17,-1
 900 1600 l 1,18,-1
 600 1950 l 1,19,-1
 750 1950 l 1,20,-1
 1000 1600 l 1,17,-1
EndSplineSet
EndChar

StartChar: acircumflexgrave
Encoding: 7847 7847 254
Width: 1050
GlyphClass: 2
Flags: W
LayerCount: 2
Fore
SplineSet
100 300 m 0,0,1
 100 650 100 650 650 650 c 2,2,-1
 751 650 l 1,3,-1
 751 701 l 2,4,5
 751 851 751 851 500 851 c 0,6,7
 339 851 339 851 151 801 c 1,8,-1
 151 951 l 1,9,10
 340 1001 340 1001 501 1001 c 0,11,12
 901 1001 901 1001 901 701 c 2,13,-1
 901 1 l 1,14,-1
 751 1 l 1,15,-1
 751 160 l 1,16,-1
 738 150 l 1,17,18
 550 0 550 0 400 0 c 0,19,20
 100 0 100 0 100 300 c 0,0,1
651 500 m 2,21,22
 251 500 251 500 251 300 c 0,23,24
 251 151 251 151 401 151 c 0,25,26
 500 151 500 151 625 250 c 2,27,-1
 750 350 l 1,28,-1
 751 347 l 1,29,-1
 751 500 l 1,30,-1
 651 500 l 2,21,22
751 1151 m 1,31,-1
 551 1350 l 1,32,-1
 350 1151 l 1,33,-1
 250 1151 l 1,34,-1
 551 1550 l 1,35,-1
 851 1151 l 1,36,-1
 751 1151 l 1,31,-1
1000 1350 m 1,37,-1
 900 1350 l 1,38,-1
 600 1700 l 1,39,-1
 750 1700 l 1,40,-1
 1000 1350 l 1,37,-1
EndSplineSet
EndChar

StartChar: Acircumflexhookabove
Encoding: 7848 7848 255
Width: 1100
GlyphClass: 2
Flags: W
LayerCount: 2
Fore
SplineSet
1062 0 m 1,0,-1
 905 0 l 1,1,-1
 778 400 l 1,2,-1
 327 400 l 1,3,-1
 204 0 l 1,4,-1
 48 0 l 1,5,-1
 450 1300 l 1,6,-1
 650 1300 l 1,7,-1
 1062 0 l 1,0,-1
731 550 m 1,8,-1
 550 1124 l 1,9,-1
 374 550 l 1,10,-1
 731 550 l 1,8,-1
751 1401 m 1,11,-1
 551 1600 l 1,12,-1
 350 1401 l 1,13,-1
 250 1401 l 1,14,-1
 551 1800 l 1,15,-1
 851 1401 l 1,16,-1
 751 1401 l 1,11,-1
850 1800 m 256,17,18
 950 1849 950 1849 950 1900 c 0,19,20
 950 2000 950 2000 825 2000 c 256,21,22
 700 2000 700 2000 700 1950 c 1,23,-1
 600 1950 l 1,24,25
 600 2100 600 2100 825 2100 c 256,26,27
 1050 2100 1050 2100 1050 1900 c 0,28,29
 1050 1799 1050 1799 950 1750 c 2,30,-1
 900 1725 l 2,31,32
 850 1699 850 1699 850 1600 c 1,33,-1
 750 1600 l 1,34,35
 750 1751 750 1751 850 1800 c 256,17,18
EndSplineSet
EndChar

StartChar: acircumflexhookabove
Encoding: 7849 7849 256
Width: 1050
GlyphClass: 2
Flags: W
LayerCount: 2
Fore
SplineSet
100 300 m 0,0,1
 100 650 100 650 650 650 c 2,2,-1
 751 650 l 1,3,-1
 751 701 l 2,4,5
 751 851 751 851 500 851 c 0,6,7
 339 851 339 851 151 801 c 1,8,-1
 151 951 l 1,9,10
 340 1001 340 1001 501 1001 c 0,11,12
 901 1001 901 1001 901 701 c 2,13,-1
 901 1 l 1,14,-1
 751 1 l 1,15,-1
 751 160 l 1,16,-1
 738 150 l 1,17,18
 550 0 550 0 400 0 c 0,19,20
 100 0 100 0 100 300 c 0,0,1
651 500 m 2,21,22
 251 500 251 500 251 300 c 0,23,24
 251 151 251 151 401 151 c 0,25,26
 500 151 500 151 625 250 c 2,27,-1
 750 350 l 1,28,-1
 751 347 l 1,29,-1
 751 500 l 1,30,-1
 651 500 l 2,21,22
751 1151 m 1,31,-1
 551 1350 l 1,32,-1
 350 1151 l 1,33,-1
 250 1151 l 1,34,-1
 551 1550 l 1,35,-1
 851 1151 l 1,36,-1
 751 1151 l 1,31,-1
850 1550 m 256,37,38
 950 1599 950 1599 950 1650 c 0,39,40
 950 1750 950 1750 825 1750 c 256,41,42
 700 1750 700 1750 700 1700 c 1,43,-1
 600 1700 l 1,44,45
 600 1850 600 1850 825 1850 c 256,46,47
 1050 1850 1050 1850 1050 1650 c 0,48,49
 1050 1549 1050 1549 950 1500 c 2,50,-1
 900 1475 l 2,51,52
 850 1449 850 1449 850 1350 c 1,53,-1
 750 1350 l 1,54,55
 750 1501 750 1501 850 1550 c 256,37,38
EndSplineSet
EndChar

StartChar: Acircumflexhooktilde
Encoding: 7850 7850 257
Width: 1100
GlyphClass: 2
Flags: W
LayerCount: 2
Fore
SplineSet
1062 0 m 1,0,-1
 905 0 l 1,1,-1
 778 400 l 1,2,-1
 327 400 l 1,3,-1
 204 0 l 1,4,-1
 48 0 l 1,5,-1
 450 1300 l 1,6,-1
 650 1300 l 1,7,-1
 1062 0 l 1,0,-1
731 550 m 1,8,-1
 550 1124 l 1,9,-1
 374 550 l 1,10,-1
 731 550 l 1,8,-1
751 1401 m 1,11,-1
 551 1600 l 1,12,-1
 350 1401 l 1,13,-1
 250 1401 l 1,14,-1
 551 1800 l 1,15,-1
 851 1401 l 1,16,-1
 751 1401 l 1,11,-1
706 1850 m 0,17,18
 608 1850 608 1850 531 1900 c 256,19,20
 454 1950 454 1950 406 1950 c 0,21,22
 357 1950 357 1950 357 1850 c 1,23,-1
 256 1850 l 1,24,25
 256 2050 256 2050 406 2050 c 0,26,27
 504 2050 504 2050 581 2000 c 256,28,29
 658 1950 658 1950 706 1950 c 0,30,31
 756 1950 756 1950 756 2050 c 1,32,-1
 856 2050 l 1,33,34
 856 1850 856 1850 706 1850 c 0,17,18
EndSplineSet
EndChar

StartChar: acircumflextilde
Encoding: 7851 7851 258
Width: 1050
GlyphClass: 2
Flags: W
LayerCount: 2
Fore
SplineSet
100 300 m 0,0,1
 100 650 100 650 650 650 c 2,2,-1
 751 650 l 1,3,-1
 751 701 l 2,4,5
 751 851 751 851 500 851 c 0,6,7
 339 851 339 851 151 801 c 1,8,-1
 151 951 l 1,9,10
 340 1001 340 1001 501 1001 c 0,11,12
 901 1001 901 1001 901 701 c 2,13,-1
 901 1 l 1,14,-1
 751 1 l 1,15,-1
 751 160 l 1,16,-1
 738 150 l 1,17,18
 550 0 550 0 400 0 c 0,19,20
 100 0 100 0 100 300 c 0,0,1
651 500 m 2,21,22
 251 500 251 500 251 300 c 0,23,24
 251 151 251 151 401 151 c 0,25,26
 500 151 500 151 625 250 c 2,27,-1
 750 350 l 1,28,-1
 751 347 l 1,29,-1
 751 500 l 1,30,-1
 651 500 l 2,21,22
751 1151 m 1,31,-1
 551 1350 l 1,32,-1
 350 1151 l 1,33,-1
 250 1151 l 1,34,-1
 551 1550 l 1,35,-1
 851 1151 l 1,36,-1
 751 1151 l 1,31,-1
706 1600 m 0,37,38
 608 1600 608 1600 531 1650 c 256,39,40
 454 1700 454 1700 406 1700 c 0,41,42
 357 1700 357 1700 357 1600 c 1,43,-1
 256 1600 l 1,44,45
 256 1800 256 1800 406 1800 c 0,46,47
 504 1800 504 1800 581 1750 c 256,48,49
 658 1700 658 1700 706 1700 c 0,50,51
 756 1700 756 1700 756 1800 c 1,52,-1
 856 1800 l 1,53,54
 856 1600 856 1600 706 1600 c 0,37,38
EndSplineSet
EndChar

StartChar: Acircumflexdotbelow
Encoding: 7852 7852 259
Width: 1100
GlyphClass: 2
Flags: W
LayerCount: 2
Fore
SplineSet
1062 0 m 1,0,-1
 905 0 l 1,1,-1
 778 400 l 1,2,-1
 327 400 l 1,3,-1
 204 0 l 1,4,-1
 48 0 l 1,5,-1
 450 1300 l 1,6,-1
 650 1300 l 1,7,-1
 1062 0 l 1,0,-1
731 550 m 1,8,-1
 550 1124 l 1,9,-1
 374 550 l 1,10,-1
 731 550 l 1,8,-1
751 1401 m 1,11,-1
 551 1600 l 1,12,-1
 350 1401 l 1,13,-1
 250 1401 l 1,14,-1
 551 1800 l 1,15,-1
 851 1401 l 1,16,-1
 751 1401 l 1,11,-1
476 -150 m 1,17,-1
 625 -150 l 1,18,-1
 625 -300 l 1,19,-1
 476 -300 l 1,20,-1
 476 -150 l 1,17,-1
EndSplineSet
EndChar

StartChar: acircumflexdotbelow
Encoding: 7853 7853 260
Width: 1050
GlyphClass: 2
Flags: W
LayerCount: 2
Fore
SplineSet
100 300 m 0,0,1
 100 650 100 650 650 650 c 2,2,-1
 751 650 l 1,3,-1
 751 701 l 2,4,5
 751 851 751 851 500 851 c 0,6,7
 339 851 339 851 151 801 c 1,8,-1
 151 951 l 1,9,10
 340 1001 340 1001 501 1001 c 0,11,12
 901 1001 901 1001 901 701 c 2,13,-1
 901 1 l 1,14,-1
 751 1 l 1,15,-1
 751 160 l 1,16,-1
 738 150 l 1,17,18
 550 0 550 0 400 0 c 0,19,20
 100 0 100 0 100 300 c 0,0,1
651 500 m 2,21,22
 251 500 251 500 251 300 c 0,23,24
 251 151 251 151 401 151 c 0,25,26
 500 151 500 151 625 250 c 2,27,-1
 750 350 l 1,28,-1
 751 347 l 1,29,-1
 751 500 l 1,30,-1
 651 500 l 2,21,22
751 1151 m 1,31,-1
 551 1350 l 1,32,-1
 350 1151 l 1,33,-1
 250 1151 l 1,34,-1
 551 1550 l 1,35,-1
 851 1151 l 1,36,-1
 751 1151 l 1,31,-1
476 -150 m 1,37,-1
 625 -150 l 1,38,-1
 625 -300 l 1,39,-1
 476 -300 l 1,40,-1
 476 -150 l 1,37,-1
EndSplineSet
EndChar

StartChar: Abreveacute
Encoding: 7854 7854 261
Width: 1100
GlyphClass: 2
Flags: W
LayerCount: 2
Fore
SplineSet
1062 0 m 1,0,-1
 905 0 l 1,1,-1
 778 400 l 1,2,-1
 327 400 l 1,3,-1
 204 0 l 1,4,-1
 48 0 l 1,5,-1
 450 1300 l 1,6,-1
 650 1300 l 1,7,-1
 1062 0 l 1,0,-1
731 550 m 1,8,-1
 550 1124 l 1,9,-1
 374 550 l 1,10,-1
 731 550 l 1,8,-1
600 1700 m 1,11,-1
 500 1700 l 1,12,-1
 700 2100 l 1,13,-1
 850 2100 l 1,14,-1
 600 1700 l 1,11,-1
549 1400 m 0,15,16
 298 1400 298 1400 249 1749 c 1,17,-1
 349 1749 l 1,18,19
 400 1550 400 1550 550 1550 c 0,20,21
 701 1550 701 1550 750 1749 c 1,22,-1
 850 1749 l 1,23,24
 801 1400 801 1400 549 1400 c 0,15,16
EndSplineSet
EndChar

StartChar: abreveacute
Encoding: 7855 7855 262
Width: 1050
GlyphClass: 2
Flags: W
LayerCount: 2
Fore
SplineSet
100 300 m 0,0,1
 100 650 100 650 650 650 c 2,2,-1
 751 650 l 1,3,-1
 751 701 l 2,4,5
 751 851 751 851 500 851 c 0,6,7
 339 851 339 851 151 801 c 1,8,-1
 151 951 l 1,9,10
 340 1001 340 1001 501 1001 c 0,11,12
 901 1001 901 1001 901 701 c 2,13,-1
 901 1 l 1,14,-1
 751 1 l 1,15,-1
 751 160 l 1,16,-1
 738 150 l 1,17,18
 550 0 550 0 400 0 c 0,19,20
 100 0 100 0 100 300 c 0,0,1
651 500 m 2,21,22
 251 500 251 500 251 300 c 0,23,24
 251 151 251 151 401 151 c 0,25,26
 500 151 500 151 625 250 c 2,27,-1
 750 350 l 1,28,-1
 751 347 l 1,29,-1
 751 500 l 1,30,-1
 651 500 l 2,21,22
549 1100 m 0,31,32
 298 1100 298 1100 249 1449 c 1,33,-1
 349 1449 l 1,34,35
 400 1250 400 1250 550 1250 c 0,36,37
 701 1250 701 1250 750 1449 c 1,38,-1
 850 1449 l 1,39,40
 801 1100 801 1100 549 1100 c 0,31,32
600 1400 m 1,41,-1
 500 1400 l 1,42,-1
 700 1800 l 1,43,-1
 850 1800 l 1,44,-1
 600 1400 l 1,41,-1
EndSplineSet
EndChar

StartChar: Abrevegrave
Encoding: 7856 7856 263
Width: 1100
GlyphClass: 2
Flags: W
LayerCount: 2
Fore
SplineSet
1062 0 m 1,0,-1
 905 0 l 1,1,-1
 778 400 l 1,2,-1
 327 400 l 1,3,-1
 204 0 l 1,4,-1
 48 0 l 1,5,-1
 450 1300 l 1,6,-1
 650 1300 l 1,7,-1
 1062 0 l 1,0,-1
731 550 m 1,8,-1
 550 1124 l 1,9,-1
 374 550 l 1,10,-1
 731 550 l 1,8,-1
549 1400 m 0,11,12
 298 1400 298 1400 249 1749 c 1,13,-1
 349 1749 l 1,14,15
 400 1550 400 1550 550 1550 c 0,16,17
 701 1550 701 1550 750 1749 c 1,18,-1
 850 1749 l 1,19,20
 801 1400 801 1400 549 1400 c 0,11,12
700 1700 m 1,21,-1
 600 1700 l 1,22,-1
 300 2050 l 1,23,-1
 450 2050 l 1,24,-1
 700 1700 l 1,21,-1
EndSplineSet
EndChar

StartChar: abrevegrave
Encoding: 7857 7857 264
Width: 1050
GlyphClass: 2
Flags: W
LayerCount: 2
Fore
SplineSet
100 300 m 0,0,1
 100 650 100 650 650 650 c 2,2,-1
 751 650 l 1,3,-1
 751 701 l 2,4,5
 751 851 751 851 500 851 c 0,6,7
 339 851 339 851 151 801 c 1,8,-1
 151 951 l 1,9,10
 340 1001 340 1001 501 1001 c 0,11,12
 901 1001 901 1001 901 701 c 2,13,-1
 901 1 l 1,14,-1
 751 1 l 1,15,-1
 751 160 l 1,16,-1
 738 150 l 1,17,18
 550 0 550 0 400 0 c 0,19,20
 100 0 100 0 100 300 c 0,0,1
651 500 m 2,21,22
 251 500 251 500 251 300 c 0,23,24
 251 151 251 151 401 151 c 0,25,26
 500 151 500 151 625 250 c 2,27,-1
 750 350 l 1,28,-1
 751 347 l 1,29,-1
 751 500 l 1,30,-1
 651 500 l 2,21,22
549 1100 m 0,31,32
 298 1100 298 1100 249 1449 c 1,33,-1
 349 1449 l 1,34,35
 400 1250 400 1250 550 1250 c 0,36,37
 701 1250 701 1250 750 1449 c 1,38,-1
 850 1449 l 1,39,40
 801 1100 801 1100 549 1100 c 0,31,32
700 1400 m 1,41,-1
 600 1400 l 1,42,-1
 300 1750 l 1,43,-1
 450 1750 l 1,44,-1
 700 1400 l 1,41,-1
EndSplineSet
EndChar

StartChar: Abrevehookabove
Encoding: 7858 7858 265
Width: 1100
GlyphClass: 2
Flags: W
LayerCount: 2
Fore
SplineSet
1062 0 m 1,0,-1
 905 0 l 1,1,-1
 778 400 l 1,2,-1
 327 400 l 1,3,-1
 204 0 l 1,4,-1
 48 0 l 1,5,-1
 450 1300 l 1,6,-1
 650 1300 l 1,7,-1
 1062 0 l 1,0,-1
731 550 m 1,8,-1
 550 1124 l 1,9,-1
 374 550 l 1,10,-1
 731 550 l 1,8,-1
549 1400 m 0,11,12
 298 1400 298 1400 249 1749 c 1,13,-1
 349 1749 l 1,14,15
 400 1550 400 1550 550 1550 c 0,16,17
 701 1550 701 1550 750 1749 c 1,18,-1
 850 1749 l 1,19,20
 801 1400 801 1400 549 1400 c 0,11,12
600 1900 m 256,21,22
 700 1949 700 1949 700 2000 c 0,23,24
 700 2100 700 2100 575 2100 c 256,25,26
 450 2100 450 2100 450 2050 c 1,27,-1
 350 2050 l 1,28,29
 350 2200 350 2200 575 2200 c 256,30,31
 800 2200 800 2200 800 2000 c 0,32,33
 800 1899 800 1899 700 1850 c 2,34,-1
 650 1825 l 2,35,36
 600 1799 600 1799 600 1700 c 1,37,-1
 500 1700 l 1,38,39
 500 1851 500 1851 600 1900 c 256,21,22
EndSplineSet
EndChar

StartChar: abrevehookabove
Encoding: 7859 7859 266
Width: 1050
GlyphClass: 2
Flags: W
LayerCount: 2
Fore
SplineSet
100 300 m 0,0,1
 100 650 100 650 650 650 c 2,2,-1
 751 650 l 1,3,-1
 751 701 l 2,4,5
 751 851 751 851 500 851 c 0,6,7
 339 851 339 851 151 801 c 1,8,-1
 151 951 l 1,9,10
 340 1001 340 1001 501 1001 c 0,11,12
 901 1001 901 1001 901 701 c 2,13,-1
 901 1 l 1,14,-1
 751 1 l 1,15,-1
 751 160 l 1,16,-1
 738 150 l 1,17,18
 550 0 550 0 400 0 c 0,19,20
 100 0 100 0 100 300 c 0,0,1
651 500 m 2,21,22
 251 500 251 500 251 300 c 0,23,24
 251 151 251 151 401 151 c 0,25,26
 500 151 500 151 625 250 c 2,27,-1
 750 350 l 1,28,-1
 751 347 l 1,29,-1
 751 500 l 1,30,-1
 651 500 l 2,21,22
549 1100 m 0,31,32
 298 1100 298 1100 249 1449 c 1,33,-1
 349 1449 l 1,34,35
 400 1250 400 1250 550 1250 c 0,36,37
 701 1250 701 1250 750 1449 c 1,38,-1
 850 1449 l 1,39,40
 801 1100 801 1100 549 1100 c 0,31,32
600 1600 m 256,41,42
 700 1649 700 1649 700 1700 c 0,43,44
 700 1800 700 1800 575 1800 c 256,45,46
 450 1800 450 1800 450 1750 c 1,47,-1
 350 1750 l 1,48,49
 350 1900 350 1900 575 1900 c 256,50,51
 800 1900 800 1900 800 1700 c 0,52,53
 800 1599 800 1599 700 1550 c 2,54,-1
 650 1525 l 2,55,56
 600 1499 600 1499 600 1400 c 1,57,-1
 500 1400 l 1,58,59
 500 1551 500 1551 600 1600 c 256,41,42
EndSplineSet
EndChar

StartChar: Abrevetilde
Encoding: 7860 7860 267
Width: 1100
GlyphClass: 2
Flags: W
LayerCount: 2
Fore
SplineSet
1062 0 m 1,0,-1
 905 0 l 1,1,-1
 778 400 l 1,2,-1
 327 400 l 1,3,-1
 204 0 l 1,4,-1
 48 0 l 1,5,-1
 450 1300 l 1,6,-1
 650 1300 l 1,7,-1
 1062 0 l 1,0,-1
731 550 m 1,8,-1
 550 1124 l 1,9,-1
 374 550 l 1,10,-1
 731 550 l 1,8,-1
549 1400 m 0,11,12
 298 1400 298 1400 249 1749 c 1,13,-1
 349 1749 l 1,14,15
 400 1550 400 1550 550 1550 c 0,16,17
 701 1550 701 1550 750 1749 c 1,18,-1
 850 1749 l 1,19,20
 801 1400 801 1400 549 1400 c 0,11,12
706 1850 m 0,21,22
 608 1850 608 1850 531 1900 c 256,23,24
 454 1950 454 1950 406 1950 c 0,25,26
 357 1950 357 1950 357 1850 c 1,27,-1
 256 1850 l 1,28,29
 256 2050 256 2050 406 2050 c 0,30,31
 504 2050 504 2050 581 2000 c 256,32,33
 658 1950 658 1950 706 1950 c 0,34,35
 756 1950 756 1950 756 2050 c 1,36,-1
 856 2050 l 1,37,38
 856 1850 856 1850 706 1850 c 0,21,22
EndSplineSet
EndChar

StartChar: abrevetilde
Encoding: 7861 7861 268
Width: 1050
GlyphClass: 2
Flags: W
LayerCount: 2
Fore
SplineSet
100 300 m 0,0,1
 100 650 100 650 650 650 c 2,2,-1
 751 650 l 1,3,-1
 751 701 l 2,4,5
 751 851 751 851 500 851 c 0,6,7
 339 851 339 851 151 801 c 1,8,-1
 151 951 l 1,9,10
 340 1001 340 1001 501 1001 c 0,11,12
 901 1001 901 1001 901 701 c 2,13,-1
 901 1 l 1,14,-1
 751 1 l 1,15,-1
 751 160 l 1,16,-1
 738 150 l 1,17,18
 550 0 550 0 400 0 c 0,19,20
 100 0 100 0 100 300 c 0,0,1
651 500 m 2,21,22
 251 500 251 500 251 300 c 0,23,24
 251 151 251 151 401 151 c 0,25,26
 500 151 500 151 625 250 c 2,27,-1
 750 350 l 1,28,-1
 751 347 l 1,29,-1
 751 500 l 1,30,-1
 651 500 l 2,21,22
549 1100 m 0,31,32
 298 1100 298 1100 249 1449 c 1,33,-1
 349 1449 l 1,34,35
 400 1250 400 1250 550 1250 c 0,36,37
 701 1250 701 1250 750 1449 c 1,38,-1
 850 1449 l 1,39,40
 801 1100 801 1100 549 1100 c 0,31,32
706 1550 m 0,41,42
 608 1550 608 1550 531 1600 c 256,43,44
 454 1650 454 1650 406 1650 c 0,45,46
 357 1650 357 1650 357 1550 c 1,47,-1
 256 1550 l 1,48,49
 256 1750 256 1750 406 1750 c 0,50,51
 504 1750 504 1750 581 1700 c 256,52,53
 658 1650 658 1650 706 1650 c 0,54,55
 756 1650 756 1650 756 1750 c 1,56,-1
 856 1750 l 1,57,58
 856 1550 856 1550 706 1550 c 0,41,42
EndSplineSet
EndChar

StartChar: Abrevedotbelove
Encoding: 7862 7862 269
Width: 1100
GlyphClass: 2
Flags: W
LayerCount: 2
Fore
SplineSet
1062 0 m 1,0,-1
 905 0 l 1,1,-1
 778 400 l 1,2,-1
 327 400 l 1,3,-1
 204 0 l 1,4,-1
 48 0 l 1,5,-1
 450 1300 l 1,6,-1
 650 1300 l 1,7,-1
 1062 0 l 1,0,-1
731 550 m 1,8,-1
 550 1124 l 1,9,-1
 374 550 l 1,10,-1
 731 550 l 1,8,-1
549 1400 m 0,11,12
 298 1400 298 1400 249 1749 c 1,13,-1
 349 1749 l 1,14,15
 400 1550 400 1550 550 1550 c 0,16,17
 701 1550 701 1550 750 1749 c 1,18,-1
 850 1749 l 1,19,20
 801 1400 801 1400 549 1400 c 0,11,12
476 -150 m 1,21,-1
 625 -150 l 1,22,-1
 625 -300 l 1,23,-1
 476 -300 l 1,24,-1
 476 -150 l 1,21,-1
EndSplineSet
EndChar

StartChar: abrevedotbelove
Encoding: 7863 7863 270
Width: 1050
GlyphClass: 2
Flags: W
LayerCount: 2
Fore
SplineSet
100 300 m 0,0,1
 100 650 100 650 650 650 c 2,2,-1
 751 650 l 1,3,-1
 751 701 l 2,4,5
 751 851 751 851 500 851 c 0,6,7
 339 851 339 851 151 801 c 1,8,-1
 151 951 l 1,9,10
 340 1001 340 1001 501 1001 c 0,11,12
 901 1001 901 1001 901 701 c 2,13,-1
 901 1 l 1,14,-1
 751 1 l 1,15,-1
 751 160 l 1,16,-1
 738 150 l 1,17,18
 550 0 550 0 400 0 c 0,19,20
 100 0 100 0 100 300 c 0,0,1
651 500 m 2,21,22
 251 500 251 500 251 300 c 0,23,24
 251 151 251 151 401 151 c 0,25,26
 500 151 500 151 625 250 c 2,27,-1
 750 350 l 1,28,-1
 751 347 l 1,29,-1
 751 500 l 1,30,-1
 651 500 l 2,21,22
549 1100 m 0,31,32
 298 1100 298 1100 249 1449 c 1,33,-1
 349 1449 l 1,34,35
 400 1250 400 1250 550 1250 c 0,36,37
 701 1250 701 1250 750 1449 c 1,38,-1
 850 1449 l 1,39,40
 801 1100 801 1100 549 1100 c 0,31,32
476 -150 m 1,41,-1
 625 -150 l 1,42,-1
 625 -300 l 1,43,-1
 476 -300 l 1,44,-1
 476 -150 l 1,41,-1
EndSplineSet
EndChar

StartChar: Edotbelow
Encoding: 7864 7864 271
Width: 1050
GlyphClass: 2
Flags: W
LayerCount: 2
Fore
SplineSet
950 1300 m 1,0,-1
 950 1150 l 1,1,-1
 300 1150 l 1,2,-1
 300 800 l 1,3,-1
 900 800 l 1,4,-1
 900 650 l 1,5,-1
 300 650 l 1,6,-1
 300 150 l 1,7,-1
 950 150 l 1,8,-1
 950 0 l 1,9,-1
 150 0 l 1,10,-1
 150 1300 l 1,11,-1
 950 1300 l 1,0,-1
476 -150 m 1,12,-1
 625 -150 l 1,13,-1
 625 -300 l 1,14,-1
 476 -300 l 1,15,-1
 476 -150 l 1,12,-1
EndSplineSet
EndChar

StartChar: edotbelow
Encoding: 7865 7865 272
Width: 1050
GlyphClass: 2
Flags: W
LayerCount: 2
Fore
SplineSet
501 1001 m 256,0,1
 901 1001 901 1001 901 601 c 2,2,-1
 901 450 l 1,3,-1
 251 450 l 1,4,5
 269 150 269 150 500 150 c 0,6,7
 749 150 749 150 901 300 c 1,8,-1
 901 101 l 1,9,10
 750 1 750 1 500 1 c 2,11,-1
 498 1 l 2,12,13
 101 1 101 1 101 497 c 2,14,-1
 101 501 l 2,15,16
 101 1001 101 1001 501 1001 c 256,0,1
501 851 m 0,17,18
 291 851 291 851 256 600 c 1,19,-1
 750 600 l 1,20,-1
 750 603 l 2,21,22
 750 849 750 849 501 851 c 0,17,18
476 -150 m 1,23,-1
 625 -150 l 1,24,-1
 625 -300 l 1,25,-1
 476 -300 l 1,26,-1
 476 -150 l 1,23,-1
EndSplineSet
EndChar

StartChar: Ehookabove
Encoding: 7866 7866 273
Width: 1050
GlyphClass: 2
Flags: W
LayerCount: 2
Fore
SplineSet
950 1300 m 1,0,-1
 950 1150 l 1,1,-1
 300 1150 l 1,2,-1
 300 800 l 1,3,-1
 900 800 l 1,4,-1
 900 650 l 1,5,-1
 300 650 l 1,6,-1
 300 150 l 1,7,-1
 950 150 l 1,8,-1
 950 0 l 1,9,-1
 150 0 l 1,10,-1
 150 1300 l 1,11,-1
 950 1300 l 1,0,-1
600 1600 m 256,12,13
 700 1649 700 1649 700 1700 c 0,14,15
 700 1800 700 1800 575 1800 c 256,16,17
 450 1800 450 1800 450 1750 c 1,18,-1
 350 1750 l 1,19,20
 350 1900 350 1900 575 1900 c 256,21,22
 800 1900 800 1900 800 1700 c 0,23,24
 800 1599 800 1599 700 1550 c 2,25,-1
 650 1525 l 2,26,27
 600 1499 600 1499 600 1400 c 1,28,-1
 500 1400 l 1,29,30
 500 1551 500 1551 600 1600 c 256,12,13
EndSplineSet
EndChar

StartChar: ehookabove
Encoding: 7867 7867 274
Width: 1050
GlyphClass: 2
Flags: W
LayerCount: 2
Fore
SplineSet
501 1001 m 256,0,1
 901 1001 901 1001 901 601 c 2,2,-1
 901 450 l 1,3,-1
 251 450 l 1,4,5
 269 150 269 150 500 150 c 0,6,7
 749 150 749 150 901 300 c 1,8,-1
 901 101 l 1,9,10
 750 1 750 1 500 1 c 2,11,-1
 498 1 l 2,12,13
 101 1 101 1 101 497 c 2,14,-1
 101 501 l 2,15,16
 101 1001 101 1001 501 1001 c 256,0,1
501 851 m 0,17,18
 291 851 291 851 256 600 c 1,19,-1
 750 600 l 1,20,-1
 750 603 l 2,21,22
 750 849 750 849 501 851 c 0,17,18
600 1350 m 256,23,24
 700 1399 700 1399 700 1450 c 0,25,26
 700 1550 700 1550 575 1550 c 256,27,28
 450 1550 450 1550 450 1500 c 1,29,-1
 350 1500 l 1,30,31
 350 1650 350 1650 575 1650 c 256,32,33
 800 1650 800 1650 800 1450 c 0,34,35
 800 1349 800 1349 700 1300 c 2,36,-1
 650 1275 l 2,37,38
 600 1249 600 1249 600 1150 c 1,39,-1
 500 1150 l 1,40,41
 500 1301 500 1301 600 1350 c 256,23,24
EndSplineSet
EndChar

StartChar: Etilde
Encoding: 7868 7868 275
Width: 1050
GlyphClass: 2
Flags: W
LayerCount: 2
Fore
SplineSet
950 1300 m 1,0,-1
 950 1150 l 1,1,-1
 300 1150 l 1,2,-1
 300 800 l 1,3,-1
 900 800 l 1,4,-1
 900 650 l 1,5,-1
 300 650 l 1,6,-1
 300 150 l 1,7,-1
 950 150 l 1,8,-1
 950 0 l 1,9,-1
 150 0 l 1,10,-1
 150 1300 l 1,11,-1
 950 1300 l 1,0,-1
706 1450 m 0,12,13
 608 1450 608 1450 531 1500 c 256,14,15
 454 1550 454 1550 406 1550 c 0,16,17
 357 1550 357 1550 357 1450 c 1,18,-1
 256 1450 l 1,19,20
 256 1650 256 1650 406 1650 c 0,21,22
 504 1650 504 1650 581 1600 c 256,23,24
 658 1550 658 1550 706 1550 c 0,25,26
 756 1550 756 1550 756 1650 c 1,27,-1
 856 1650 l 1,28,29
 856 1450 856 1450 706 1450 c 0,12,13
EndSplineSet
EndChar

StartChar: etilde
Encoding: 7869 7869 276
Width: 1050
GlyphClass: 2
Flags: W
LayerCount: 2
Fore
SplineSet
501 1001 m 256,0,1
 901 1001 901 1001 901 601 c 2,2,-1
 901 450 l 1,3,-1
 251 450 l 1,4,5
 269 150 269 150 500 150 c 0,6,7
 749 150 749 150 901 300 c 1,8,-1
 901 101 l 1,9,10
 750 1 750 1 500 1 c 2,11,-1
 498 1 l 2,12,13
 101 1 101 1 101 497 c 2,14,-1
 101 501 l 2,15,16
 101 1001 101 1001 501 1001 c 256,0,1
501 851 m 0,17,18
 291 851 291 851 256 600 c 1,19,-1
 750 600 l 1,20,-1
 750 603 l 2,21,22
 750 849 750 849 501 851 c 0,17,18
706 1200 m 0,23,24
 608 1200 608 1200 531 1250 c 256,25,26
 454 1300 454 1300 406 1300 c 0,27,28
 357 1300 357 1300 357 1200 c 1,29,-1
 256 1200 l 1,30,31
 256 1400 256 1400 406 1400 c 0,32,33
 504 1400 504 1400 581 1350 c 256,34,35
 658 1300 658 1300 706 1300 c 0,36,37
 756 1300 756 1300 756 1400 c 1,38,-1
 856 1400 l 1,39,40
 856 1200 856 1200 706 1200 c 0,23,24
EndSplineSet
EndChar

StartChar: Ecircumflexacute
Encoding: 7870 7870 277
Width: 1049
GlyphClass: 2
Flags: W
LayerCount: 2
Fore
SplineSet
950 1300 m 1,0,-1
 950 1150 l 1,1,-1
 300 1150 l 1,2,-1
 300 800 l 1,3,-1
 900 800 l 1,4,-1
 900 650 l 1,5,-1
 300 650 l 1,6,-1
 300 150 l 1,7,-1
 950 150 l 1,8,-1
 950 0 l 1,9,-1
 150 0 l 1,10,-1
 150 1300 l 1,11,-1
 950 1300 l 1,0,-1
751 1401 m 1,12,-1
 551 1600 l 1,13,-1
 350 1401 l 1,14,-1
 250 1401 l 1,15,-1
 551 1800 l 1,16,-1
 851 1401 l 1,17,-1
 751 1401 l 1,12,-1
800 1600 m 1,18,-1
 700 1600 l 1,19,-1
 900 2000 l 1,20,-1
 1050 2000 l 1,21,-1
 800 1600 l 1,18,-1
EndSplineSet
EndChar

StartChar: ecircumflexacute
Encoding: 7871 7871 278
Width: 1050
GlyphClass: 2
Flags: W
LayerCount: 2
Fore
SplineSet
501 1001 m 256,0,1
 901 1001 901 1001 901 601 c 2,2,-1
 901 450 l 1,3,-1
 251 450 l 1,4,5
 269 150 269 150 500 150 c 0,6,7
 749 150 749 150 901 300 c 1,8,-1
 901 101 l 1,9,10
 750 1 750 1 500 1 c 2,11,-1
 498 1 l 2,12,13
 101 1 101 1 101 497 c 2,14,-1
 101 501 l 2,15,16
 101 1001 101 1001 501 1001 c 256,0,1
501 851 m 0,17,18
 291 851 291 851 256 600 c 1,19,-1
 750 600 l 1,20,-1
 750 603 l 2,21,22
 750 849 750 849 501 851 c 0,17,18
751 1151 m 1,23,-1
 551 1350 l 1,24,-1
 350 1151 l 1,25,-1
 250 1151 l 1,26,-1
 551 1550 l 1,27,-1
 851 1151 l 1,28,-1
 751 1151 l 1,23,-1
800 1390 m 1,29,-1
 700 1390 l 1,30,-1
 900 1790 l 1,31,-1
 1050 1790 l 1,32,-1
 800 1390 l 1,29,-1
EndSplineSet
EndChar

StartChar: Ecircumflexgrave
Encoding: 7872 7872 279
Width: 1050
GlyphClass: 2
Flags: W
LayerCount: 2
Fore
SplineSet
950 1300 m 1,0,-1
 950 1150 l 1,1,-1
 300 1150 l 1,2,-1
 300 800 l 1,3,-1
 900 800 l 1,4,-1
 900 650 l 1,5,-1
 300 650 l 1,6,-1
 300 150 l 1,7,-1
 950 150 l 1,8,-1
 950 0 l 1,9,-1
 150 0 l 1,10,-1
 150 1300 l 1,11,-1
 950 1300 l 1,0,-1
751 1401 m 1,12,-1
 551 1600 l 1,13,-1
 350 1401 l 1,14,-1
 250 1401 l 1,15,-1
 551 1800 l 1,16,-1
 851 1401 l 1,17,-1
 751 1401 l 1,12,-1
1000 1600 m 1,18,-1
 900 1600 l 1,19,-1
 600 1950 l 1,20,-1
 750 1950 l 1,21,-1
 1000 1600 l 1,18,-1
EndSplineSet
EndChar

StartChar: ecircumflexgrave
Encoding: 7873 7873 280
Width: 1050
GlyphClass: 2
Flags: W
LayerCount: 2
Fore
SplineSet
501 1001 m 256,0,1
 901 1001 901 1001 901 601 c 2,2,-1
 901 450 l 1,3,-1
 251 450 l 1,4,5
 269 150 269 150 500 150 c 0,6,7
 749 150 749 150 901 300 c 1,8,-1
 901 101 l 1,9,10
 750 1 750 1 500 1 c 2,11,-1
 498 1 l 2,12,13
 101 1 101 1 101 497 c 2,14,-1
 101 501 l 2,15,16
 101 1001 101 1001 501 1001 c 256,0,1
501 851 m 0,17,18
 291 851 291 851 256 600 c 1,19,-1
 750 600 l 1,20,-1
 750 603 l 2,21,22
 750 849 750 849 501 851 c 0,17,18
751 1151 m 1,23,-1
 551 1350 l 1,24,-1
 350 1151 l 1,25,-1
 250 1151 l 1,26,-1
 551 1550 l 1,27,-1
 851 1151 l 1,28,-1
 751 1151 l 1,23,-1
1000 1350 m 1,29,-1
 900 1350 l 1,30,-1
 600 1700 l 1,31,-1
 750 1700 l 1,32,-1
 1000 1350 l 1,29,-1
EndSplineSet
EndChar

StartChar: Ecircumflexhookabove
Encoding: 7874 7874 281
Width: 1049
GlyphClass: 2
Flags: W
LayerCount: 2
Fore
SplineSet
950 1300 m 1,0,-1
 950 1150 l 1,1,-1
 300 1150 l 1,2,-1
 300 800 l 1,3,-1
 900 800 l 1,4,-1
 900 650 l 1,5,-1
 300 650 l 1,6,-1
 300 150 l 1,7,-1
 950 150 l 1,8,-1
 950 0 l 1,9,-1
 150 0 l 1,10,-1
 150 1300 l 1,11,-1
 950 1300 l 1,0,-1
751 1401 m 1,12,-1
 551 1600 l 1,13,-1
 350 1401 l 1,14,-1
 250 1401 l 1,15,-1
 551 1800 l 1,16,-1
 851 1401 l 1,17,-1
 751 1401 l 1,12,-1
850 1800 m 256,18,19
 950 1849 950 1849 950 1900 c 0,20,21
 950 2000 950 2000 825 2000 c 256,22,23
 700 2000 700 2000 700 1950 c 1,24,-1
 600 1950 l 1,25,26
 600 2100 600 2100 825 2100 c 256,27,28
 1050 2100 1050 2100 1050 1900 c 0,29,30
 1050 1799 1050 1799 950 1750 c 2,31,-1
 900 1725 l 2,32,33
 850 1699 850 1699 850 1600 c 1,34,-1
 750 1600 l 1,35,36
 750 1751 750 1751 850 1800 c 256,18,19
EndSplineSet
EndChar

StartChar: ecircumflexhookabove
Encoding: 7875 7875 282
Width: 1050
GlyphClass: 2
Flags: W
LayerCount: 2
Fore
SplineSet
501 1001 m 256,0,1
 901 1001 901 1001 901 601 c 2,2,-1
 901 450 l 1,3,-1
 251 450 l 1,4,5
 269 150 269 150 500 150 c 0,6,7
 749 150 749 150 901 300 c 1,8,-1
 901 101 l 1,9,10
 750 1 750 1 500 1 c 2,11,-1
 498 1 l 2,12,13
 101 1 101 1 101 497 c 2,14,-1
 101 501 l 2,15,16
 101 1001 101 1001 501 1001 c 256,0,1
501 851 m 0,17,18
 291 851 291 851 256 600 c 1,19,-1
 750 600 l 1,20,-1
 750 603 l 2,21,22
 750 849 750 849 501 851 c 0,17,18
751 1151 m 1,23,-1
 551 1350 l 1,24,-1
 350 1151 l 1,25,-1
 250 1151 l 1,26,-1
 551 1550 l 1,27,-1
 851 1151 l 1,28,-1
 751 1151 l 1,23,-1
850 1550 m 256,29,30
 950 1599 950 1599 950 1650 c 0,31,32
 950 1750 950 1750 825 1750 c 256,33,34
 700 1750 700 1750 700 1700 c 1,35,-1
 600 1700 l 1,36,37
 600 1850 600 1850 825 1850 c 256,38,39
 1050 1850 1050 1850 1050 1650 c 0,40,41
 1050 1549 1050 1549 950 1500 c 2,42,-1
 900 1475 l 2,43,44
 850 1449 850 1449 850 1350 c 1,45,-1
 750 1350 l 1,46,47
 750 1501 750 1501 850 1550 c 256,29,30
EndSplineSet
EndChar

StartChar: Ecircumflextilde
Encoding: 7876 7876 283
Width: 1049
GlyphClass: 2
Flags: W
LayerCount: 2
Fore
SplineSet
950 1300 m 1,0,-1
 950 1150 l 1,1,-1
 300 1150 l 1,2,-1
 300 800 l 1,3,-1
 900 800 l 1,4,-1
 900 650 l 1,5,-1
 300 650 l 1,6,-1
 300 150 l 1,7,-1
 950 150 l 1,8,-1
 950 0 l 1,9,-1
 150 0 l 1,10,-1
 150 1300 l 1,11,-1
 950 1300 l 1,0,-1
751 1401 m 1,12,-1
 551 1600 l 1,13,-1
 350 1401 l 1,14,-1
 250 1401 l 1,15,-1
 551 1800 l 1,16,-1
 851 1401 l 1,17,-1
 751 1401 l 1,12,-1
706 1850 m 0,18,19
 608 1850 608 1850 531 1900 c 256,20,21
 454 1950 454 1950 406 1950 c 0,22,23
 357 1950 357 1950 357 1850 c 1,24,-1
 256 1850 l 1,25,26
 256 2050 256 2050 406 2050 c 0,27,28
 504 2050 504 2050 581 2000 c 256,29,30
 658 1950 658 1950 706 1950 c 0,31,32
 756 1950 756 1950 756 2050 c 1,33,-1
 856 2050 l 1,34,35
 856 1850 856 1850 706 1850 c 0,18,19
EndSplineSet
EndChar

StartChar: ecircumflextilde
Encoding: 7877 7877 284
Width: 1050
GlyphClass: 2
Flags: W
LayerCount: 2
Fore
SplineSet
501 1001 m 256,0,1
 901 1001 901 1001 901 601 c 2,2,-1
 901 450 l 1,3,-1
 251 450 l 1,4,5
 269 150 269 150 500 150 c 0,6,7
 749 150 749 150 901 300 c 1,8,-1
 901 101 l 1,9,10
 750 1 750 1 500 1 c 2,11,-1
 498 1 l 2,12,13
 101 1 101 1 101 497 c 2,14,-1
 101 501 l 2,15,16
 101 1001 101 1001 501 1001 c 256,0,1
501 851 m 0,17,18
 291 851 291 851 256 600 c 1,19,-1
 750 600 l 1,20,-1
 750 603 l 2,21,22
 750 849 750 849 501 851 c 0,17,18
751 1151 m 1,23,-1
 551 1350 l 1,24,-1
 350 1151 l 1,25,-1
 250 1151 l 1,26,-1
 551 1550 l 1,27,-1
 851 1151 l 1,28,-1
 751 1151 l 1,23,-1
706 1600 m 0,29,30
 608 1600 608 1600 531 1650 c 256,31,32
 454 1700 454 1700 406 1700 c 0,33,34
 357 1700 357 1700 357 1600 c 1,35,-1
 256 1600 l 1,36,37
 256 1800 256 1800 406 1800 c 0,38,39
 504 1800 504 1800 581 1750 c 256,40,41
 658 1700 658 1700 706 1700 c 0,42,43
 756 1700 756 1700 756 1800 c 1,44,-1
 856 1800 l 1,45,46
 856 1600 856 1600 706 1600 c 0,29,30
EndSplineSet
EndChar

StartChar: Ecircumflexdotbelow
Encoding: 7878 7878 285
Width: 1050
GlyphClass: 2
Flags: W
LayerCount: 2
Fore
SplineSet
950 1300 m 1,0,-1
 950 1150 l 1,1,-1
 300 1150 l 1,2,-1
 300 800 l 1,3,-1
 900 800 l 1,4,-1
 900 650 l 1,5,-1
 300 650 l 1,6,-1
 300 150 l 1,7,-1
 950 150 l 1,8,-1
 950 0 l 1,9,-1
 150 0 l 1,10,-1
 150 1300 l 1,11,-1
 950 1300 l 1,0,-1
476 -150 m 1,12,-1
 625 -150 l 1,13,-1
 625 -300 l 1,14,-1
 476 -300 l 1,15,-1
 476 -150 l 1,12,-1
751 1401 m 1,16,-1
 551 1600 l 1,17,-1
 350 1401 l 1,18,-1
 250 1401 l 1,19,-1
 551 1800 l 1,20,-1
 851 1401 l 1,21,-1
 751 1401 l 1,16,-1
EndSplineSet
EndChar

StartChar: ecircumflexdotbelow
Encoding: 7879 7879 286
Width: 1050
GlyphClass: 2
Flags: W
LayerCount: 2
Fore
SplineSet
501 1001 m 256,0,1
 901 1001 901 1001 901 601 c 2,2,-1
 901 450 l 1,3,-1
 251 450 l 1,4,5
 269 150 269 150 500 150 c 0,6,7
 749 150 749 150 901 300 c 1,8,-1
 901 101 l 1,9,10
 750 1 750 1 500 1 c 2,11,-1
 498 1 l 2,12,13
 101 1 101 1 101 497 c 2,14,-1
 101 501 l 2,15,16
 101 1001 101 1001 501 1001 c 256,0,1
501 851 m 0,17,18
 291 851 291 851 256 600 c 1,19,-1
 750 600 l 1,20,-1
 750 603 l 2,21,22
 750 849 750 849 501 851 c 0,17,18
476 -150 m 1,23,-1
 625 -150 l 1,24,-1
 625 -300 l 1,25,-1
 476 -300 l 1,26,-1
 476 -150 l 1,23,-1
751 1151 m 1,27,-1
 551 1350 l 1,28,-1
 350 1151 l 1,29,-1
 250 1151 l 1,30,-1
 551 1550 l 1,31,-1
 851 1151 l 1,32,-1
 751 1151 l 1,27,-1
EndSplineSet
EndChar

StartChar: Ihookabove
Encoding: 7880 7880 287
Width: 650
GlyphClass: 2
Flags: W
LayerCount: 2
Fore
SplineSet
250 150 m 1,0,-1
 250 1150 l 1,1,-1
 100 1150 l 1,2,-1
 100 1300 l 1,3,-1
 550 1300 l 1,4,-1
 550 1150 l 1,5,-1
 400 1150 l 1,6,-1
 400 150 l 1,7,-1
 550 150 l 1,8,-1
 550 0 l 1,9,-1
 100 0 l 1,10,-1
 100 150 l 1,11,-1
 250 150 l 1,0,-1
370 1600 m 256,12,13
 470 1649 470 1649 470 1700 c 0,14,15
 470 1800 470 1800 345 1800 c 256,16,17
 220 1800 220 1800 220 1750 c 1,18,-1
 120 1750 l 1,19,20
 120 1900 120 1900 345 1900 c 256,21,22
 570 1900 570 1900 570 1700 c 0,23,24
 570 1599 570 1599 470 1550 c 2,25,-1
 420 1525 l 2,26,27
 370 1499 370 1499 370 1400 c 1,28,-1
 270 1400 l 1,29,30
 270 1551 270 1551 370 1600 c 256,12,13
EndSplineSet
EndChar

StartChar: ihookabove
Encoding: 7881 7881 288
Width: 450
GlyphClass: 2
Flags: W
LayerCount: 2
Fore
SplineSet
300 1000 m 1,0,-1
 300 0 l 1,1,-1
 150 0 l 1,2,-1
 150 1000 l 1,3,-1
 300 1000 l 1,0,-1
250 1350 m 256,4,5
 350 1399 350 1399 350 1450 c 0,6,7
 350 1550 350 1550 225 1550 c 256,8,9
 100 1550 100 1550 100 1500 c 1,10,-1
 0 1500 l 1,11,12
 0 1650 0 1650 225 1650 c 256,13,14
 450 1650 450 1650 450 1450 c 0,15,16
 450 1349 450 1349 350 1300 c 2,17,-1
 300 1275 l 2,18,19
 250 1249 250 1249 250 1150 c 1,20,-1
 150 1150 l 1,21,22
 150 1301 150 1301 250 1350 c 256,4,5
EndSplineSet
EndChar

StartChar: Idotbelow
Encoding: 7882 7882 289
Width: 650
GlyphClass: 2
Flags: W
LayerCount: 2
Fore
SplineSet
250 150 m 1,0,-1
 250 1150 l 1,1,-1
 100 1150 l 1,2,-1
 100 1300 l 1,3,-1
 550 1300 l 1,4,-1
 550 1150 l 1,5,-1
 400 1150 l 1,6,-1
 400 150 l 1,7,-1
 550 150 l 1,8,-1
 550 0 l 1,9,-1
 100 0 l 1,10,-1
 100 150 l 1,11,-1
 250 150 l 1,0,-1
250 -150 m 1,12,-1
 400 -150 l 1,13,-1
 400 -300 l 1,14,-1
 250 -300 l 1,15,-1
 250 -150 l 1,12,-1
EndSplineSet
EndChar

StartChar: idotbelow
Encoding: 7883 7883 290
Width: 450
GlyphClass: 2
Flags: W
LayerCount: 2
Fore
SplineSet
150 1000 m 1,0,-1
 300 1000 l 1,1,-1
 300 0 l 1,2,-1
 150 0 l 1,3,-1
 150 1000 l 1,0,-1
150 1300 m 1,4,-1
 300 1300 l 1,5,-1
 300 1150 l 1,6,-1
 150 1150 l 1,7,-1
 150 1300 l 1,4,-1
150 -150 m 1,8,-1
 300 -150 l 1,9,-1
 300 -300 l 1,10,-1
 150 -300 l 1,11,-1
 150 -150 l 1,8,-1
EndSplineSet
EndChar

StartChar: Abreve
Encoding: 258 258 291
Width: 1100
GlyphClass: 2
Flags: W
LayerCount: 2
Fore
SplineSet
1062 0 m 1,0,-1
 905 0 l 1,1,-1
 778 400 l 1,2,-1
 327 400 l 1,3,-1
 204 0 l 1,4,-1
 48 0 l 1,5,-1
 450 1300 l 1,6,-1
 650 1300 l 1,7,-1
 1062 0 l 1,0,-1
731 550 m 1,8,-1
 550 1124 l 1,9,-1
 374 550 l 1,10,-1
 731 550 l 1,8,-1
549 1400 m 0,11,12
 298 1400 298 1400 249 1749 c 1,13,-1
 349 1749 l 1,14,15
 400 1550 400 1550 550 1550 c 0,16,17
 701 1550 701 1550 750 1749 c 1,18,-1
 850 1749 l 1,19,20
 801 1400 801 1400 549 1400 c 0,11,12
EndSplineSet
EndChar

StartChar: abreve
Encoding: 259 259 292
Width: 1050
GlyphClass: 2
Flags: W
LayerCount: 2
Fore
SplineSet
100 300 m 0,0,1
 100 650 100 650 650 650 c 2,2,-1
 751 650 l 1,3,-1
 751 701 l 2,4,5
 751 851 751 851 500 851 c 0,6,7
 339 851 339 851 151 801 c 1,8,-1
 151 951 l 1,9,10
 340 1001 340 1001 501 1001 c 0,11,12
 901 1001 901 1001 901 701 c 2,13,-1
 901 1 l 1,14,-1
 751 1 l 1,15,-1
 751 160 l 1,16,-1
 738 150 l 1,17,18
 550 0 550 0 400 0 c 0,19,20
 100 0 100 0 100 300 c 0,0,1
651 500 m 2,21,22
 251 500 251 500 251 300 c 0,23,24
 251 151 251 151 401 151 c 0,25,26
 500 151 500 151 625 250 c 2,27,-1
 750 350 l 1,28,-1
 751 347 l 1,29,-1
 751 500 l 1,30,-1
 651 500 l 2,21,22
549 1100 m 0,31,32
 298 1100 298 1100 249 1449 c 1,33,-1
 349 1449 l 1,34,35
 400 1250 400 1250 550 1250 c 0,36,37
 701 1250 701 1250 750 1449 c 1,38,-1
 850 1449 l 1,39,40
 801 1100 801 1100 549 1100 c 0,31,32
EndSplineSet
EndChar

StartChar: dtroke
Encoding: 273 273 293
Width: 1050
GlyphClass: 2
Flags: W
LayerCount: 2
Fore
SplineSet
501 1000 m 0,0,1
 656 1000 656 1000 751 926 c 1,2,-1
 751 1101 l 1,3,-1
 552 1101 l 1,4,-1
 552 1250 l 1,5,-1
 751 1250 l 1,6,-1
 751 1350 l 1,7,-1
 901 1350 l 1,8,-1
 901 1250 l 1,9,-1
 1001 1250 l 1,10,-1
 1001 1101 l 1,11,-1
 901 1101 l 1,12,-1
 901 0 l 1,13,-1
 751 0 l 1,14,-1
 751 76 l 1,15,16
 655 1 655 1 501 0 c 0,17,18
 101 0 101 0 101 500 c 256,19,20
 101 1000 101 1000 501 1000 c 0,0,1
501 150 m 0,21,22
 750 150 750 150 751 500 c 0,23,24
 751 850 751 850 502 850 c 0,25,26
 251 850 251 850 251 500 c 256,27,28
 251 150 251 150 501 150 c 0,21,22
EndSplineSet
EndChar

StartChar: Ohorn
Encoding: 416 416 294
Width: 1300
GlyphClass: 2
Flags: W
LayerCount: 2
Fore
SplineSet
150 650 m 256,0,1
 150 1300 150 1300 650 1300 c 0,2,3
 845 1300 845 1300 964 1200 c 1,4,-1
 964 1201 l 1,5,-1
 1017 1201 l 2,6,7
 1112 1201 1112 1201 1114 1300 c 1,8,9
 1014 1300 1014 1300 1013 1376 c 0,10,11
 1013 1451 1013 1451 1113 1451 c 256,12,13
 1213 1451 1213 1451 1213 1301 c 0,14,15
 1213 1119 1213 1119 1049 1101 c 1,16,17
 1150 941 1150 941 1150 650 c 0,18,19
 1150 0 1150 0 650 0 c 256,20,21
 150 0 150 0 150 650 c 256,0,1
300 650 m 256,22,23
 300 150 300 150 650 150 c 256,24,25
 1000 150 1000 150 1000 650 c 256,26,27
 1000 1150 1000 1150 650 1150 c 256,28,29
 300 1150 300 1150 300 650 c 256,22,23
EndSplineSet
EndChar

StartChar: ohorn
Encoding: 417 417 295
Width: 1100
GlyphClass: 2
Flags: W
LayerCount: 2
Fore
SplineSet
953 1151 m 256,0,1
 1053 1151 1053 1151 1053 1001 c 0,2,3
 1053 822 1053 822 894 802 c 1,4,5
 950 685 950 685 950 500 c 0,6,7
 950 0 950 0 550 0 c 256,8,9
 150 0 150 0 150 500 c 256,10,11
 150 1000 150 1000 550 1000 c 0,12,13
 728 1000 728 1000 826 901 c 1,14,-1
 857 901 l 2,15,16
 952 901 952 901 954 1000 c 1,17,18
 854 1000 854 1000 853 1076 c 0,19,20
 853 1151 853 1151 953 1151 c 256,0,1
550 150 m 256,21,22
 800 150 800 150 800 500 c 256,23,24
 800 850 800 850 550 850 c 256,25,26
 300 850 300 850 300 500 c 256,27,28
 300 150 300 150 550 150 c 256,21,22
EndSplineSet
EndChar

StartChar: Uhorn
Encoding: 431 431 296
Width: 1200
GlyphClass: 2
Flags: W
LayerCount: 2
Fore
SplineSet
1200 1500 m 256,0,1
 1300 1500 1300 1500 1300 1350 c 0,2,3
 1300 1150 1300 1150 1100 1150 c 2,4,-1
 1050 1150 l 1,5,-1
 1050 400 l 2,6,7
 1050 0 1050 0 600 0 c 256,8,9
 150 0 150 0 150 400 c 2,10,-1
 150 1300 l 1,11,-1
 300 1300 l 1,12,-1
 300 400 l 2,13,14
 300 150 300 150 600 150 c 256,15,16
 900 150 900 150 900 400 c 2,17,-1
 900 1300 l 1,18,-1
 1050 1300 l 1,19,-1
 1050 1250 l 1,20,-1
 1100 1250 l 2,21,22
 1200 1250 1200 1250 1200 1350 c 1,23,24
 1100 1350 1100 1350 1100 1425 c 256,25,26
 1100 1500 1100 1500 1200 1500 c 256,0,1
EndSplineSet
EndChar

StartChar: uhorn
Encoding: 432 432 297
Width: 1100
GlyphClass: 2
Flags: W
LayerCount: 2
Fore
SplineSet
1100 1200 m 256,0,1
 1200 1200 1200 1200 1200 1050 c 0,2,3
 1200 850 1200 850 1000 850 c 2,4,-1
 950 850 l 1,5,-1
 950 0 l 1,6,-1
 800 0 l 1,7,-1
 800 100 l 1,8,9
 700 0 700 0 550 0 c 0,10,11
 150 0 150 0 150 400 c 2,12,-1
 150 1000 l 1,13,-1
 300 1000 l 1,14,-1
 300 400 l 2,15,16
 300 150 300 150 550 150 c 256,17,18
 800 150 800 150 800 400 c 2,19,-1
 800 1000 l 1,20,-1
 950 1000 l 1,21,-1
 950 950 l 1,22,-1
 1000 950 l 2,23,24
 1100 950 1100 950 1100 1050 c 1,25,26
 1000 1050 1000 1050 1000 1125 c 256,27,28
 1000 1200 1000 1200 1100 1200 c 256,0,1
EndSplineSet
EndChar

StartChar: acute
Encoding: 769 769 298
Width: 0
GlyphClass: 2
Flags: W
LayerCount: 2
Fore
SplineSet
-50 1300 m 1,0,-1
 150 1700 l 1,1,-1
 300 1700 l 1,2,-1
 50 1300 l 1,3,-1
 -50 1300 l 1,0,-1
EndSplineSet
EndChar

StartChar: grave
Encoding: 768 768 299
Width: 0
GlyphClass: 2
Flags: W
LayerCount: 2
Fore
SplineSet
-50 1300 m 1,0,-1
 -350 1650 l 1,1,-1
 -200 1650 l 1,2,-1
 50 1300 l 1,3,-1
 -50 1300 l 1,0,-1
EndSplineSet
EndChar

StartChar: hookabove
Encoding: 777 777 300
Width: 0
GlyphClass: 2
Flags: W
LayerCount: 2
Fore
SplineSet
50 1500 m 256,0,1
 150 1549 150 1549 150 1600 c 0,2,3
 150 1700 150 1700 25 1700 c 256,4,5
 -100 1700 -100 1700 -100 1650 c 1,6,-1
 -200 1650 l 1,7,8
 -200 1800 -200 1800 25 1800 c 256,9,10
 250 1800 250 1800 250 1600 c 0,11,12
 250 1499 250 1499 150 1450 c 2,13,-1
 100 1425 l 2,14,15
 50 1399 50 1399 50 1300 c 1,16,-1
 -50 1300 l 1,17,18
 -50 1451 -50 1451 50 1500 c 256,0,1
EndSplineSet
EndChar

StartChar: tilde
Encoding: 771 771 301
Width: 0
GlyphClass: 2
Flags: W
LayerCount: 2
Fore
SplineSet
150 1300 m 0,0,1
 52 1300 52 1300 -25 1350 c 256,2,3
 -102 1400 -102 1400 -150 1400 c 0,4,5
 -199 1400 -199 1400 -199 1300 c 1,6,-1
 -300 1300 l 1,7,8
 -300 1500 -300 1500 -150 1500 c 0,9,10
 -52 1500 -52 1500 25 1450 c 256,11,12
 102 1400 102 1400 150 1400 c 0,13,14
 200 1400 200 1400 200 1500 c 1,15,-1
 300 1500 l 1,16,17
 300 1300 300 1300 150 1300 c 0,0,1
EndSplineSet
EndChar

StartChar: dotbelow
Encoding: 803 803 302
Width: 0
GlyphClass: 2
Flags: W
LayerCount: 2
Fore
SplineSet
-75 -500 m 1,0,-1
 76 -500 l 1,1,-1
 76 -650 l 1,2,-1
 -75 -650 l 1,3,-1
 -75 -500 l 1,0,-1
EndSplineSet
EndChar

StartChar: Odotbelow
Encoding: 7884 7884 303
Width: 1300
GlyphClass: 2
Flags: W
LayerCount: 2
Fore
SplineSet
150 650 m 256,0,1
 150 1300 150 1300 650 1300 c 256,2,3
 1150 1300 1150 1300 1150 650 c 256,4,5
 1150 0 1150 0 650 0 c 256,6,7
 150 0 150 0 150 650 c 256,0,1
300 650 m 256,8,9
 300 150 300 150 650 150 c 256,10,11
 1000 150 1000 150 1000 650 c 256,12,13
 1000 1150 1000 1150 650 1150 c 256,14,15
 300 1150 300 1150 300 650 c 256,8,9
575 -150 m 1,16,-1
 725 -150 l 1,17,-1
 725 -300 l 1,18,-1
 575 -300 l 1,19,-1
 575 -150 l 1,16,-1
EndSplineSet
EndChar

StartChar: odotbelow
Encoding: 7885 7885 304
Width: 1100
GlyphClass: 2
Flags: W
LayerCount: 2
Fore
SplineSet
550 1000 m 256,0,1
 950 1000 950 1000 950 500 c 256,2,3
 950 0 950 0 550 0 c 256,4,5
 150 0 150 0 150 500 c 256,6,7
 150 1000 150 1000 550 1000 c 256,0,1
550 150 m 256,8,9
 800 150 800 150 800 500 c 256,10,11
 800 850 800 850 550 850 c 256,12,13
 300 850 300 850 300 500 c 256,14,15
 300 150 300 150 550 150 c 256,8,9
475 -150 m 1,16,-1
 625 -150 l 1,17,-1
 625 -300 l 1,18,-1
 475 -300 l 1,19,-1
 475 -150 l 1,16,-1
EndSplineSet
EndChar

StartChar: Ohookabove
Encoding: 7886 7886 305
Width: 1300
GlyphClass: 2
Flags: W
LayerCount: 2
Fore
SplineSet
150 650 m 256,0,1
 150 1300 150 1300 650 1300 c 256,2,3
 1150 1300 1150 1300 1150 650 c 256,4,5
 1150 0 1150 0 650 0 c 256,6,7
 150 0 150 0 150 650 c 256,0,1
300 650 m 256,8,9
 300 150 300 150 650 150 c 256,10,11
 1000 150 1000 150 1000 650 c 256,12,13
 1000 1150 1000 1150 650 1150 c 256,14,15
 300 1150 300 1150 300 650 c 256,8,9
700 1600 m 256,16,17
 800 1649 800 1649 800 1700 c 0,18,19
 800 1800 800 1800 675 1800 c 256,20,21
 550 1800 550 1800 550 1750 c 1,22,-1
 450 1750 l 1,23,24
 450 1900 450 1900 675 1900 c 256,25,26
 900 1900 900 1900 900 1700 c 0,27,28
 900 1599 900 1599 800 1550 c 2,29,-1
 750 1525 l 2,30,31
 700 1499 700 1499 700 1400 c 1,32,-1
 600 1400 l 1,33,34
 600 1551 600 1551 700 1600 c 256,16,17
EndSplineSet
EndChar

StartChar: ohookabove
Encoding: 7887 7887 306
Width: 1100
GlyphClass: 2
Flags: W
LayerCount: 2
Fore
SplineSet
551 1001 m 256,0,1
 951 1001 951 1001 951 501 c 0,2,3
 949 1 949 1 550 1 c 2,4,-1
 548 1 l 2,5,6
 151 1 151 1 151 497 c 2,7,-1
 151 501 l 2,8,9
 151 1001 151 1001 551 1001 c 256,0,1
550 150 m 256,10,11
 800 150 800 150 800 500 c 2,12,-1
 800 504 l 2,13,14
 800 850 800 850 550 850 c 256,15,16
 300 850 300 850 300 500 c 256,17,18
 300 150 300 150 550 150 c 256,10,11
600 1350 m 256,19,20
 700 1399 700 1399 700 1450 c 0,21,22
 700 1550 700 1550 575 1550 c 256,23,24
 450 1550 450 1550 450 1500 c 1,25,-1
 350 1500 l 1,26,27
 350 1650 350 1650 575 1650 c 256,28,29
 800 1650 800 1650 800 1450 c 0,30,31
 800 1349 800 1349 700 1300 c 2,32,-1
 650 1275 l 2,33,34
 600 1249 600 1249 600 1150 c 1,35,-1
 500 1150 l 1,36,37
 500 1301 500 1301 600 1350 c 256,19,20
EndSplineSet
EndChar

StartChar: Ocircumflexacute
Encoding: 7888 7888 307
Width: 1300
GlyphClass: 2
Flags: W
LayerCount: 2
Fore
SplineSet
150 650 m 256,0,1
 150 1300 150 1300 650 1300 c 256,2,3
 1150 1300 1150 1300 1150 650 c 256,4,5
 1150 0 1150 0 650 0 c 256,6,7
 150 0 150 0 150 650 c 256,0,1
300 650 m 256,8,9
 300 150 300 150 650 150 c 256,10,11
 1000 150 1000 150 1000 650 c 256,12,13
 1000 1150 1000 1150 650 1150 c 256,14,15
 300 1150 300 1150 300 650 c 256,8,9
850 1401 m 1,16,-1
 650 1600 l 1,17,-1
 449 1401 l 1,18,-1
 349 1401 l 1,19,-1
 650 1800 l 1,20,-1
 950 1401 l 1,21,-1
 850 1401 l 1,16,-1
900 1600 m 1,22,-1
 800 1600 l 1,23,-1
 1000 2000 l 1,24,-1
 1150 2000 l 1,25,-1
 900 1600 l 1,22,-1
EndSplineSet
EndChar

StartChar: ocircumflexacute
Encoding: 7889 7889 308
Width: 1100
GlyphClass: 2
Flags: W
LayerCount: 2
Fore
SplineSet
551 1001 m 256,0,1
 951 1001 951 1001 951 501 c 0,2,3
 949 1 949 1 550 1 c 2,4,-1
 548 1 l 2,5,6
 151 1 151 1 151 497 c 2,7,-1
 151 501 l 2,8,9
 151 1001 151 1001 551 1001 c 256,0,1
550 150 m 256,10,11
 800 150 800 150 800 500 c 2,12,-1
 800 504 l 2,13,14
 800 850 800 850 550 850 c 256,15,16
 300 850 300 850 300 500 c 256,17,18
 300 150 300 150 550 150 c 256,10,11
751 1151 m 1,19,-1
 551 1350 l 1,20,-1
 350 1151 l 1,21,-1
 250 1151 l 1,22,-1
 551 1550 l 1,23,-1
 851 1151 l 1,24,-1
 751 1151 l 1,19,-1
800 1390 m 1,25,-1
 700 1390 l 1,26,-1
 900 1790 l 1,27,-1
 1050 1790 l 1,28,-1
 800 1390 l 1,25,-1
EndSplineSet
EndChar

StartChar: Ocircumflexgrave
Encoding: 7890 7890 309
Width: 1300
GlyphClass: 2
Flags: W
LayerCount: 2
Fore
SplineSet
150 650 m 256,0,1
 150 1300 150 1300 650 1300 c 256,2,3
 1150 1300 1150 1300 1150 650 c 256,4,5
 1150 0 1150 0 650 0 c 256,6,7
 150 0 150 0 150 650 c 256,0,1
300 650 m 256,8,9
 300 150 300 150 650 150 c 256,10,11
 1000 150 1000 150 1000 650 c 256,12,13
 1000 1150 1000 1150 650 1150 c 256,14,15
 300 1150 300 1150 300 650 c 256,8,9
850 1401 m 1,16,-1
 650 1600 l 1,17,-1
 449 1401 l 1,18,-1
 349 1401 l 1,19,-1
 650 1800 l 1,20,-1
 950 1401 l 1,21,-1
 850 1401 l 1,16,-1
1050 1600 m 1,22,-1
 950 1600 l 1,23,-1
 650 1950 l 1,24,-1
 800 1950 l 1,25,-1
 1050 1600 l 1,22,-1
EndSplineSet
EndChar

StartChar: ocircumflexgrave
Encoding: 7891 7891 310
Width: 1100
GlyphClass: 2
Flags: W
LayerCount: 2
Fore
SplineSet
551 1001 m 256,0,1
 951 1001 951 1001 951 501 c 0,2,3
 949 1 949 1 550 1 c 2,4,-1
 548 1 l 2,5,6
 151 1 151 1 151 497 c 2,7,-1
 151 501 l 2,8,9
 151 1001 151 1001 551 1001 c 256,0,1
550 150 m 256,10,11
 800 150 800 150 800 500 c 2,12,-1
 800 504 l 2,13,14
 800 850 800 850 550 850 c 256,15,16
 300 850 300 850 300 500 c 256,17,18
 300 150 300 150 550 150 c 256,10,11
751 1151 m 1,19,-1
 551 1350 l 1,20,-1
 350 1151 l 1,21,-1
 250 1151 l 1,22,-1
 551 1550 l 1,23,-1
 851 1151 l 1,24,-1
 751 1151 l 1,19,-1
1000 1350 m 1,25,-1
 900 1350 l 1,26,-1
 600 1700 l 1,27,-1
 750 1700 l 1,28,-1
 1000 1350 l 1,25,-1
EndSplineSet
EndChar

StartChar: Ocircumflexhookabove
Encoding: 7892 7892 311
Width: 1300
GlyphClass: 2
Flags: W
LayerCount: 2
Fore
SplineSet
150 650 m 256,0,1
 150 1300 150 1300 650 1300 c 256,2,3
 1150 1300 1150 1300 1150 650 c 256,4,5
 1150 0 1150 0 650 0 c 256,6,7
 150 0 150 0 150 650 c 256,0,1
300 650 m 256,8,9
 300 150 300 150 650 150 c 256,10,11
 1000 150 1000 150 1000 650 c 256,12,13
 1000 1150 1000 1150 650 1150 c 256,14,15
 300 1150 300 1150 300 650 c 256,8,9
850 1401 m 1,16,-1
 650 1600 l 1,17,-1
 449 1401 l 1,18,-1
 349 1401 l 1,19,-1
 650 1800 l 1,20,-1
 950 1401 l 1,21,-1
 850 1401 l 1,16,-1
950 1800 m 256,22,23
 1050 1849 1050 1849 1050 1900 c 0,24,25
 1050 2000 1050 2000 925 2000 c 256,26,27
 800 2000 800 2000 800 1950 c 1,28,-1
 700 1950 l 1,29,30
 700 2100 700 2100 925 2100 c 256,31,32
 1150 2100 1150 2100 1150 1900 c 0,33,34
 1150 1799 1150 1799 1050 1750 c 2,35,-1
 1000 1725 l 2,36,37
 950 1699 950 1699 950 1600 c 1,38,-1
 850 1600 l 1,39,40
 850 1751 850 1751 950 1800 c 256,22,23
EndSplineSet
EndChar

StartChar: ocircumflexhookabove
Encoding: 7893 7893 312
Width: 1100
GlyphClass: 2
Flags: W
LayerCount: 2
Fore
SplineSet
551 1001 m 256,0,1
 951 1001 951 1001 951 501 c 0,2,3
 949 1 949 1 550 1 c 2,4,-1
 548 1 l 2,5,6
 151 1 151 1 151 497 c 2,7,-1
 151 501 l 2,8,9
 151 1001 151 1001 551 1001 c 256,0,1
550 150 m 256,10,11
 800 150 800 150 800 500 c 2,12,-1
 800 504 l 2,13,14
 800 850 800 850 550 850 c 256,15,16
 300 850 300 850 300 500 c 256,17,18
 300 150 300 150 550 150 c 256,10,11
751 1151 m 1,19,-1
 551 1350 l 1,20,-1
 350 1151 l 1,21,-1
 250 1151 l 1,22,-1
 551 1550 l 1,23,-1
 851 1151 l 1,24,-1
 751 1151 l 1,19,-1
850 1550 m 256,25,26
 950 1599 950 1599 950 1650 c 0,27,28
 950 1750 950 1750 825 1750 c 256,29,30
 700 1750 700 1750 700 1700 c 1,31,-1
 600 1700 l 1,32,33
 600 1850 600 1850 825 1850 c 256,34,35
 1050 1850 1050 1850 1050 1650 c 0,36,37
 1050 1549 1050 1549 950 1500 c 2,38,-1
 900 1475 l 2,39,40
 850 1449 850 1449 850 1350 c 1,41,-1
 750 1350 l 1,42,43
 750 1501 750 1501 850 1550 c 256,25,26
EndSplineSet
EndChar

StartChar: Ocircumflextilde
Encoding: 7894 7894 313
Width: 1300
GlyphClass: 2
Flags: W
LayerCount: 2
Fore
SplineSet
150 650 m 256,0,1
 150 1300 150 1300 650 1300 c 256,2,3
 1150 1300 1150 1300 1150 650 c 256,4,5
 1150 0 1150 0 650 0 c 256,6,7
 150 0 150 0 150 650 c 256,0,1
300 650 m 256,8,9
 300 150 300 150 650 150 c 256,10,11
 1000 150 1000 150 1000 650 c 256,12,13
 1000 1150 1000 1150 650 1150 c 256,14,15
 300 1150 300 1150 300 650 c 256,8,9
850 1401 m 1,16,-1
 650 1600 l 1,17,-1
 449 1401 l 1,18,-1
 349 1401 l 1,19,-1
 650 1800 l 1,20,-1
 950 1401 l 1,21,-1
 850 1401 l 1,16,-1
796 1850 m 0,22,23
 698 1850 698 1850 621 1900 c 256,24,25
 544 1950 544 1950 496 1950 c 0,26,27
 447 1950 447 1950 447 1850 c 1,28,-1
 346 1850 l 1,29,30
 346 2050 346 2050 496 2050 c 0,31,32
 594 2050 594 2050 671 2000 c 256,33,34
 748 1950 748 1950 796 1950 c 0,35,36
 846 1950 846 1950 846 2050 c 1,37,-1
 946 2050 l 1,38,39
 946 1850 946 1850 796 1850 c 0,22,23
EndSplineSet
EndChar

StartChar: ocircumflextilde
Encoding: 7895 7895 314
Width: 1100
GlyphClass: 2
Flags: W
LayerCount: 2
Fore
SplineSet
551 1001 m 256,0,1
 951 1001 951 1001 951 501 c 0,2,3
 949 1 949 1 550 1 c 2,4,-1
 548 1 l 2,5,6
 151 1 151 1 151 497 c 2,7,-1
 151 501 l 2,8,9
 151 1001 151 1001 551 1001 c 256,0,1
550 150 m 256,10,11
 800 150 800 150 800 500 c 2,12,-1
 800 504 l 2,13,14
 800 850 800 850 550 850 c 256,15,16
 300 850 300 850 300 500 c 256,17,18
 300 150 300 150 550 150 c 256,10,11
751 1151 m 1,19,-1
 551 1350 l 1,20,-1
 350 1151 l 1,21,-1
 250 1151 l 1,22,-1
 551 1550 l 1,23,-1
 851 1151 l 1,24,-1
 751 1151 l 1,19,-1
706 1600 m 0,25,26
 608 1600 608 1600 531 1650 c 256,27,28
 454 1700 454 1700 406 1700 c 0,29,30
 357 1700 357 1700 357 1600 c 1,31,-1
 256 1600 l 1,32,33
 256 1800 256 1800 406 1800 c 0,34,35
 504 1800 504 1800 581 1750 c 256,36,37
 658 1700 658 1700 706 1700 c 0,38,39
 756 1700 756 1700 756 1800 c 1,40,-1
 856 1800 l 1,41,42
 856 1600 856 1600 706 1600 c 0,25,26
EndSplineSet
EndChar

StartChar: Ocircumflexdotbelow
Encoding: 7896 7896 315
Width: 1300
GlyphClass: 2
Flags: W
LayerCount: 2
Fore
SplineSet
150 650 m 256,0,1
 150 1300 150 1300 650 1300 c 256,2,3
 1150 1300 1150 1300 1150 650 c 256,4,5
 1150 0 1150 0 650 0 c 256,6,7
 150 0 150 0 150 650 c 256,0,1
300 650 m 256,8,9
 300 150 300 150 650 150 c 256,10,11
 1000 150 1000 150 1000 650 c 256,12,13
 1000 1150 1000 1150 650 1150 c 256,14,15
 300 1150 300 1150 300 650 c 256,8,9
850 1401 m 1,16,-1
 650 1600 l 1,17,-1
 449 1401 l 1,18,-1
 349 1401 l 1,19,-1
 650 1800 l 1,20,-1
 950 1401 l 1,21,-1
 850 1401 l 1,16,-1
575 -150 m 1,22,-1
 725 -150 l 1,23,-1
 725 -300 l 1,24,-1
 575 -300 l 1,25,-1
 575 -150 l 1,22,-1
EndSplineSet
EndChar

StartChar: ocircumflexdotbelow
Encoding: 7897 7897 316
Width: 1100
GlyphClass: 2
Flags: W
LayerCount: 2
Fore
SplineSet
551 1001 m 256,0,1
 951 1001 951 1001 951 501 c 0,2,3
 949 1 949 1 550 1 c 2,4,-1
 548 1 l 2,5,6
 151 1 151 1 151 497 c 2,7,-1
 151 501 l 2,8,9
 151 1001 151 1001 551 1001 c 256,0,1
550 150 m 256,10,11
 800 150 800 150 800 500 c 2,12,-1
 800 504 l 2,13,14
 800 850 800 850 550 850 c 256,15,16
 300 850 300 850 300 500 c 256,17,18
 300 150 300 150 550 150 c 256,10,11
751 1151 m 1,19,-1
 551 1350 l 1,20,-1
 350 1151 l 1,21,-1
 250 1151 l 1,22,-1
 551 1550 l 1,23,-1
 851 1151 l 1,24,-1
 751 1151 l 1,19,-1
475 -150 m 1,25,-1
 625 -150 l 1,26,-1
 625 -300 l 1,27,-1
 475 -300 l 1,28,-1
 475 -150 l 1,25,-1
EndSplineSet
EndChar

StartChar: Ohornacute
Encoding: 7898 7898 317
Width: 1300
GlyphClass: 2
Flags: W
LayerCount: 2
Fore
SplineSet
1113 1451 m 256,0,1
 1213 1451 1213 1451 1213 1301 c 0,2,3
 1213 1110 1213 1110 1033 1100 c 1,4,-1
 964 1201 l 1,5,-1
 1017 1201 l 2,6,7
 1112 1201 1112 1201 1114 1300 c 1,8,9
 1014 1300 1014 1300 1013 1376 c 0,10,11
 1013 1451 1013 1451 1113 1451 c 256,0,1
150 650 m 256,12,13
 150 1300 150 1300 650 1300 c 256,14,15
 1150 1300 1150 1300 1150 650 c 256,16,17
 1150 0 1150 0 650 0 c 256,18,19
 150 0 150 0 150 650 c 256,12,13
300 650 m 256,20,21
 300 150 300 150 650 150 c 256,22,23
 1000 150 1000 150 1000 650 c 256,24,25
 1000 1150 1000 1150 650 1150 c 256,26,27
 300 1150 300 1150 300 650 c 256,20,21
600 1400 m 1,28,-1
 500 1400 l 1,29,-1
 700 1800 l 1,30,-1
 850 1800 l 1,31,-1
 600 1400 l 1,28,-1
EndSplineSet
EndChar

StartChar: ohornacute
Encoding: 7899 7899 318
Width: 1100
GlyphClass: 2
Flags: W
LayerCount: 2
Fore
SplineSet
550 1000 m 256,0,1
 950 1000 950 1000 950 500 c 256,2,3
 950 0 950 0 550 0 c 256,4,5
 150 0 150 0 150 500 c 256,6,7
 150 1000 150 1000 550 1000 c 256,0,1
550 150 m 256,8,9
 800 150 800 150 800 500 c 256,10,11
 800 850 800 850 550 850 c 256,12,13
 300 850 300 850 300 500 c 256,14,15
 300 150 300 150 550 150 c 256,8,9
953 1151 m 256,16,17
 1053 1151 1053 1151 1053 1001 c 0,18,19
 1053 810 1053 810 873 800 c 1,20,-1
 804 901 l 1,21,-1
 857 901 l 2,22,23
 952 901 952 901 954 1000 c 1,24,25
 854 1000 854 1000 853 1076 c 0,26,27
 853 1151 853 1151 953 1151 c 256,16,17
500 1150 m 1,28,-1
 400 1150 l 1,29,-1
 600 1550 l 1,30,-1
 750 1550 l 1,31,-1
 500 1150 l 1,28,-1
EndSplineSet
EndChar

